G04 #@! TF.GenerationSoftware,KiCad,Pcbnew,(5.1.4)-1*
G04 #@! TF.CreationDate,2019-11-02T17:27:44+00:00*
G04 #@! TF.ProjectId,timer-board,74696d65-722d-4626-9f61-72642e6b6963,rev?*
G04 #@! TF.SameCoordinates,Original*
G04 #@! TF.FileFunction,Legend,Top*
G04 #@! TF.FilePolarity,Positive*
%FSLAX46Y46*%
G04 Gerber Fmt 4.6, Leading zero omitted, Abs format (unit mm)*
G04 Created by KiCad (PCBNEW (5.1.4)-1) date 2019-11-02 17:27:44*
%MOMM*%
%LPD*%
G04 APERTURE LIST*
%ADD10C,0.150000*%
%ADD11C,0.120000*%
%ADD12C,0.200000*%
%ADD13C,0.152400*%
%ADD14C,0.100000*%
%ADD15C,0.050000*%
G04 APERTURE END LIST*
D10*
X353671714Y-104846380D02*
X353338380Y-104370190D01*
X353100285Y-104846380D02*
X353100285Y-103846380D01*
X353481238Y-103846380D01*
X353576476Y-103894000D01*
X353624095Y-103941619D01*
X353671714Y-104036857D01*
X353671714Y-104179714D01*
X353624095Y-104274952D01*
X353576476Y-104322571D01*
X353481238Y-104370190D01*
X353100285Y-104370190D01*
X354100285Y-104846380D02*
X354100285Y-103846380D01*
X354528857Y-104846380D02*
X354528857Y-104322571D01*
X354481238Y-104227333D01*
X354386000Y-104179714D01*
X354243142Y-104179714D01*
X354147904Y-104227333D01*
X354100285Y-104274952D01*
X355147904Y-104846380D02*
X355052666Y-104798761D01*
X355005047Y-104751142D01*
X354957428Y-104655904D01*
X354957428Y-104370190D01*
X355005047Y-104274952D01*
X355052666Y-104227333D01*
X355147904Y-104179714D01*
X355290761Y-104179714D01*
X355386000Y-104227333D01*
X355433619Y-104274952D01*
X355481238Y-104370190D01*
X355481238Y-104655904D01*
X355433619Y-104751142D01*
X355386000Y-104798761D01*
X355290761Y-104846380D01*
X355147904Y-104846380D01*
X355909809Y-104846380D02*
X355909809Y-103846380D01*
X355909809Y-104227333D02*
X356005047Y-104179714D01*
X356195523Y-104179714D01*
X356290761Y-104227333D01*
X356338380Y-104274952D01*
X356386000Y-104370190D01*
X356386000Y-104655904D01*
X356338380Y-104751142D01*
X356290761Y-104798761D01*
X356195523Y-104846380D01*
X356005047Y-104846380D01*
X355909809Y-104798761D01*
X356957428Y-104846380D02*
X356862190Y-104798761D01*
X356814571Y-104751142D01*
X356766952Y-104655904D01*
X356766952Y-104370190D01*
X356814571Y-104274952D01*
X356862190Y-104227333D01*
X356957428Y-104179714D01*
X357100285Y-104179714D01*
X357195523Y-104227333D01*
X357243142Y-104274952D01*
X357290761Y-104370190D01*
X357290761Y-104655904D01*
X357243142Y-104751142D01*
X357195523Y-104798761D01*
X357100285Y-104846380D01*
X356957428Y-104846380D01*
X357576476Y-104179714D02*
X357957428Y-104179714D01*
X357719333Y-103846380D02*
X357719333Y-104703523D01*
X357766952Y-104798761D01*
X357862190Y-104846380D01*
X357957428Y-104846380D01*
X358290761Y-104846380D02*
X358290761Y-104179714D01*
X358290761Y-103846380D02*
X358243142Y-103894000D01*
X358290761Y-103941619D01*
X358338380Y-103894000D01*
X358290761Y-103846380D01*
X358290761Y-103941619D01*
X358624095Y-104179714D02*
X359005047Y-104179714D01*
X358766952Y-104846380D02*
X358766952Y-103989238D01*
X358814571Y-103894000D01*
X358909809Y-103846380D01*
X359005047Y-103846380D01*
X359243142Y-104179714D02*
X359481238Y-104846380D01*
X359719333Y-104179714D02*
X359481238Y-104846380D01*
X359386000Y-105084476D01*
X359338380Y-105132095D01*
X359243142Y-105179714D01*
X361338380Y-104846380D02*
X360862190Y-104846380D01*
X360862190Y-103846380D01*
X361528857Y-104179714D02*
X361909809Y-104179714D01*
X361671714Y-103846380D02*
X361671714Y-104703523D01*
X361719333Y-104798761D01*
X361814571Y-104846380D01*
X361909809Y-104846380D01*
X362671714Y-104846380D02*
X362671714Y-103846380D01*
X362671714Y-104798761D02*
X362576476Y-104846380D01*
X362386000Y-104846380D01*
X362290761Y-104798761D01*
X362243142Y-104751142D01*
X362195523Y-104655904D01*
X362195523Y-104370190D01*
X362243142Y-104274952D01*
X362290761Y-104227333D01*
X362386000Y-104179714D01*
X362576476Y-104179714D01*
X362671714Y-104227333D01*
X342019428Y-103846380D02*
X342590857Y-103846380D01*
X342305142Y-104846380D02*
X342305142Y-103846380D01*
X342924190Y-104846380D02*
X342924190Y-104179714D01*
X342924190Y-103846380D02*
X342876571Y-103894000D01*
X342924190Y-103941619D01*
X342971809Y-103894000D01*
X342924190Y-103846380D01*
X342924190Y-103941619D01*
X343400380Y-104846380D02*
X343400380Y-104179714D01*
X343400380Y-104274952D02*
X343448000Y-104227333D01*
X343543238Y-104179714D01*
X343686095Y-104179714D01*
X343781333Y-104227333D01*
X343828952Y-104322571D01*
X343828952Y-104846380D01*
X343828952Y-104322571D02*
X343876571Y-104227333D01*
X343971809Y-104179714D01*
X344114666Y-104179714D01*
X344209904Y-104227333D01*
X344257523Y-104322571D01*
X344257523Y-104846380D01*
X345114666Y-104798761D02*
X345019428Y-104846380D01*
X344828952Y-104846380D01*
X344733714Y-104798761D01*
X344686095Y-104703523D01*
X344686095Y-104322571D01*
X344733714Y-104227333D01*
X344828952Y-104179714D01*
X345019428Y-104179714D01*
X345114666Y-104227333D01*
X345162285Y-104322571D01*
X345162285Y-104417809D01*
X344686095Y-104513047D01*
X345590857Y-104846380D02*
X345590857Y-104179714D01*
X345590857Y-104370190D02*
X345638476Y-104274952D01*
X345686095Y-104227333D01*
X345781333Y-104179714D01*
X345876571Y-104179714D01*
X346828952Y-103846380D02*
X347162285Y-104846380D01*
X347495619Y-103846380D01*
X348352761Y-104846380D02*
X347781333Y-104846380D01*
X348067047Y-104846380D02*
X348067047Y-103846380D01*
X347971809Y-103989238D01*
X347876571Y-104084476D01*
X347781333Y-104132095D01*
X348781333Y-104751142D02*
X348828952Y-104798761D01*
X348781333Y-104846380D01*
X348733714Y-104798761D01*
X348781333Y-104751142D01*
X348781333Y-104846380D01*
X349209904Y-103941619D02*
X349257523Y-103894000D01*
X349352761Y-103846380D01*
X349590857Y-103846380D01*
X349686095Y-103894000D01*
X349733714Y-103941619D01*
X349781333Y-104036857D01*
X349781333Y-104132095D01*
X349733714Y-104274952D01*
X349162285Y-104846380D01*
X349781333Y-104846380D01*
X332597333Y-108370666D02*
X333073523Y-108370666D01*
X332502095Y-108656380D02*
X332835428Y-107656380D01*
X333168761Y-108656380D01*
X333502095Y-107656380D02*
X333502095Y-108465904D01*
X333549714Y-108561142D01*
X333597333Y-108608761D01*
X333692571Y-108656380D01*
X333883047Y-108656380D01*
X333978285Y-108608761D01*
X334025904Y-108561142D01*
X334073523Y-108465904D01*
X334073523Y-107656380D01*
X334406857Y-107656380D02*
X334978285Y-107656380D01*
X334692571Y-108656380D02*
X334692571Y-107656380D01*
X335502095Y-107656380D02*
X335692571Y-107656380D01*
X335787809Y-107704000D01*
X335883047Y-107799238D01*
X335930666Y-107989714D01*
X335930666Y-108323047D01*
X335883047Y-108513523D01*
X335787809Y-108608761D01*
X335692571Y-108656380D01*
X335502095Y-108656380D01*
X335406857Y-108608761D01*
X335311619Y-108513523D01*
X335264000Y-108323047D01*
X335264000Y-107989714D01*
X335311619Y-107799238D01*
X335406857Y-107704000D01*
X335502095Y-107656380D01*
X315198285Y-108656380D02*
X315198285Y-107656380D01*
X315531619Y-108370666D01*
X315864952Y-107656380D01*
X315864952Y-108656380D01*
X316293523Y-108370666D02*
X316769714Y-108370666D01*
X316198285Y-108656380D02*
X316531619Y-107656380D01*
X316864952Y-108656380D01*
X317198285Y-108656380D02*
X317198285Y-107656380D01*
X317769714Y-108656380D01*
X317769714Y-107656380D01*
X362029523Y-119832380D02*
X362029523Y-118832380D01*
X362029523Y-119308571D02*
X362600952Y-119308571D01*
X362600952Y-119832380D02*
X362600952Y-118832380D01*
X363553333Y-119832380D02*
X363077142Y-119832380D01*
X363077142Y-118832380D01*
X363886666Y-119832380D02*
X363886666Y-118832380D01*
X364124761Y-118832380D01*
X364267619Y-118880000D01*
X364362857Y-118975238D01*
X364410476Y-119070476D01*
X364458095Y-119260952D01*
X364458095Y-119403809D01*
X364410476Y-119594285D01*
X364362857Y-119689523D01*
X364267619Y-119784761D01*
X364124761Y-119832380D01*
X363886666Y-119832380D01*
X362624761Y-117197142D02*
X362577142Y-117244761D01*
X362434285Y-117292380D01*
X362339047Y-117292380D01*
X362196190Y-117244761D01*
X362100952Y-117149523D01*
X362053333Y-117054285D01*
X362005714Y-116863809D01*
X362005714Y-116720952D01*
X362053333Y-116530476D01*
X362100952Y-116435238D01*
X362196190Y-116340000D01*
X362339047Y-116292380D01*
X362434285Y-116292380D01*
X362577142Y-116340000D01*
X362624761Y-116387619D01*
X363529523Y-117292380D02*
X363053333Y-117292380D01*
X363053333Y-116292380D01*
X363862857Y-117292380D02*
X363862857Y-116292380D01*
X364434285Y-117292380D02*
X364005714Y-116720952D01*
X364434285Y-116292380D02*
X363862857Y-116863809D01*
X362743809Y-111974380D02*
X362839047Y-111974380D01*
X362934285Y-112022000D01*
X362981904Y-112069619D01*
X363029523Y-112164857D01*
X363077142Y-112355333D01*
X363077142Y-112593428D01*
X363029523Y-112783904D01*
X362981904Y-112879142D01*
X362934285Y-112926761D01*
X362839047Y-112974380D01*
X362743809Y-112974380D01*
X362648571Y-112926761D01*
X362600952Y-112879142D01*
X362553333Y-112783904D01*
X362505714Y-112593428D01*
X362505714Y-112355333D01*
X362553333Y-112164857D01*
X362600952Y-112069619D01*
X362648571Y-112022000D01*
X362743809Y-111974380D01*
X363362857Y-111974380D02*
X363696190Y-112974380D01*
X364029523Y-111974380D01*
X363029523Y-109434380D02*
X362553333Y-109434380D01*
X362505714Y-109910571D01*
X362553333Y-109862952D01*
X362648571Y-109815333D01*
X362886666Y-109815333D01*
X362981904Y-109862952D01*
X363029523Y-109910571D01*
X363077142Y-110005809D01*
X363077142Y-110243904D01*
X363029523Y-110339142D01*
X362981904Y-110386761D01*
X362886666Y-110434380D01*
X362648571Y-110434380D01*
X362553333Y-110386761D01*
X362505714Y-110339142D01*
X363362857Y-109434380D02*
X363696190Y-110434380D01*
X364029523Y-109434380D01*
D11*
X318620000Y-104268000D02*
X331620000Y-104268000D01*
X331620000Y-112268000D02*
X331620000Y-104268000D01*
X318620000Y-112268000D02*
X331620000Y-112268000D01*
X318600000Y-104268000D02*
X318600000Y-112268000D01*
D12*
X313456000Y-110470000D02*
X318356000Y-122570000D01*
D11*
X313436000Y-123190000D02*
X313436000Y-107950000D01*
X308356000Y-123190000D02*
X313436000Y-123190000D01*
X308356000Y-107950000D02*
X308356000Y-123190000D01*
X313436000Y-107950000D02*
X308356000Y-107950000D01*
X325570000Y-124122000D02*
X325070000Y-124622000D01*
X325070000Y-118122000D02*
X325570000Y-118622000D01*
X318770000Y-124622000D02*
X318770000Y-118122000D01*
X325070000Y-124622000D02*
X318770000Y-124622000D01*
X325570000Y-118622000D02*
X325570000Y-124122000D01*
X318770000Y-118122000D02*
X325070000Y-118122000D01*
X356072221Y-120017000D02*
X356397779Y-120017000D01*
X356072221Y-118997000D02*
X356397779Y-118997000D01*
X356072221Y-117350000D02*
X356397779Y-117350000D01*
X356072221Y-116330000D02*
X356397779Y-116330000D01*
X351157000Y-119796779D02*
X351157000Y-119471221D01*
X350137000Y-119796779D02*
X350137000Y-119471221D01*
X328420000Y-119471221D02*
X328420000Y-119796779D01*
X329440000Y-119471221D02*
X329440000Y-119796779D01*
X332484000Y-123027221D02*
X332484000Y-123352779D01*
X333504000Y-123027221D02*
X333504000Y-123352779D01*
X324610000Y-113441221D02*
X324610000Y-113766779D01*
X325630000Y-113441221D02*
X325630000Y-113766779D01*
X335696779Y-120216200D02*
X335371221Y-120216200D01*
X335696779Y-121236200D02*
X335371221Y-121236200D01*
X335696779Y-113459800D02*
X335371221Y-113459800D01*
X335696779Y-114479800D02*
X335371221Y-114479800D01*
X328420000Y-122519221D02*
X328420000Y-122844779D01*
X329440000Y-122519221D02*
X329440000Y-122844779D01*
X371558000Y-108910000D02*
X370308000Y-108910000D01*
X371558000Y-110160000D02*
X371558000Y-108910000D01*
X366058000Y-121060000D02*
X366058000Y-115510000D01*
X369008000Y-121060000D02*
X366058000Y-121060000D01*
X369008000Y-121810000D02*
X369008000Y-121060000D01*
X366058000Y-115510000D02*
X366058000Y-111020000D01*
X369008000Y-109960000D02*
X367668000Y-109960000D01*
X369008000Y-109210000D02*
X369008000Y-109960000D01*
X371258000Y-121810000D02*
X371258000Y-120010000D01*
X370508000Y-121810000D02*
X371258000Y-121810000D01*
X370508000Y-120010000D02*
X370508000Y-121810000D01*
X371258000Y-120010000D02*
X370508000Y-120010000D01*
X371258000Y-111010000D02*
X371258000Y-109210000D01*
X370508000Y-111010000D02*
X371258000Y-111010000D01*
X370508000Y-109210000D02*
X370508000Y-111010000D01*
X371258000Y-109210000D02*
X370508000Y-109210000D01*
X371258000Y-118510000D02*
X371258000Y-112510000D01*
X370508000Y-118510000D02*
X371258000Y-118510000D01*
X370508000Y-112510000D02*
X370508000Y-118510000D01*
X371258000Y-112510000D02*
X370508000Y-112510000D01*
X371268000Y-121820000D02*
X371268000Y-109200000D01*
X365298000Y-121820000D02*
X371268000Y-121820000D01*
X365298000Y-109200000D02*
X365298000Y-121820000D01*
X371268000Y-109200000D02*
X365298000Y-109200000D01*
X354418000Y-118772000D02*
X352133000Y-118772000D01*
X354418000Y-120242000D02*
X354418000Y-118772000D01*
X352133000Y-120242000D02*
X354418000Y-120242000D01*
X352133000Y-117575000D02*
X354418000Y-117575000D01*
X354418000Y-117575000D02*
X354418000Y-116105000D01*
X354418000Y-116105000D02*
X352133000Y-116105000D01*
X358588000Y-108652000D02*
X358588000Y-113852000D01*
X358648000Y-108652000D02*
X358588000Y-108652000D01*
X361248000Y-113852000D02*
X358588000Y-113852000D01*
X358648000Y-108652000D02*
X358648000Y-111252000D01*
X358648000Y-111252000D02*
X361248000Y-111252000D01*
X361248000Y-111252000D02*
X361248000Y-113852000D01*
X359918000Y-108652000D02*
X361248000Y-108652000D01*
X361248000Y-108652000D02*
X361248000Y-109982000D01*
X361248000Y-115510000D02*
X361248000Y-116840000D01*
X359918000Y-115510000D02*
X361248000Y-115510000D01*
X361248000Y-118110000D02*
X361248000Y-120710000D01*
X358648000Y-118110000D02*
X361248000Y-118110000D01*
X358648000Y-115510000D02*
X358648000Y-118110000D01*
X361248000Y-120710000D02*
X358588000Y-120710000D01*
X358648000Y-115510000D02*
X358588000Y-115510000D01*
X358588000Y-115510000D02*
X358588000Y-120710000D01*
D13*
X334162400Y-119837200D02*
X336905600Y-119837200D01*
X336905600Y-114858800D02*
X335838800Y-114858800D01*
X335838800Y-114858800D02*
X335229200Y-114858800D01*
X335229200Y-114858800D02*
X334162400Y-114858800D01*
D14*
X335838800Y-114858800D02*
G75*
G02X335229200Y-114858800I-304800J0D01*
G01*
D13*
X344932000Y-123558800D02*
X347243400Y-123558800D01*
X347243400Y-114821200D02*
X346405200Y-114821200D01*
X346405200Y-114821200D02*
X345795600Y-114821200D01*
X345795600Y-114821200D02*
X344932000Y-114821200D01*
D14*
X346405200Y-114821200D02*
G75*
G02X345795600Y-114821200I-304800J0D01*
G01*
D10*
X324886666Y-113672761D02*
X325029523Y-113720380D01*
X325267619Y-113720380D01*
X325362857Y-113672761D01*
X325410476Y-113625142D01*
X325458095Y-113529904D01*
X325458095Y-113434666D01*
X325410476Y-113339428D01*
X325362857Y-113291809D01*
X325267619Y-113244190D01*
X325077142Y-113196571D01*
X324981904Y-113148952D01*
X324934285Y-113101333D01*
X324886666Y-113006095D01*
X324886666Y-112910857D01*
X324934285Y-112815619D01*
X324981904Y-112768000D01*
X325077142Y-112720380D01*
X325315238Y-112720380D01*
X325458095Y-112768000D01*
X325791428Y-112720380D02*
X326029523Y-113720380D01*
X326220000Y-113006095D01*
X326410476Y-113720380D01*
X326648571Y-112720380D01*
X326981904Y-112815619D02*
X327029523Y-112768000D01*
X327124761Y-112720380D01*
X327362857Y-112720380D01*
X327458095Y-112768000D01*
X327505714Y-112815619D01*
X327553333Y-112910857D01*
X327553333Y-113006095D01*
X327505714Y-113148952D01*
X326934285Y-113720380D01*
X327553333Y-113720380D01*
X308260761Y-116903333D02*
X308308380Y-116760476D01*
X308308380Y-116522380D01*
X308260761Y-116427142D01*
X308213142Y-116379523D01*
X308117904Y-116331904D01*
X308022666Y-116331904D01*
X307927428Y-116379523D01*
X307879809Y-116427142D01*
X307832190Y-116522380D01*
X307784571Y-116712857D01*
X307736952Y-116808095D01*
X307689333Y-116855714D01*
X307594095Y-116903333D01*
X307498857Y-116903333D01*
X307403619Y-116855714D01*
X307356000Y-116808095D01*
X307308380Y-116712857D01*
X307308380Y-116474761D01*
X307356000Y-116331904D01*
X307308380Y-115998571D02*
X308308380Y-115760476D01*
X307594095Y-115570000D01*
X308308380Y-115379523D01*
X307308380Y-115141428D01*
X308308380Y-114236666D02*
X308308380Y-114808095D01*
X308308380Y-114522380D02*
X307308380Y-114522380D01*
X307451238Y-114617619D01*
X307546476Y-114712857D01*
X307594095Y-114808095D01*
X322474761Y-117374380D02*
X322141428Y-116898190D01*
X321903333Y-117374380D02*
X321903333Y-116374380D01*
X322284285Y-116374380D01*
X322379523Y-116422000D01*
X322427142Y-116469619D01*
X322474761Y-116564857D01*
X322474761Y-116707714D01*
X322427142Y-116802952D01*
X322379523Y-116850571D01*
X322284285Y-116898190D01*
X321903333Y-116898190D01*
X322760476Y-116374380D02*
X323093809Y-117374380D01*
X323427142Y-116374380D01*
X324284285Y-117374380D02*
X323712857Y-117374380D01*
X323998571Y-117374380D02*
X323998571Y-116374380D01*
X323903333Y-116517238D01*
X323808095Y-116612476D01*
X323712857Y-116660095D01*
X356068333Y-118529380D02*
X355735000Y-118053190D01*
X355496904Y-118529380D02*
X355496904Y-117529380D01*
X355877857Y-117529380D01*
X355973095Y-117577000D01*
X356020714Y-117624619D01*
X356068333Y-117719857D01*
X356068333Y-117862714D01*
X356020714Y-117957952D01*
X355973095Y-118005571D01*
X355877857Y-118053190D01*
X355496904Y-118053190D01*
X356925476Y-117529380D02*
X356735000Y-117529380D01*
X356639761Y-117577000D01*
X356592142Y-117624619D01*
X356496904Y-117767476D01*
X356449285Y-117957952D01*
X356449285Y-118338904D01*
X356496904Y-118434142D01*
X356544523Y-118481761D01*
X356639761Y-118529380D01*
X356830238Y-118529380D01*
X356925476Y-118481761D01*
X356973095Y-118434142D01*
X357020714Y-118338904D01*
X357020714Y-118100809D01*
X356973095Y-118005571D01*
X356925476Y-117957952D01*
X356830238Y-117910333D01*
X356639761Y-117910333D01*
X356544523Y-117957952D01*
X356496904Y-118005571D01*
X356449285Y-118100809D01*
X356068333Y-115862380D02*
X355735000Y-115386190D01*
X355496904Y-115862380D02*
X355496904Y-114862380D01*
X355877857Y-114862380D01*
X355973095Y-114910000D01*
X356020714Y-114957619D01*
X356068333Y-115052857D01*
X356068333Y-115195714D01*
X356020714Y-115290952D01*
X355973095Y-115338571D01*
X355877857Y-115386190D01*
X355496904Y-115386190D01*
X356973095Y-114862380D02*
X356496904Y-114862380D01*
X356449285Y-115338571D01*
X356496904Y-115290952D01*
X356592142Y-115243333D01*
X356830238Y-115243333D01*
X356925476Y-115290952D01*
X356973095Y-115338571D01*
X357020714Y-115433809D01*
X357020714Y-115671904D01*
X356973095Y-115767142D01*
X356925476Y-115814761D01*
X356830238Y-115862380D01*
X356592142Y-115862380D01*
X356496904Y-115814761D01*
X356449285Y-115767142D01*
X349669380Y-119800666D02*
X349193190Y-120134000D01*
X349669380Y-120372095D02*
X348669380Y-120372095D01*
X348669380Y-119991142D01*
X348717000Y-119895904D01*
X348764619Y-119848285D01*
X348859857Y-119800666D01*
X349002714Y-119800666D01*
X349097952Y-119848285D01*
X349145571Y-119895904D01*
X349193190Y-119991142D01*
X349193190Y-120372095D01*
X349002714Y-118943523D02*
X349669380Y-118943523D01*
X348621761Y-119181619D02*
X349336047Y-119419714D01*
X349336047Y-118800666D01*
X330812380Y-119800666D02*
X330336190Y-120134000D01*
X330812380Y-120372095D02*
X329812380Y-120372095D01*
X329812380Y-119991142D01*
X329860000Y-119895904D01*
X329907619Y-119848285D01*
X330002857Y-119800666D01*
X330145714Y-119800666D01*
X330240952Y-119848285D01*
X330288571Y-119895904D01*
X330336190Y-119991142D01*
X330336190Y-120372095D01*
X329812380Y-119467333D02*
X329812380Y-118848285D01*
X330193333Y-119181619D01*
X330193333Y-119038761D01*
X330240952Y-118943523D01*
X330288571Y-118895904D01*
X330383809Y-118848285D01*
X330621904Y-118848285D01*
X330717142Y-118895904D01*
X330764761Y-118943523D01*
X330812380Y-119038761D01*
X330812380Y-119324476D01*
X330764761Y-119419714D01*
X330717142Y-119467333D01*
X334876380Y-123356666D02*
X334400190Y-123690000D01*
X334876380Y-123928095D02*
X333876380Y-123928095D01*
X333876380Y-123547142D01*
X333924000Y-123451904D01*
X333971619Y-123404285D01*
X334066857Y-123356666D01*
X334209714Y-123356666D01*
X334304952Y-123404285D01*
X334352571Y-123451904D01*
X334400190Y-123547142D01*
X334400190Y-123928095D01*
X333971619Y-122975714D02*
X333924000Y-122928095D01*
X333876380Y-122832857D01*
X333876380Y-122594761D01*
X333924000Y-122499523D01*
X333971619Y-122451904D01*
X334066857Y-122404285D01*
X334162095Y-122404285D01*
X334304952Y-122451904D01*
X334876380Y-123023333D01*
X334876380Y-122404285D01*
X327002380Y-113770666D02*
X326526190Y-114104000D01*
X327002380Y-114342095D02*
X326002380Y-114342095D01*
X326002380Y-113961142D01*
X326050000Y-113865904D01*
X326097619Y-113818285D01*
X326192857Y-113770666D01*
X326335714Y-113770666D01*
X326430952Y-113818285D01*
X326478571Y-113865904D01*
X326526190Y-113961142D01*
X326526190Y-114342095D01*
X327002380Y-112818285D02*
X327002380Y-113389714D01*
X327002380Y-113104000D02*
X326002380Y-113104000D01*
X326145238Y-113199238D01*
X326240476Y-113294476D01*
X326288095Y-113389714D01*
X335367333Y-122513342D02*
X335319714Y-122560961D01*
X335176857Y-122608580D01*
X335081619Y-122608580D01*
X334938761Y-122560961D01*
X334843523Y-122465723D01*
X334795904Y-122370485D01*
X334748285Y-122180009D01*
X334748285Y-122037152D01*
X334795904Y-121846676D01*
X334843523Y-121751438D01*
X334938761Y-121656200D01*
X335081619Y-121608580D01*
X335176857Y-121608580D01*
X335319714Y-121656200D01*
X335367333Y-121703819D01*
X335700666Y-121608580D02*
X336319714Y-121608580D01*
X335986380Y-121989533D01*
X336129238Y-121989533D01*
X336224476Y-122037152D01*
X336272095Y-122084771D01*
X336319714Y-122180009D01*
X336319714Y-122418104D01*
X336272095Y-122513342D01*
X336224476Y-122560961D01*
X336129238Y-122608580D01*
X335843523Y-122608580D01*
X335748285Y-122560961D01*
X335700666Y-122513342D01*
X335367333Y-115756942D02*
X335319714Y-115804561D01*
X335176857Y-115852180D01*
X335081619Y-115852180D01*
X334938761Y-115804561D01*
X334843523Y-115709323D01*
X334795904Y-115614085D01*
X334748285Y-115423609D01*
X334748285Y-115280752D01*
X334795904Y-115090276D01*
X334843523Y-114995038D01*
X334938761Y-114899800D01*
X335081619Y-114852180D01*
X335176857Y-114852180D01*
X335319714Y-114899800D01*
X335367333Y-114947419D01*
X335748285Y-114947419D02*
X335795904Y-114899800D01*
X335891142Y-114852180D01*
X336129238Y-114852180D01*
X336224476Y-114899800D01*
X336272095Y-114947419D01*
X336319714Y-115042657D01*
X336319714Y-115137895D01*
X336272095Y-115280752D01*
X335700666Y-115852180D01*
X336319714Y-115852180D01*
X330717142Y-122848666D02*
X330764761Y-122896285D01*
X330812380Y-123039142D01*
X330812380Y-123134380D01*
X330764761Y-123277238D01*
X330669523Y-123372476D01*
X330574285Y-123420095D01*
X330383809Y-123467714D01*
X330240952Y-123467714D01*
X330050476Y-123420095D01*
X329955238Y-123372476D01*
X329860000Y-123277238D01*
X329812380Y-123134380D01*
X329812380Y-123039142D01*
X329860000Y-122896285D01*
X329907619Y-122848666D01*
X330812380Y-121896285D02*
X330812380Y-122467714D01*
X330812380Y-122182000D02*
X329812380Y-122182000D01*
X329955238Y-122277238D01*
X330050476Y-122372476D01*
X330098095Y-122467714D01*
X371810380Y-115843333D02*
X372524666Y-115843333D01*
X372667523Y-115890952D01*
X372762761Y-115986190D01*
X372810380Y-116129047D01*
X372810380Y-116224285D01*
X371810380Y-115462380D02*
X371810380Y-114843333D01*
X372191333Y-115176666D01*
X372191333Y-115033809D01*
X372238952Y-114938571D01*
X372286571Y-114890952D01*
X372381809Y-114843333D01*
X372619904Y-114843333D01*
X372715142Y-114890952D01*
X372762761Y-114938571D01*
X372810380Y-115033809D01*
X372810380Y-115319523D01*
X372762761Y-115414761D01*
X372715142Y-115462380D01*
X352194904Y-121389380D02*
X352194904Y-120389380D01*
X352433000Y-120389380D01*
X352575857Y-120437000D01*
X352671095Y-120532238D01*
X352718714Y-120627476D01*
X352766333Y-120817952D01*
X352766333Y-120960809D01*
X352718714Y-121151285D01*
X352671095Y-121246523D01*
X352575857Y-121341761D01*
X352433000Y-121389380D01*
X352194904Y-121389380D01*
X353147285Y-120484619D02*
X353194904Y-120437000D01*
X353290142Y-120389380D01*
X353528238Y-120389380D01*
X353623476Y-120437000D01*
X353671095Y-120484619D01*
X353718714Y-120579857D01*
X353718714Y-120675095D01*
X353671095Y-120817952D01*
X353099666Y-121389380D01*
X353718714Y-121389380D01*
X352194904Y-118722380D02*
X352194904Y-117722380D01*
X352433000Y-117722380D01*
X352575857Y-117770000D01*
X352671095Y-117865238D01*
X352718714Y-117960476D01*
X352766333Y-118150952D01*
X352766333Y-118293809D01*
X352718714Y-118484285D01*
X352671095Y-118579523D01*
X352575857Y-118674761D01*
X352433000Y-118722380D01*
X352194904Y-118722380D01*
X353718714Y-118722380D02*
X353147285Y-118722380D01*
X353433000Y-118722380D02*
X353433000Y-117722380D01*
X353337761Y-117865238D01*
X353242523Y-117960476D01*
X353147285Y-118008095D01*
X357044666Y-110704380D02*
X357044666Y-111418666D01*
X356997047Y-111561523D01*
X356901809Y-111656761D01*
X356758952Y-111704380D01*
X356663714Y-111704380D01*
X358044666Y-111704380D02*
X357473238Y-111704380D01*
X357758952Y-111704380D02*
X357758952Y-110704380D01*
X357663714Y-110847238D01*
X357568476Y-110942476D01*
X357473238Y-110990095D01*
X357044666Y-117562380D02*
X357044666Y-118276666D01*
X356997047Y-118419523D01*
X356901809Y-118514761D01*
X356758952Y-118562380D01*
X356663714Y-118562380D01*
X357473238Y-117657619D02*
X357520857Y-117610000D01*
X357616095Y-117562380D01*
X357854190Y-117562380D01*
X357949428Y-117610000D01*
X357997047Y-117657619D01*
X358044666Y-117752857D01*
X358044666Y-117848095D01*
X357997047Y-117990952D01*
X357425619Y-118562380D01*
X358044666Y-118562380D01*
D15*
X333776370Y-112029970D02*
X333776370Y-113357670D01*
X333854470Y-113513870D01*
X333932570Y-113591970D01*
X334088770Y-113670070D01*
X334401170Y-113670070D01*
X334557370Y-113591970D01*
X334635470Y-113513870D01*
X334713570Y-113357670D01*
X334713570Y-112029970D01*
X336353670Y-113670070D02*
X335416470Y-113670070D01*
X335885070Y-113670070D02*
X335885070Y-112029970D01*
X335728870Y-112264270D01*
X335572670Y-112420470D01*
X335416470Y-112498570D01*
X329801685Y-122285708D02*
X329801685Y-120644108D01*
X330739742Y-122285708D01*
X330739742Y-120644108D01*
X331521456Y-121425822D02*
X332068656Y-121425822D01*
X332303170Y-122285708D02*
X331521456Y-122285708D01*
X331521456Y-120644108D01*
X332303170Y-120644108D01*
X333788427Y-120644108D02*
X333006713Y-120644108D01*
X332928542Y-121425822D01*
X333006713Y-121347651D01*
X333163056Y-121269480D01*
X333553913Y-121269480D01*
X333710256Y-121347651D01*
X333788427Y-121425822D01*
X333866599Y-121582165D01*
X333866599Y-121973022D01*
X333788427Y-122129365D01*
X333710256Y-122207537D01*
X333553913Y-122285708D01*
X333163056Y-122285708D01*
X333006713Y-122207537D01*
X332928542Y-122129365D01*
X335351856Y-120644108D02*
X334570142Y-120644108D01*
X334491970Y-121425822D01*
X334570142Y-121347651D01*
X334726485Y-121269480D01*
X335117342Y-121269480D01*
X335273685Y-121347651D01*
X335351856Y-121425822D01*
X335430027Y-121582165D01*
X335430027Y-121973022D01*
X335351856Y-122129365D01*
X335273685Y-122207537D01*
X335117342Y-122285708D01*
X334726485Y-122285708D01*
X334570142Y-122207537D01*
X334491970Y-122129365D01*
X336915285Y-120644108D02*
X336133570Y-120644108D01*
X336055399Y-121425822D01*
X336133570Y-121347651D01*
X336289913Y-121269480D01*
X336680770Y-121269480D01*
X336837113Y-121347651D01*
X336915285Y-121425822D01*
X336993456Y-121582165D01*
X336993456Y-121973022D01*
X336915285Y-122129365D01*
X336837113Y-122207537D01*
X336680770Y-122285708D01*
X336289913Y-122285708D01*
X336133570Y-122207537D01*
X336055399Y-122129365D01*
X337696999Y-122285708D02*
X337696999Y-120644108D01*
X338087856Y-120644108D01*
X338322370Y-120722280D01*
X338478713Y-120878622D01*
X338556885Y-121034965D01*
X338635056Y-121347651D01*
X338635056Y-121582165D01*
X338556885Y-121894851D01*
X338478713Y-122051194D01*
X338322370Y-122207537D01*
X338087856Y-122285708D01*
X337696999Y-122285708D01*
X340276656Y-122285708D02*
X339729456Y-121503994D01*
X339338599Y-122285708D02*
X339338599Y-120644108D01*
X339963970Y-120644108D01*
X340120313Y-120722280D01*
X340198485Y-120800451D01*
X340276656Y-120956794D01*
X340276656Y-121191308D01*
X340198485Y-121347651D01*
X340120313Y-121425822D01*
X339963970Y-121503994D01*
X339338599Y-121503994D01*
X344416667Y-112113273D02*
X344416667Y-113441677D01*
X344494808Y-113597960D01*
X344572950Y-113676102D01*
X344729232Y-113754243D01*
X345041798Y-113754243D01*
X345198081Y-113676102D01*
X345276222Y-113597960D01*
X345354364Y-113441677D01*
X345354364Y-112113273D01*
X346057637Y-112269556D02*
X346135778Y-112191415D01*
X346292061Y-112113273D01*
X346682768Y-112113273D01*
X346839051Y-112191415D01*
X346917192Y-112269556D01*
X346995334Y-112425839D01*
X346995334Y-112582122D01*
X346917192Y-112816546D01*
X345979495Y-113754243D01*
X346995334Y-113754243D01*
X338101199Y-126026057D02*
X338335487Y-126104153D01*
X338725968Y-126104153D01*
X338882160Y-126026057D01*
X338960257Y-125947961D01*
X339038353Y-125791769D01*
X339038353Y-125635576D01*
X338960257Y-125479384D01*
X338882160Y-125401288D01*
X338725968Y-125323191D01*
X338413583Y-125245095D01*
X338257391Y-125166999D01*
X338179295Y-125088903D01*
X338101199Y-124932710D01*
X338101199Y-124776518D01*
X338179295Y-124620326D01*
X338257391Y-124542230D01*
X338413583Y-124464133D01*
X338804064Y-124464133D01*
X339038353Y-124542230D01*
X339741219Y-126104153D02*
X339741219Y-124464133D01*
X340678373Y-126104153D01*
X340678373Y-124464133D01*
X341303142Y-124464133D02*
X342396489Y-124464133D01*
X341693623Y-126104153D01*
X343724124Y-125010807D02*
X343724124Y-126104153D01*
X343333643Y-124386037D02*
X342943162Y-125557480D01*
X343958413Y-125557480D01*
X344583182Y-126104153D02*
X344583182Y-124464133D01*
X344583182Y-125245095D02*
X345520337Y-125245095D01*
X345520337Y-126104153D02*
X345520337Y-124464133D01*
X347238453Y-125947961D02*
X347160357Y-126026057D01*
X346926068Y-126104153D01*
X346769876Y-126104153D01*
X346535587Y-126026057D01*
X346379395Y-125869865D01*
X346301299Y-125713672D01*
X346223202Y-125401288D01*
X346223202Y-125166999D01*
X346301299Y-124854614D01*
X346379395Y-124698422D01*
X346535587Y-124542230D01*
X346769876Y-124464133D01*
X346926068Y-124464133D01*
X347160357Y-124542230D01*
X347238453Y-124620326D01*
X348253703Y-124464133D02*
X348409896Y-124464133D01*
X348566088Y-124542230D01*
X348644184Y-124620326D01*
X348722280Y-124776518D01*
X348800377Y-125088903D01*
X348800377Y-125479384D01*
X348722280Y-125791769D01*
X348644184Y-125947961D01*
X348566088Y-126026057D01*
X348409896Y-126104153D01*
X348253703Y-126104153D01*
X348097511Y-126026057D01*
X348019415Y-125947961D01*
X347941319Y-125791769D01*
X347863222Y-125479384D01*
X347863222Y-125088903D01*
X347941319Y-124776518D01*
X348019415Y-124620326D01*
X348097511Y-124542230D01*
X348253703Y-124464133D01*
X349815627Y-124464133D02*
X349971820Y-124464133D01*
X350128012Y-124542230D01*
X350206108Y-124620326D01*
X350284204Y-124776518D01*
X350362300Y-125088903D01*
X350362300Y-125479384D01*
X350284204Y-125791769D01*
X350206108Y-125947961D01*
X350128012Y-126026057D01*
X349971820Y-126104153D01*
X349815627Y-126104153D01*
X349659435Y-126026057D01*
X349581339Y-125947961D01*
X349503242Y-125791769D01*
X349425146Y-125479384D01*
X349425146Y-125088903D01*
X349503242Y-124776518D01*
X349581339Y-124620326D01*
X349659435Y-124542230D01*
X349815627Y-124464133D01*
X351065166Y-126104153D02*
X351065166Y-124464133D01*
X351455647Y-124464133D01*
X351689936Y-124542230D01*
X351846128Y-124698422D01*
X351924224Y-124854614D01*
X352002320Y-125166999D01*
X352002320Y-125401288D01*
X351924224Y-125713672D01*
X351846128Y-125869865D01*
X351689936Y-126026057D01*
X351455647Y-126104153D01*
X351065166Y-126104153D01*
X353642340Y-126104153D02*
X353095667Y-125323191D01*
X352705186Y-126104153D02*
X352705186Y-124464133D01*
X353329956Y-124464133D01*
X353486148Y-124542230D01*
X353564244Y-124620326D01*
X353642340Y-124776518D01*
X353642340Y-125010807D01*
X353564244Y-125166999D01*
X353486148Y-125245095D01*
X353329956Y-125323191D01*
X352705186Y-125323191D01*
M02*
