G04 #@! TF.GenerationSoftware,KiCad,Pcbnew,(5.1.4)-1*
G04 #@! TF.CreationDate,2019-10-29T10:28:28+00:00*
G04 #@! TF.ProjectId,timer-board,74696d65-722d-4626-9f61-72642e6b6963,rev?*
G04 #@! TF.SameCoordinates,Original*
G04 #@! TF.FileFunction,Copper,L2,Bot*
G04 #@! TF.FilePolarity,Positive*
%FSLAX46Y46*%
G04 Gerber Fmt 4.6, Leading zero omitted, Abs format (unit mm)*
G04 Created by KiCad (PCBNEW (5.1.4)-1) date 2019-10-29 10:28:28*
%MOMM*%
%LPD*%
G04 APERTURE LIST*
%ADD10O,1.950000X1.700000*%
%ADD11C,0.100000*%
%ADD12C,1.700000*%
%ADD13C,2.200000*%
%ADD14R,2.200000X2.200000*%
%ADD15R,1.700000X1.700000*%
%ADD16O,1.700000X1.700000*%
%ADD17C,2.340000*%
%ADD18R,2.781300X2.781300*%
%ADD19C,2.781300*%
%ADD20C,0.800000*%
%ADD21C,0.250000*%
%ADD22C,0.500000*%
%ADD23C,0.254000*%
G04 APERTURE END LIST*
D10*
X368808000Y-119260000D03*
X368808000Y-116760000D03*
X368808000Y-114260000D03*
D11*
G36*
X369557504Y-110911204D02*
G01*
X369581773Y-110914804D01*
X369605571Y-110920765D01*
X369628671Y-110929030D01*
X369650849Y-110939520D01*
X369671893Y-110952133D01*
X369691598Y-110966747D01*
X369709777Y-110983223D01*
X369726253Y-111001402D01*
X369740867Y-111021107D01*
X369753480Y-111042151D01*
X369763970Y-111064329D01*
X369772235Y-111087429D01*
X369778196Y-111111227D01*
X369781796Y-111135496D01*
X369783000Y-111160000D01*
X369783000Y-112360000D01*
X369781796Y-112384504D01*
X369778196Y-112408773D01*
X369772235Y-112432571D01*
X369763970Y-112455671D01*
X369753480Y-112477849D01*
X369740867Y-112498893D01*
X369726253Y-112518598D01*
X369709777Y-112536777D01*
X369691598Y-112553253D01*
X369671893Y-112567867D01*
X369650849Y-112580480D01*
X369628671Y-112590970D01*
X369605571Y-112599235D01*
X369581773Y-112605196D01*
X369557504Y-112608796D01*
X369533000Y-112610000D01*
X368083000Y-112610000D01*
X368058496Y-112608796D01*
X368034227Y-112605196D01*
X368010429Y-112599235D01*
X367987329Y-112590970D01*
X367965151Y-112580480D01*
X367944107Y-112567867D01*
X367924402Y-112553253D01*
X367906223Y-112536777D01*
X367889747Y-112518598D01*
X367875133Y-112498893D01*
X367862520Y-112477849D01*
X367852030Y-112455671D01*
X367843765Y-112432571D01*
X367837804Y-112408773D01*
X367834204Y-112384504D01*
X367833000Y-112360000D01*
X367833000Y-111160000D01*
X367834204Y-111135496D01*
X367837804Y-111111227D01*
X367843765Y-111087429D01*
X367852030Y-111064329D01*
X367862520Y-111042151D01*
X367875133Y-111021107D01*
X367889747Y-111001402D01*
X367906223Y-110983223D01*
X367924402Y-110966747D01*
X367944107Y-110952133D01*
X367965151Y-110939520D01*
X367987329Y-110929030D01*
X368010429Y-110920765D01*
X368034227Y-110914804D01*
X368058496Y-110911204D01*
X368083000Y-110910000D01*
X369533000Y-110910000D01*
X369557504Y-110911204D01*
X369557504Y-110911204D01*
G37*
D12*
X368808000Y-111760000D03*
D13*
X310896000Y-120650000D03*
X310896000Y-115570000D03*
D14*
X310896000Y-110490000D03*
D15*
X359918000Y-109982000D03*
D16*
X359918000Y-112522000D03*
X359918000Y-119380000D03*
D15*
X359918000Y-116840000D03*
D17*
X320120000Y-123658000D03*
X325120000Y-121158000D03*
X320120000Y-118658000D03*
D18*
X320421000Y-108204000D03*
D19*
X325120000Y-108204000D03*
X329819000Y-108204000D03*
D20*
X333937800Y-114046000D03*
X351028000Y-117856000D03*
X357378000Y-120904000D03*
X341884000Y-122936000D03*
X325120000Y-115062000D03*
X328930000Y-122428000D03*
X334264000Y-120650000D03*
X330454000Y-122428000D03*
X330454000Y-124968000D03*
X332994000Y-121158000D03*
X335854000Y-112710000D03*
X346202000Y-114046000D03*
X352298000Y-116840000D03*
D21*
X330454000Y-122428000D02*
X330454000Y-124968000D01*
D22*
X335854000Y-115250000D02*
X335854000Y-112710000D01*
X332994000Y-121158000D02*
X332994000Y-118110000D01*
X332994000Y-118110000D02*
X335854000Y-115250000D01*
D21*
X346202000Y-114046000D02*
X349504000Y-114046000D01*
X349504000Y-114046000D02*
X352298000Y-116840000D01*
D23*
G36*
X371204545Y-102298909D02*
G01*
X371555208Y-102404780D01*
X371878625Y-102576744D01*
X372162484Y-102808254D01*
X372395965Y-103090486D01*
X372570183Y-103412695D01*
X372678502Y-103762614D01*
X372720000Y-104157443D01*
X372720001Y-126967711D01*
X372681091Y-127364545D01*
X372575220Y-127715206D01*
X372403257Y-128038623D01*
X372171748Y-128322482D01*
X371889514Y-128555965D01*
X371567304Y-128730184D01*
X371217385Y-128838502D01*
X370822557Y-128880000D01*
X307372279Y-128880000D01*
X306975455Y-128841091D01*
X306624794Y-128735220D01*
X306301377Y-128563257D01*
X306017518Y-128331748D01*
X305784035Y-128049514D01*
X305609816Y-127727304D01*
X305501498Y-127377385D01*
X305460000Y-126982557D01*
X305460000Y-125519721D01*
X306475000Y-125519721D01*
X306475000Y-125940279D01*
X306557047Y-126352756D01*
X306717988Y-126741302D01*
X306951637Y-127090983D01*
X307249017Y-127388363D01*
X307598698Y-127622012D01*
X307987244Y-127782953D01*
X308399721Y-127865000D01*
X308820279Y-127865000D01*
X309232756Y-127782953D01*
X309621302Y-127622012D01*
X309970983Y-127388363D01*
X310268363Y-127090983D01*
X310502012Y-126741302D01*
X310662953Y-126352756D01*
X310745000Y-125940279D01*
X310745000Y-125519721D01*
X310662953Y-125107244D01*
X310502012Y-124718698D01*
X310268363Y-124369017D01*
X309970983Y-124071637D01*
X309621302Y-123837988D01*
X309232756Y-123677047D01*
X308820279Y-123595000D01*
X308399721Y-123595000D01*
X307987244Y-123677047D01*
X307598698Y-123837988D01*
X307249017Y-124071637D01*
X306951637Y-124369017D01*
X306717988Y-124718698D01*
X306557047Y-125107244D01*
X306475000Y-125519721D01*
X305460000Y-125519721D01*
X305460000Y-123480223D01*
X318315000Y-123480223D01*
X318315000Y-123835777D01*
X318384365Y-124184499D01*
X318520429Y-124512988D01*
X318717965Y-124808621D01*
X318969379Y-125060035D01*
X319265012Y-125257571D01*
X319593501Y-125393635D01*
X319942223Y-125463000D01*
X320297777Y-125463000D01*
X320646499Y-125393635D01*
X320974988Y-125257571D01*
X321270621Y-125060035D01*
X321522035Y-124808621D01*
X321719571Y-124512988D01*
X321855635Y-124184499D01*
X321925000Y-123835777D01*
X321925000Y-123480223D01*
X321855635Y-123131501D01*
X321719571Y-122803012D01*
X321522035Y-122507379D01*
X321270621Y-122255965D01*
X320974988Y-122058429D01*
X320646499Y-121922365D01*
X320297777Y-121853000D01*
X319942223Y-121853000D01*
X319593501Y-121922365D01*
X319265012Y-122058429D01*
X318969379Y-122255965D01*
X318717965Y-122507379D01*
X318520429Y-122803012D01*
X318384365Y-123131501D01*
X318315000Y-123480223D01*
X305460000Y-123480223D01*
X305460000Y-120479117D01*
X309161000Y-120479117D01*
X309161000Y-120820883D01*
X309227675Y-121156081D01*
X309358463Y-121471831D01*
X309548337Y-121755998D01*
X309790002Y-121997663D01*
X310074169Y-122187537D01*
X310389919Y-122318325D01*
X310725117Y-122385000D01*
X311066883Y-122385000D01*
X311402081Y-122318325D01*
X311717831Y-122187537D01*
X312001998Y-121997663D01*
X312243663Y-121755998D01*
X312433537Y-121471831D01*
X312564325Y-121156081D01*
X312599305Y-120980223D01*
X323315000Y-120980223D01*
X323315000Y-121335777D01*
X323384365Y-121684499D01*
X323520429Y-122012988D01*
X323717965Y-122308621D01*
X323969379Y-122560035D01*
X324265012Y-122757571D01*
X324593501Y-122893635D01*
X324942223Y-122963000D01*
X325297777Y-122963000D01*
X325646499Y-122893635D01*
X325974988Y-122757571D01*
X326270621Y-122560035D01*
X326504595Y-122326061D01*
X329419000Y-122326061D01*
X329419000Y-122529939D01*
X329458774Y-122729898D01*
X329536795Y-122918256D01*
X329650063Y-123087774D01*
X329694000Y-123131711D01*
X329694001Y-124264288D01*
X329650063Y-124308226D01*
X329536795Y-124477744D01*
X329458774Y-124666102D01*
X329419000Y-124866061D01*
X329419000Y-125069939D01*
X329458774Y-125269898D01*
X329536795Y-125458256D01*
X329650063Y-125627774D01*
X329794226Y-125771937D01*
X329963744Y-125885205D01*
X330152102Y-125963226D01*
X330352061Y-126003000D01*
X330555939Y-126003000D01*
X330755898Y-125963226D01*
X330944256Y-125885205D01*
X331113774Y-125771937D01*
X331257937Y-125627774D01*
X331330135Y-125519721D01*
X367435000Y-125519721D01*
X367435000Y-125940279D01*
X367517047Y-126352756D01*
X367677988Y-126741302D01*
X367911637Y-127090983D01*
X368209017Y-127388363D01*
X368558698Y-127622012D01*
X368947244Y-127782953D01*
X369359721Y-127865000D01*
X369780279Y-127865000D01*
X370192756Y-127782953D01*
X370581302Y-127622012D01*
X370930983Y-127388363D01*
X371228363Y-127090983D01*
X371462012Y-126741302D01*
X371622953Y-126352756D01*
X371705000Y-125940279D01*
X371705000Y-125519721D01*
X371622953Y-125107244D01*
X371462012Y-124718698D01*
X371228363Y-124369017D01*
X370930983Y-124071637D01*
X370581302Y-123837988D01*
X370192756Y-123677047D01*
X369780279Y-123595000D01*
X369359721Y-123595000D01*
X368947244Y-123677047D01*
X368558698Y-123837988D01*
X368209017Y-124071637D01*
X367911637Y-124369017D01*
X367677988Y-124718698D01*
X367517047Y-125107244D01*
X367435000Y-125519721D01*
X331330135Y-125519721D01*
X331371205Y-125458256D01*
X331449226Y-125269898D01*
X331489000Y-125069939D01*
X331489000Y-124866061D01*
X331449226Y-124666102D01*
X331371205Y-124477744D01*
X331257937Y-124308226D01*
X331214000Y-124264289D01*
X331214000Y-123131711D01*
X331257937Y-123087774D01*
X331371205Y-122918256D01*
X331449226Y-122729898D01*
X331489000Y-122529939D01*
X331489000Y-122326061D01*
X331449226Y-122126102D01*
X331371205Y-121937744D01*
X331257937Y-121768226D01*
X331113774Y-121624063D01*
X330944256Y-121510795D01*
X330755898Y-121432774D01*
X330555939Y-121393000D01*
X330352061Y-121393000D01*
X330152102Y-121432774D01*
X329963744Y-121510795D01*
X329794226Y-121624063D01*
X329650063Y-121768226D01*
X329536795Y-121937744D01*
X329458774Y-122126102D01*
X329419000Y-122326061D01*
X326504595Y-122326061D01*
X326522035Y-122308621D01*
X326719571Y-122012988D01*
X326855635Y-121684499D01*
X326925000Y-121335777D01*
X326925000Y-121056061D01*
X331959000Y-121056061D01*
X331959000Y-121259939D01*
X331998774Y-121459898D01*
X332076795Y-121648256D01*
X332190063Y-121817774D01*
X332334226Y-121961937D01*
X332503744Y-122075205D01*
X332692102Y-122153226D01*
X332892061Y-122193000D01*
X333095939Y-122193000D01*
X333295898Y-122153226D01*
X333484256Y-122075205D01*
X333653774Y-121961937D01*
X333797937Y-121817774D01*
X333911205Y-121648256D01*
X333989226Y-121459898D01*
X334029000Y-121259939D01*
X334029000Y-121056061D01*
X333989226Y-120856102D01*
X333911205Y-120667744D01*
X333879000Y-120619546D01*
X333879000Y-119380000D01*
X358425815Y-119380000D01*
X358454487Y-119671111D01*
X358539401Y-119951034D01*
X358677294Y-120209014D01*
X358862866Y-120435134D01*
X359088986Y-120620706D01*
X359346966Y-120758599D01*
X359626889Y-120843513D01*
X359845050Y-120865000D01*
X359990950Y-120865000D01*
X360209111Y-120843513D01*
X360489034Y-120758599D01*
X360747014Y-120620706D01*
X360973134Y-120435134D01*
X361158706Y-120209014D01*
X361296599Y-119951034D01*
X361381513Y-119671111D01*
X361410185Y-119380000D01*
X361381513Y-119088889D01*
X361296599Y-118808966D01*
X361158706Y-118550986D01*
X360973134Y-118324866D01*
X360943313Y-118300393D01*
X361012180Y-118279502D01*
X361122494Y-118220537D01*
X361219185Y-118141185D01*
X361298537Y-118044494D01*
X361357502Y-117934180D01*
X361393812Y-117814482D01*
X361406072Y-117690000D01*
X361406072Y-116760000D01*
X367190815Y-116760000D01*
X367219487Y-117051111D01*
X367304401Y-117331034D01*
X367442294Y-117589014D01*
X367627866Y-117815134D01*
X367853986Y-118000706D01*
X367871374Y-118010000D01*
X367853986Y-118019294D01*
X367627866Y-118204866D01*
X367442294Y-118430986D01*
X367304401Y-118688966D01*
X367219487Y-118968889D01*
X367190815Y-119260000D01*
X367219487Y-119551111D01*
X367304401Y-119831034D01*
X367442294Y-120089014D01*
X367627866Y-120315134D01*
X367853986Y-120500706D01*
X368111966Y-120638599D01*
X368391889Y-120723513D01*
X368610050Y-120745000D01*
X369005950Y-120745000D01*
X369224111Y-120723513D01*
X369504034Y-120638599D01*
X369762014Y-120500706D01*
X369988134Y-120315134D01*
X370173706Y-120089014D01*
X370311599Y-119831034D01*
X370396513Y-119551111D01*
X370425185Y-119260000D01*
X370396513Y-118968889D01*
X370311599Y-118688966D01*
X370173706Y-118430986D01*
X369988134Y-118204866D01*
X369762014Y-118019294D01*
X369744626Y-118010000D01*
X369762014Y-118000706D01*
X369988134Y-117815134D01*
X370173706Y-117589014D01*
X370311599Y-117331034D01*
X370396513Y-117051111D01*
X370425185Y-116760000D01*
X370396513Y-116468889D01*
X370311599Y-116188966D01*
X370173706Y-115930986D01*
X369988134Y-115704866D01*
X369762014Y-115519294D01*
X369736278Y-115505538D01*
X369942429Y-115349049D01*
X370135496Y-115131193D01*
X370282352Y-114879858D01*
X370374476Y-114616890D01*
X370253155Y-114387000D01*
X368935000Y-114387000D01*
X368935000Y-114407000D01*
X368681000Y-114407000D01*
X368681000Y-114387000D01*
X367362845Y-114387000D01*
X367241524Y-114616890D01*
X367333648Y-114879858D01*
X367480504Y-115131193D01*
X367673571Y-115349049D01*
X367879722Y-115505538D01*
X367853986Y-115519294D01*
X367627866Y-115704866D01*
X367442294Y-115930986D01*
X367304401Y-116188966D01*
X367219487Y-116468889D01*
X367190815Y-116760000D01*
X361406072Y-116760000D01*
X361406072Y-115990000D01*
X361393812Y-115865518D01*
X361357502Y-115745820D01*
X361298537Y-115635506D01*
X361219185Y-115538815D01*
X361122494Y-115459463D01*
X361012180Y-115400498D01*
X360892482Y-115364188D01*
X360768000Y-115351928D01*
X359068000Y-115351928D01*
X358943518Y-115364188D01*
X358823820Y-115400498D01*
X358713506Y-115459463D01*
X358616815Y-115538815D01*
X358537463Y-115635506D01*
X358478498Y-115745820D01*
X358442188Y-115865518D01*
X358429928Y-115990000D01*
X358429928Y-117690000D01*
X358442188Y-117814482D01*
X358478498Y-117934180D01*
X358537463Y-118044494D01*
X358616815Y-118141185D01*
X358713506Y-118220537D01*
X358823820Y-118279502D01*
X358892687Y-118300393D01*
X358862866Y-118324866D01*
X358677294Y-118550986D01*
X358539401Y-118808966D01*
X358454487Y-119088889D01*
X358425815Y-119380000D01*
X333879000Y-119380000D01*
X333879000Y-118476578D01*
X336449050Y-115906529D01*
X336482817Y-115878817D01*
X336593411Y-115744059D01*
X336675589Y-115590313D01*
X336726195Y-115423490D01*
X336739000Y-115293477D01*
X336739000Y-115293469D01*
X336743281Y-115250000D01*
X336739000Y-115206531D01*
X336739000Y-113944061D01*
X345167000Y-113944061D01*
X345167000Y-114147939D01*
X345206774Y-114347898D01*
X345284795Y-114536256D01*
X345398063Y-114705774D01*
X345542226Y-114849937D01*
X345711744Y-114963205D01*
X345900102Y-115041226D01*
X346100061Y-115081000D01*
X346303939Y-115081000D01*
X346503898Y-115041226D01*
X346692256Y-114963205D01*
X346861774Y-114849937D01*
X346905711Y-114806000D01*
X349189199Y-114806000D01*
X351263000Y-116879802D01*
X351263000Y-116941939D01*
X351302774Y-117141898D01*
X351380795Y-117330256D01*
X351494063Y-117499774D01*
X351638226Y-117643937D01*
X351807744Y-117757205D01*
X351996102Y-117835226D01*
X352196061Y-117875000D01*
X352399939Y-117875000D01*
X352599898Y-117835226D01*
X352788256Y-117757205D01*
X352957774Y-117643937D01*
X353101937Y-117499774D01*
X353215205Y-117330256D01*
X353293226Y-117141898D01*
X353333000Y-116941939D01*
X353333000Y-116738061D01*
X353293226Y-116538102D01*
X353215205Y-116349744D01*
X353101937Y-116180226D01*
X352957774Y-116036063D01*
X352788256Y-115922795D01*
X352599898Y-115844774D01*
X352399939Y-115805000D01*
X352337802Y-115805000D01*
X350067804Y-113535003D01*
X350044001Y-113505999D01*
X349928276Y-113411026D01*
X349796247Y-113340454D01*
X349652986Y-113296997D01*
X349541333Y-113286000D01*
X349541322Y-113286000D01*
X349504000Y-113282324D01*
X349466678Y-113286000D01*
X346905711Y-113286000D01*
X346861774Y-113242063D01*
X346692256Y-113128795D01*
X346503898Y-113050774D01*
X346303939Y-113011000D01*
X346100061Y-113011000D01*
X345900102Y-113050774D01*
X345711744Y-113128795D01*
X345542226Y-113242063D01*
X345398063Y-113386226D01*
X345284795Y-113555744D01*
X345206774Y-113744102D01*
X345167000Y-113944061D01*
X336739000Y-113944061D01*
X336739000Y-113248454D01*
X336771205Y-113200256D01*
X336849226Y-113011898D01*
X336875682Y-112878891D01*
X358476519Y-112878891D01*
X358573843Y-113153252D01*
X358722822Y-113403355D01*
X358917731Y-113619588D01*
X359151080Y-113793641D01*
X359413901Y-113918825D01*
X359561110Y-113963476D01*
X359791000Y-113842155D01*
X359791000Y-112649000D01*
X360045000Y-112649000D01*
X360045000Y-113842155D01*
X360274890Y-113963476D01*
X360422099Y-113918825D01*
X360684920Y-113793641D01*
X360918269Y-113619588D01*
X361113178Y-113403355D01*
X361262157Y-113153252D01*
X361359481Y-112878891D01*
X361238814Y-112649000D01*
X360045000Y-112649000D01*
X359791000Y-112649000D01*
X358597186Y-112649000D01*
X358476519Y-112878891D01*
X336875682Y-112878891D01*
X336889000Y-112811939D01*
X336889000Y-112608061D01*
X336849226Y-112408102D01*
X336771205Y-112219744D01*
X336657937Y-112050226D01*
X336513774Y-111906063D01*
X336344256Y-111792795D01*
X336155898Y-111714774D01*
X335955939Y-111675000D01*
X335752061Y-111675000D01*
X335552102Y-111714774D01*
X335363744Y-111792795D01*
X335194226Y-111906063D01*
X335050063Y-112050226D01*
X334936795Y-112219744D01*
X334858774Y-112408102D01*
X334819000Y-112608061D01*
X334819000Y-112811939D01*
X334858774Y-113011898D01*
X334936795Y-113200256D01*
X334969001Y-113248455D01*
X334969000Y-114883421D01*
X332398951Y-117453471D01*
X332365184Y-117481183D01*
X332337471Y-117514951D01*
X332337468Y-117514954D01*
X332254590Y-117615941D01*
X332172412Y-117769687D01*
X332121805Y-117936510D01*
X332104719Y-118110000D01*
X332109001Y-118153479D01*
X332109000Y-120619545D01*
X332076795Y-120667744D01*
X331998774Y-120856102D01*
X331959000Y-121056061D01*
X326925000Y-121056061D01*
X326925000Y-120980223D01*
X326855635Y-120631501D01*
X326719571Y-120303012D01*
X326522035Y-120007379D01*
X326270621Y-119755965D01*
X325974988Y-119558429D01*
X325646499Y-119422365D01*
X325297777Y-119353000D01*
X324942223Y-119353000D01*
X324593501Y-119422365D01*
X324265012Y-119558429D01*
X323969379Y-119755965D01*
X323717965Y-120007379D01*
X323520429Y-120303012D01*
X323384365Y-120631501D01*
X323315000Y-120980223D01*
X312599305Y-120980223D01*
X312631000Y-120820883D01*
X312631000Y-120479117D01*
X312564325Y-120143919D01*
X312433537Y-119828169D01*
X312243663Y-119544002D01*
X312001998Y-119302337D01*
X311717831Y-119112463D01*
X311402081Y-118981675D01*
X311066883Y-118915000D01*
X310725117Y-118915000D01*
X310389919Y-118981675D01*
X310074169Y-119112463D01*
X309790002Y-119302337D01*
X309548337Y-119544002D01*
X309358463Y-119828169D01*
X309227675Y-120143919D01*
X309161000Y-120479117D01*
X305460000Y-120479117D01*
X305460000Y-118480223D01*
X318315000Y-118480223D01*
X318315000Y-118835777D01*
X318384365Y-119184499D01*
X318520429Y-119512988D01*
X318717965Y-119808621D01*
X318969379Y-120060035D01*
X319265012Y-120257571D01*
X319593501Y-120393635D01*
X319942223Y-120463000D01*
X320297777Y-120463000D01*
X320646499Y-120393635D01*
X320974988Y-120257571D01*
X321270621Y-120060035D01*
X321522035Y-119808621D01*
X321719571Y-119512988D01*
X321855635Y-119184499D01*
X321925000Y-118835777D01*
X321925000Y-118480223D01*
X321855635Y-118131501D01*
X321719571Y-117803012D01*
X321522035Y-117507379D01*
X321270621Y-117255965D01*
X320974988Y-117058429D01*
X320646499Y-116922365D01*
X320297777Y-116853000D01*
X319942223Y-116853000D01*
X319593501Y-116922365D01*
X319265012Y-117058429D01*
X318969379Y-117255965D01*
X318717965Y-117507379D01*
X318520429Y-117803012D01*
X318384365Y-118131501D01*
X318315000Y-118480223D01*
X305460000Y-118480223D01*
X305460000Y-115399117D01*
X309161000Y-115399117D01*
X309161000Y-115740883D01*
X309227675Y-116076081D01*
X309358463Y-116391831D01*
X309548337Y-116675998D01*
X309790002Y-116917663D01*
X310074169Y-117107537D01*
X310389919Y-117238325D01*
X310725117Y-117305000D01*
X311066883Y-117305000D01*
X311402081Y-117238325D01*
X311717831Y-117107537D01*
X312001998Y-116917663D01*
X312243663Y-116675998D01*
X312433537Y-116391831D01*
X312564325Y-116076081D01*
X312631000Y-115740883D01*
X312631000Y-115399117D01*
X312564325Y-115063919D01*
X312433537Y-114748169D01*
X312243663Y-114464002D01*
X312001998Y-114222337D01*
X311717831Y-114032463D01*
X311402081Y-113901675D01*
X311066883Y-113835000D01*
X310725117Y-113835000D01*
X310389919Y-113901675D01*
X310074169Y-114032463D01*
X309790002Y-114222337D01*
X309548337Y-114464002D01*
X309358463Y-114748169D01*
X309227675Y-115063919D01*
X309161000Y-115399117D01*
X305460000Y-115399117D01*
X305460000Y-109390000D01*
X309157928Y-109390000D01*
X309157928Y-111590000D01*
X309170188Y-111714482D01*
X309206498Y-111834180D01*
X309265463Y-111944494D01*
X309344815Y-112041185D01*
X309441506Y-112120537D01*
X309551820Y-112179502D01*
X309671518Y-112215812D01*
X309796000Y-112228072D01*
X311996000Y-112228072D01*
X312120482Y-112215812D01*
X312240180Y-112179502D01*
X312350494Y-112120537D01*
X312447185Y-112041185D01*
X312526537Y-111944494D01*
X312585502Y-111834180D01*
X312621812Y-111714482D01*
X312634072Y-111590000D01*
X312634072Y-109390000D01*
X312621812Y-109265518D01*
X312585502Y-109145820D01*
X312526537Y-109035506D01*
X312447185Y-108938815D01*
X312350494Y-108859463D01*
X312240180Y-108800498D01*
X312120482Y-108764188D01*
X311996000Y-108751928D01*
X309796000Y-108751928D01*
X309671518Y-108764188D01*
X309551820Y-108800498D01*
X309441506Y-108859463D01*
X309344815Y-108938815D01*
X309265463Y-109035506D01*
X309206498Y-109145820D01*
X309170188Y-109265518D01*
X309157928Y-109390000D01*
X305460000Y-109390000D01*
X305460000Y-105199721D01*
X306475000Y-105199721D01*
X306475000Y-105620279D01*
X306557047Y-106032756D01*
X306717988Y-106421302D01*
X306951637Y-106770983D01*
X307249017Y-107068363D01*
X307598698Y-107302012D01*
X307987244Y-107462953D01*
X308399721Y-107545000D01*
X308820279Y-107545000D01*
X309232756Y-107462953D01*
X309621302Y-107302012D01*
X309970983Y-107068363D01*
X310225996Y-106813350D01*
X318392278Y-106813350D01*
X318392278Y-109594650D01*
X318404538Y-109719132D01*
X318440848Y-109838830D01*
X318499813Y-109949144D01*
X318579165Y-110045835D01*
X318675856Y-110125187D01*
X318786170Y-110184152D01*
X318905868Y-110220462D01*
X319030350Y-110232722D01*
X321811650Y-110232722D01*
X321936132Y-110220462D01*
X322055830Y-110184152D01*
X322166144Y-110125187D01*
X322262835Y-110045835D01*
X322342187Y-109949144D01*
X322401152Y-109838830D01*
X322437462Y-109719132D01*
X322449722Y-109594650D01*
X322449722Y-108004491D01*
X323094350Y-108004491D01*
X323094350Y-108403509D01*
X323172195Y-108794860D01*
X323324892Y-109163505D01*
X323546575Y-109495276D01*
X323828724Y-109777425D01*
X324160495Y-109999108D01*
X324529140Y-110151805D01*
X324920491Y-110229650D01*
X325319509Y-110229650D01*
X325710860Y-110151805D01*
X326079505Y-109999108D01*
X326411276Y-109777425D01*
X326693425Y-109495276D01*
X326915108Y-109163505D01*
X327067805Y-108794860D01*
X327145650Y-108403509D01*
X327145650Y-108004491D01*
X327793350Y-108004491D01*
X327793350Y-108403509D01*
X327871195Y-108794860D01*
X328023892Y-109163505D01*
X328245575Y-109495276D01*
X328527724Y-109777425D01*
X328859495Y-109999108D01*
X329228140Y-110151805D01*
X329619491Y-110229650D01*
X330018509Y-110229650D01*
X330409860Y-110151805D01*
X330778505Y-109999108D01*
X331110276Y-109777425D01*
X331392425Y-109495276D01*
X331614108Y-109163505D01*
X331627157Y-109132000D01*
X358429928Y-109132000D01*
X358429928Y-110832000D01*
X358442188Y-110956482D01*
X358478498Y-111076180D01*
X358537463Y-111186494D01*
X358616815Y-111283185D01*
X358713506Y-111362537D01*
X358823820Y-111421502D01*
X358899626Y-111444498D01*
X358722822Y-111640645D01*
X358573843Y-111890748D01*
X358476519Y-112165109D01*
X358597186Y-112395000D01*
X359791000Y-112395000D01*
X359791000Y-112375000D01*
X360045000Y-112375000D01*
X360045000Y-112395000D01*
X361238814Y-112395000D01*
X361359481Y-112165109D01*
X361262157Y-111890748D01*
X361113178Y-111640645D01*
X360936374Y-111444498D01*
X361012180Y-111421502D01*
X361122494Y-111362537D01*
X361219185Y-111283185D01*
X361298537Y-111186494D01*
X361357502Y-111076180D01*
X361393812Y-110956482D01*
X361406072Y-110832000D01*
X361406072Y-110038363D01*
X365573000Y-110038363D01*
X365573000Y-110281637D01*
X365620460Y-110520236D01*
X365713557Y-110744992D01*
X365848713Y-110947267D01*
X366020733Y-111119287D01*
X366223008Y-111254443D01*
X366447764Y-111347540D01*
X366686363Y-111395000D01*
X366929637Y-111395000D01*
X367168236Y-111347540D01*
X367194928Y-111336484D01*
X367194928Y-112360000D01*
X367211992Y-112533254D01*
X367262528Y-112699850D01*
X367344595Y-112853386D01*
X367455038Y-112987962D01*
X367589614Y-113098405D01*
X367694961Y-113154714D01*
X367673571Y-113170951D01*
X367480504Y-113388807D01*
X367333648Y-113640142D01*
X367241524Y-113903110D01*
X367362845Y-114133000D01*
X368681000Y-114133000D01*
X368681000Y-114113000D01*
X368935000Y-114113000D01*
X368935000Y-114133000D01*
X370253155Y-114133000D01*
X370374476Y-113903110D01*
X370282352Y-113640142D01*
X370135496Y-113388807D01*
X369942429Y-113170951D01*
X369921039Y-113154714D01*
X370026386Y-113098405D01*
X370160962Y-112987962D01*
X370271405Y-112853386D01*
X370353472Y-112699850D01*
X370404008Y-112533254D01*
X370421072Y-112360000D01*
X370421072Y-111160000D01*
X370404008Y-110986746D01*
X370353472Y-110820150D01*
X370271405Y-110666614D01*
X370160962Y-110532038D01*
X370026386Y-110421595D01*
X369872850Y-110339528D01*
X369706254Y-110288992D01*
X369533000Y-110271928D01*
X368083000Y-110271928D01*
X368043000Y-110275868D01*
X368043000Y-110038363D01*
X367995540Y-109799764D01*
X367902443Y-109575008D01*
X367767287Y-109372733D01*
X367595267Y-109200713D01*
X367392992Y-109065557D01*
X367168236Y-108972460D01*
X366929637Y-108925000D01*
X366686363Y-108925000D01*
X366447764Y-108972460D01*
X366223008Y-109065557D01*
X366020733Y-109200713D01*
X365848713Y-109372733D01*
X365713557Y-109575008D01*
X365620460Y-109799764D01*
X365573000Y-110038363D01*
X361406072Y-110038363D01*
X361406072Y-109132000D01*
X361393812Y-109007518D01*
X361357502Y-108887820D01*
X361298537Y-108777506D01*
X361219185Y-108680815D01*
X361122494Y-108601463D01*
X361012180Y-108542498D01*
X360892482Y-108506188D01*
X360768000Y-108493928D01*
X359068000Y-108493928D01*
X358943518Y-108506188D01*
X358823820Y-108542498D01*
X358713506Y-108601463D01*
X358616815Y-108680815D01*
X358537463Y-108777506D01*
X358478498Y-108887820D01*
X358442188Y-109007518D01*
X358429928Y-109132000D01*
X331627157Y-109132000D01*
X331766805Y-108794860D01*
X331844650Y-108403509D01*
X331844650Y-108004491D01*
X331766805Y-107613140D01*
X331614108Y-107244495D01*
X331392425Y-106912724D01*
X331110276Y-106630575D01*
X330778505Y-106408892D01*
X330409860Y-106256195D01*
X330018509Y-106178350D01*
X329619491Y-106178350D01*
X329228140Y-106256195D01*
X328859495Y-106408892D01*
X328527724Y-106630575D01*
X328245575Y-106912724D01*
X328023892Y-107244495D01*
X327871195Y-107613140D01*
X327793350Y-108004491D01*
X327145650Y-108004491D01*
X327067805Y-107613140D01*
X326915108Y-107244495D01*
X326693425Y-106912724D01*
X326411276Y-106630575D01*
X326079505Y-106408892D01*
X325710860Y-106256195D01*
X325319509Y-106178350D01*
X324920491Y-106178350D01*
X324529140Y-106256195D01*
X324160495Y-106408892D01*
X323828724Y-106630575D01*
X323546575Y-106912724D01*
X323324892Y-107244495D01*
X323172195Y-107613140D01*
X323094350Y-108004491D01*
X322449722Y-108004491D01*
X322449722Y-106813350D01*
X322437462Y-106688868D01*
X322401152Y-106569170D01*
X322342187Y-106458856D01*
X322262835Y-106362165D01*
X322166144Y-106282813D01*
X322055830Y-106223848D01*
X321936132Y-106187538D01*
X321811650Y-106175278D01*
X319030350Y-106175278D01*
X318905868Y-106187538D01*
X318786170Y-106223848D01*
X318675856Y-106282813D01*
X318579165Y-106362165D01*
X318499813Y-106458856D01*
X318440848Y-106569170D01*
X318404538Y-106688868D01*
X318392278Y-106813350D01*
X310225996Y-106813350D01*
X310268363Y-106770983D01*
X310502012Y-106421302D01*
X310662953Y-106032756D01*
X310745000Y-105620279D01*
X310745000Y-105199721D01*
X367435000Y-105199721D01*
X367435000Y-105620279D01*
X367517047Y-106032756D01*
X367677988Y-106421302D01*
X367911637Y-106770983D01*
X368209017Y-107068363D01*
X368558698Y-107302012D01*
X368947244Y-107462953D01*
X369359721Y-107545000D01*
X369780279Y-107545000D01*
X370192756Y-107462953D01*
X370581302Y-107302012D01*
X370930983Y-107068363D01*
X371228363Y-106770983D01*
X371462012Y-106421302D01*
X371622953Y-106032756D01*
X371705000Y-105620279D01*
X371705000Y-105199721D01*
X371622953Y-104787244D01*
X371462012Y-104398698D01*
X371228363Y-104049017D01*
X370930983Y-103751637D01*
X370581302Y-103517988D01*
X370192756Y-103357047D01*
X369780279Y-103275000D01*
X369359721Y-103275000D01*
X368947244Y-103357047D01*
X368558698Y-103517988D01*
X368209017Y-103751637D01*
X367911637Y-104049017D01*
X367677988Y-104398698D01*
X367517047Y-104787244D01*
X367435000Y-105199721D01*
X310745000Y-105199721D01*
X310662953Y-104787244D01*
X310502012Y-104398698D01*
X310268363Y-104049017D01*
X309970983Y-103751637D01*
X309621302Y-103517988D01*
X309232756Y-103357047D01*
X308820279Y-103275000D01*
X308399721Y-103275000D01*
X307987244Y-103357047D01*
X307598698Y-103517988D01*
X307249017Y-103751637D01*
X306951637Y-104049017D01*
X306717988Y-104398698D01*
X306557047Y-104787244D01*
X306475000Y-105199721D01*
X305460000Y-105199721D01*
X305460000Y-104172279D01*
X305498909Y-103775455D01*
X305604780Y-103424792D01*
X305776744Y-103101375D01*
X306008254Y-102817516D01*
X306290486Y-102584035D01*
X306612695Y-102409817D01*
X306962614Y-102301498D01*
X307357443Y-102260000D01*
X370807721Y-102260000D01*
X371204545Y-102298909D01*
X371204545Y-102298909D01*
G37*
X371204545Y-102298909D02*
X371555208Y-102404780D01*
X371878625Y-102576744D01*
X372162484Y-102808254D01*
X372395965Y-103090486D01*
X372570183Y-103412695D01*
X372678502Y-103762614D01*
X372720000Y-104157443D01*
X372720001Y-126967711D01*
X372681091Y-127364545D01*
X372575220Y-127715206D01*
X372403257Y-128038623D01*
X372171748Y-128322482D01*
X371889514Y-128555965D01*
X371567304Y-128730184D01*
X371217385Y-128838502D01*
X370822557Y-128880000D01*
X307372279Y-128880000D01*
X306975455Y-128841091D01*
X306624794Y-128735220D01*
X306301377Y-128563257D01*
X306017518Y-128331748D01*
X305784035Y-128049514D01*
X305609816Y-127727304D01*
X305501498Y-127377385D01*
X305460000Y-126982557D01*
X305460000Y-125519721D01*
X306475000Y-125519721D01*
X306475000Y-125940279D01*
X306557047Y-126352756D01*
X306717988Y-126741302D01*
X306951637Y-127090983D01*
X307249017Y-127388363D01*
X307598698Y-127622012D01*
X307987244Y-127782953D01*
X308399721Y-127865000D01*
X308820279Y-127865000D01*
X309232756Y-127782953D01*
X309621302Y-127622012D01*
X309970983Y-127388363D01*
X310268363Y-127090983D01*
X310502012Y-126741302D01*
X310662953Y-126352756D01*
X310745000Y-125940279D01*
X310745000Y-125519721D01*
X310662953Y-125107244D01*
X310502012Y-124718698D01*
X310268363Y-124369017D01*
X309970983Y-124071637D01*
X309621302Y-123837988D01*
X309232756Y-123677047D01*
X308820279Y-123595000D01*
X308399721Y-123595000D01*
X307987244Y-123677047D01*
X307598698Y-123837988D01*
X307249017Y-124071637D01*
X306951637Y-124369017D01*
X306717988Y-124718698D01*
X306557047Y-125107244D01*
X306475000Y-125519721D01*
X305460000Y-125519721D01*
X305460000Y-123480223D01*
X318315000Y-123480223D01*
X318315000Y-123835777D01*
X318384365Y-124184499D01*
X318520429Y-124512988D01*
X318717965Y-124808621D01*
X318969379Y-125060035D01*
X319265012Y-125257571D01*
X319593501Y-125393635D01*
X319942223Y-125463000D01*
X320297777Y-125463000D01*
X320646499Y-125393635D01*
X320974988Y-125257571D01*
X321270621Y-125060035D01*
X321522035Y-124808621D01*
X321719571Y-124512988D01*
X321855635Y-124184499D01*
X321925000Y-123835777D01*
X321925000Y-123480223D01*
X321855635Y-123131501D01*
X321719571Y-122803012D01*
X321522035Y-122507379D01*
X321270621Y-122255965D01*
X320974988Y-122058429D01*
X320646499Y-121922365D01*
X320297777Y-121853000D01*
X319942223Y-121853000D01*
X319593501Y-121922365D01*
X319265012Y-122058429D01*
X318969379Y-122255965D01*
X318717965Y-122507379D01*
X318520429Y-122803012D01*
X318384365Y-123131501D01*
X318315000Y-123480223D01*
X305460000Y-123480223D01*
X305460000Y-120479117D01*
X309161000Y-120479117D01*
X309161000Y-120820883D01*
X309227675Y-121156081D01*
X309358463Y-121471831D01*
X309548337Y-121755998D01*
X309790002Y-121997663D01*
X310074169Y-122187537D01*
X310389919Y-122318325D01*
X310725117Y-122385000D01*
X311066883Y-122385000D01*
X311402081Y-122318325D01*
X311717831Y-122187537D01*
X312001998Y-121997663D01*
X312243663Y-121755998D01*
X312433537Y-121471831D01*
X312564325Y-121156081D01*
X312599305Y-120980223D01*
X323315000Y-120980223D01*
X323315000Y-121335777D01*
X323384365Y-121684499D01*
X323520429Y-122012988D01*
X323717965Y-122308621D01*
X323969379Y-122560035D01*
X324265012Y-122757571D01*
X324593501Y-122893635D01*
X324942223Y-122963000D01*
X325297777Y-122963000D01*
X325646499Y-122893635D01*
X325974988Y-122757571D01*
X326270621Y-122560035D01*
X326504595Y-122326061D01*
X329419000Y-122326061D01*
X329419000Y-122529939D01*
X329458774Y-122729898D01*
X329536795Y-122918256D01*
X329650063Y-123087774D01*
X329694000Y-123131711D01*
X329694001Y-124264288D01*
X329650063Y-124308226D01*
X329536795Y-124477744D01*
X329458774Y-124666102D01*
X329419000Y-124866061D01*
X329419000Y-125069939D01*
X329458774Y-125269898D01*
X329536795Y-125458256D01*
X329650063Y-125627774D01*
X329794226Y-125771937D01*
X329963744Y-125885205D01*
X330152102Y-125963226D01*
X330352061Y-126003000D01*
X330555939Y-126003000D01*
X330755898Y-125963226D01*
X330944256Y-125885205D01*
X331113774Y-125771937D01*
X331257937Y-125627774D01*
X331330135Y-125519721D01*
X367435000Y-125519721D01*
X367435000Y-125940279D01*
X367517047Y-126352756D01*
X367677988Y-126741302D01*
X367911637Y-127090983D01*
X368209017Y-127388363D01*
X368558698Y-127622012D01*
X368947244Y-127782953D01*
X369359721Y-127865000D01*
X369780279Y-127865000D01*
X370192756Y-127782953D01*
X370581302Y-127622012D01*
X370930983Y-127388363D01*
X371228363Y-127090983D01*
X371462012Y-126741302D01*
X371622953Y-126352756D01*
X371705000Y-125940279D01*
X371705000Y-125519721D01*
X371622953Y-125107244D01*
X371462012Y-124718698D01*
X371228363Y-124369017D01*
X370930983Y-124071637D01*
X370581302Y-123837988D01*
X370192756Y-123677047D01*
X369780279Y-123595000D01*
X369359721Y-123595000D01*
X368947244Y-123677047D01*
X368558698Y-123837988D01*
X368209017Y-124071637D01*
X367911637Y-124369017D01*
X367677988Y-124718698D01*
X367517047Y-125107244D01*
X367435000Y-125519721D01*
X331330135Y-125519721D01*
X331371205Y-125458256D01*
X331449226Y-125269898D01*
X331489000Y-125069939D01*
X331489000Y-124866061D01*
X331449226Y-124666102D01*
X331371205Y-124477744D01*
X331257937Y-124308226D01*
X331214000Y-124264289D01*
X331214000Y-123131711D01*
X331257937Y-123087774D01*
X331371205Y-122918256D01*
X331449226Y-122729898D01*
X331489000Y-122529939D01*
X331489000Y-122326061D01*
X331449226Y-122126102D01*
X331371205Y-121937744D01*
X331257937Y-121768226D01*
X331113774Y-121624063D01*
X330944256Y-121510795D01*
X330755898Y-121432774D01*
X330555939Y-121393000D01*
X330352061Y-121393000D01*
X330152102Y-121432774D01*
X329963744Y-121510795D01*
X329794226Y-121624063D01*
X329650063Y-121768226D01*
X329536795Y-121937744D01*
X329458774Y-122126102D01*
X329419000Y-122326061D01*
X326504595Y-122326061D01*
X326522035Y-122308621D01*
X326719571Y-122012988D01*
X326855635Y-121684499D01*
X326925000Y-121335777D01*
X326925000Y-121056061D01*
X331959000Y-121056061D01*
X331959000Y-121259939D01*
X331998774Y-121459898D01*
X332076795Y-121648256D01*
X332190063Y-121817774D01*
X332334226Y-121961937D01*
X332503744Y-122075205D01*
X332692102Y-122153226D01*
X332892061Y-122193000D01*
X333095939Y-122193000D01*
X333295898Y-122153226D01*
X333484256Y-122075205D01*
X333653774Y-121961937D01*
X333797937Y-121817774D01*
X333911205Y-121648256D01*
X333989226Y-121459898D01*
X334029000Y-121259939D01*
X334029000Y-121056061D01*
X333989226Y-120856102D01*
X333911205Y-120667744D01*
X333879000Y-120619546D01*
X333879000Y-119380000D01*
X358425815Y-119380000D01*
X358454487Y-119671111D01*
X358539401Y-119951034D01*
X358677294Y-120209014D01*
X358862866Y-120435134D01*
X359088986Y-120620706D01*
X359346966Y-120758599D01*
X359626889Y-120843513D01*
X359845050Y-120865000D01*
X359990950Y-120865000D01*
X360209111Y-120843513D01*
X360489034Y-120758599D01*
X360747014Y-120620706D01*
X360973134Y-120435134D01*
X361158706Y-120209014D01*
X361296599Y-119951034D01*
X361381513Y-119671111D01*
X361410185Y-119380000D01*
X361381513Y-119088889D01*
X361296599Y-118808966D01*
X361158706Y-118550986D01*
X360973134Y-118324866D01*
X360943313Y-118300393D01*
X361012180Y-118279502D01*
X361122494Y-118220537D01*
X361219185Y-118141185D01*
X361298537Y-118044494D01*
X361357502Y-117934180D01*
X361393812Y-117814482D01*
X361406072Y-117690000D01*
X361406072Y-116760000D01*
X367190815Y-116760000D01*
X367219487Y-117051111D01*
X367304401Y-117331034D01*
X367442294Y-117589014D01*
X367627866Y-117815134D01*
X367853986Y-118000706D01*
X367871374Y-118010000D01*
X367853986Y-118019294D01*
X367627866Y-118204866D01*
X367442294Y-118430986D01*
X367304401Y-118688966D01*
X367219487Y-118968889D01*
X367190815Y-119260000D01*
X367219487Y-119551111D01*
X367304401Y-119831034D01*
X367442294Y-120089014D01*
X367627866Y-120315134D01*
X367853986Y-120500706D01*
X368111966Y-120638599D01*
X368391889Y-120723513D01*
X368610050Y-120745000D01*
X369005950Y-120745000D01*
X369224111Y-120723513D01*
X369504034Y-120638599D01*
X369762014Y-120500706D01*
X369988134Y-120315134D01*
X370173706Y-120089014D01*
X370311599Y-119831034D01*
X370396513Y-119551111D01*
X370425185Y-119260000D01*
X370396513Y-118968889D01*
X370311599Y-118688966D01*
X370173706Y-118430986D01*
X369988134Y-118204866D01*
X369762014Y-118019294D01*
X369744626Y-118010000D01*
X369762014Y-118000706D01*
X369988134Y-117815134D01*
X370173706Y-117589014D01*
X370311599Y-117331034D01*
X370396513Y-117051111D01*
X370425185Y-116760000D01*
X370396513Y-116468889D01*
X370311599Y-116188966D01*
X370173706Y-115930986D01*
X369988134Y-115704866D01*
X369762014Y-115519294D01*
X369736278Y-115505538D01*
X369942429Y-115349049D01*
X370135496Y-115131193D01*
X370282352Y-114879858D01*
X370374476Y-114616890D01*
X370253155Y-114387000D01*
X368935000Y-114387000D01*
X368935000Y-114407000D01*
X368681000Y-114407000D01*
X368681000Y-114387000D01*
X367362845Y-114387000D01*
X367241524Y-114616890D01*
X367333648Y-114879858D01*
X367480504Y-115131193D01*
X367673571Y-115349049D01*
X367879722Y-115505538D01*
X367853986Y-115519294D01*
X367627866Y-115704866D01*
X367442294Y-115930986D01*
X367304401Y-116188966D01*
X367219487Y-116468889D01*
X367190815Y-116760000D01*
X361406072Y-116760000D01*
X361406072Y-115990000D01*
X361393812Y-115865518D01*
X361357502Y-115745820D01*
X361298537Y-115635506D01*
X361219185Y-115538815D01*
X361122494Y-115459463D01*
X361012180Y-115400498D01*
X360892482Y-115364188D01*
X360768000Y-115351928D01*
X359068000Y-115351928D01*
X358943518Y-115364188D01*
X358823820Y-115400498D01*
X358713506Y-115459463D01*
X358616815Y-115538815D01*
X358537463Y-115635506D01*
X358478498Y-115745820D01*
X358442188Y-115865518D01*
X358429928Y-115990000D01*
X358429928Y-117690000D01*
X358442188Y-117814482D01*
X358478498Y-117934180D01*
X358537463Y-118044494D01*
X358616815Y-118141185D01*
X358713506Y-118220537D01*
X358823820Y-118279502D01*
X358892687Y-118300393D01*
X358862866Y-118324866D01*
X358677294Y-118550986D01*
X358539401Y-118808966D01*
X358454487Y-119088889D01*
X358425815Y-119380000D01*
X333879000Y-119380000D01*
X333879000Y-118476578D01*
X336449050Y-115906529D01*
X336482817Y-115878817D01*
X336593411Y-115744059D01*
X336675589Y-115590313D01*
X336726195Y-115423490D01*
X336739000Y-115293477D01*
X336739000Y-115293469D01*
X336743281Y-115250000D01*
X336739000Y-115206531D01*
X336739000Y-113944061D01*
X345167000Y-113944061D01*
X345167000Y-114147939D01*
X345206774Y-114347898D01*
X345284795Y-114536256D01*
X345398063Y-114705774D01*
X345542226Y-114849937D01*
X345711744Y-114963205D01*
X345900102Y-115041226D01*
X346100061Y-115081000D01*
X346303939Y-115081000D01*
X346503898Y-115041226D01*
X346692256Y-114963205D01*
X346861774Y-114849937D01*
X346905711Y-114806000D01*
X349189199Y-114806000D01*
X351263000Y-116879802D01*
X351263000Y-116941939D01*
X351302774Y-117141898D01*
X351380795Y-117330256D01*
X351494063Y-117499774D01*
X351638226Y-117643937D01*
X351807744Y-117757205D01*
X351996102Y-117835226D01*
X352196061Y-117875000D01*
X352399939Y-117875000D01*
X352599898Y-117835226D01*
X352788256Y-117757205D01*
X352957774Y-117643937D01*
X353101937Y-117499774D01*
X353215205Y-117330256D01*
X353293226Y-117141898D01*
X353333000Y-116941939D01*
X353333000Y-116738061D01*
X353293226Y-116538102D01*
X353215205Y-116349744D01*
X353101937Y-116180226D01*
X352957774Y-116036063D01*
X352788256Y-115922795D01*
X352599898Y-115844774D01*
X352399939Y-115805000D01*
X352337802Y-115805000D01*
X350067804Y-113535003D01*
X350044001Y-113505999D01*
X349928276Y-113411026D01*
X349796247Y-113340454D01*
X349652986Y-113296997D01*
X349541333Y-113286000D01*
X349541322Y-113286000D01*
X349504000Y-113282324D01*
X349466678Y-113286000D01*
X346905711Y-113286000D01*
X346861774Y-113242063D01*
X346692256Y-113128795D01*
X346503898Y-113050774D01*
X346303939Y-113011000D01*
X346100061Y-113011000D01*
X345900102Y-113050774D01*
X345711744Y-113128795D01*
X345542226Y-113242063D01*
X345398063Y-113386226D01*
X345284795Y-113555744D01*
X345206774Y-113744102D01*
X345167000Y-113944061D01*
X336739000Y-113944061D01*
X336739000Y-113248454D01*
X336771205Y-113200256D01*
X336849226Y-113011898D01*
X336875682Y-112878891D01*
X358476519Y-112878891D01*
X358573843Y-113153252D01*
X358722822Y-113403355D01*
X358917731Y-113619588D01*
X359151080Y-113793641D01*
X359413901Y-113918825D01*
X359561110Y-113963476D01*
X359791000Y-113842155D01*
X359791000Y-112649000D01*
X360045000Y-112649000D01*
X360045000Y-113842155D01*
X360274890Y-113963476D01*
X360422099Y-113918825D01*
X360684920Y-113793641D01*
X360918269Y-113619588D01*
X361113178Y-113403355D01*
X361262157Y-113153252D01*
X361359481Y-112878891D01*
X361238814Y-112649000D01*
X360045000Y-112649000D01*
X359791000Y-112649000D01*
X358597186Y-112649000D01*
X358476519Y-112878891D01*
X336875682Y-112878891D01*
X336889000Y-112811939D01*
X336889000Y-112608061D01*
X336849226Y-112408102D01*
X336771205Y-112219744D01*
X336657937Y-112050226D01*
X336513774Y-111906063D01*
X336344256Y-111792795D01*
X336155898Y-111714774D01*
X335955939Y-111675000D01*
X335752061Y-111675000D01*
X335552102Y-111714774D01*
X335363744Y-111792795D01*
X335194226Y-111906063D01*
X335050063Y-112050226D01*
X334936795Y-112219744D01*
X334858774Y-112408102D01*
X334819000Y-112608061D01*
X334819000Y-112811939D01*
X334858774Y-113011898D01*
X334936795Y-113200256D01*
X334969001Y-113248455D01*
X334969000Y-114883421D01*
X332398951Y-117453471D01*
X332365184Y-117481183D01*
X332337471Y-117514951D01*
X332337468Y-117514954D01*
X332254590Y-117615941D01*
X332172412Y-117769687D01*
X332121805Y-117936510D01*
X332104719Y-118110000D01*
X332109001Y-118153479D01*
X332109000Y-120619545D01*
X332076795Y-120667744D01*
X331998774Y-120856102D01*
X331959000Y-121056061D01*
X326925000Y-121056061D01*
X326925000Y-120980223D01*
X326855635Y-120631501D01*
X326719571Y-120303012D01*
X326522035Y-120007379D01*
X326270621Y-119755965D01*
X325974988Y-119558429D01*
X325646499Y-119422365D01*
X325297777Y-119353000D01*
X324942223Y-119353000D01*
X324593501Y-119422365D01*
X324265012Y-119558429D01*
X323969379Y-119755965D01*
X323717965Y-120007379D01*
X323520429Y-120303012D01*
X323384365Y-120631501D01*
X323315000Y-120980223D01*
X312599305Y-120980223D01*
X312631000Y-120820883D01*
X312631000Y-120479117D01*
X312564325Y-120143919D01*
X312433537Y-119828169D01*
X312243663Y-119544002D01*
X312001998Y-119302337D01*
X311717831Y-119112463D01*
X311402081Y-118981675D01*
X311066883Y-118915000D01*
X310725117Y-118915000D01*
X310389919Y-118981675D01*
X310074169Y-119112463D01*
X309790002Y-119302337D01*
X309548337Y-119544002D01*
X309358463Y-119828169D01*
X309227675Y-120143919D01*
X309161000Y-120479117D01*
X305460000Y-120479117D01*
X305460000Y-118480223D01*
X318315000Y-118480223D01*
X318315000Y-118835777D01*
X318384365Y-119184499D01*
X318520429Y-119512988D01*
X318717965Y-119808621D01*
X318969379Y-120060035D01*
X319265012Y-120257571D01*
X319593501Y-120393635D01*
X319942223Y-120463000D01*
X320297777Y-120463000D01*
X320646499Y-120393635D01*
X320974988Y-120257571D01*
X321270621Y-120060035D01*
X321522035Y-119808621D01*
X321719571Y-119512988D01*
X321855635Y-119184499D01*
X321925000Y-118835777D01*
X321925000Y-118480223D01*
X321855635Y-118131501D01*
X321719571Y-117803012D01*
X321522035Y-117507379D01*
X321270621Y-117255965D01*
X320974988Y-117058429D01*
X320646499Y-116922365D01*
X320297777Y-116853000D01*
X319942223Y-116853000D01*
X319593501Y-116922365D01*
X319265012Y-117058429D01*
X318969379Y-117255965D01*
X318717965Y-117507379D01*
X318520429Y-117803012D01*
X318384365Y-118131501D01*
X318315000Y-118480223D01*
X305460000Y-118480223D01*
X305460000Y-115399117D01*
X309161000Y-115399117D01*
X309161000Y-115740883D01*
X309227675Y-116076081D01*
X309358463Y-116391831D01*
X309548337Y-116675998D01*
X309790002Y-116917663D01*
X310074169Y-117107537D01*
X310389919Y-117238325D01*
X310725117Y-117305000D01*
X311066883Y-117305000D01*
X311402081Y-117238325D01*
X311717831Y-117107537D01*
X312001998Y-116917663D01*
X312243663Y-116675998D01*
X312433537Y-116391831D01*
X312564325Y-116076081D01*
X312631000Y-115740883D01*
X312631000Y-115399117D01*
X312564325Y-115063919D01*
X312433537Y-114748169D01*
X312243663Y-114464002D01*
X312001998Y-114222337D01*
X311717831Y-114032463D01*
X311402081Y-113901675D01*
X311066883Y-113835000D01*
X310725117Y-113835000D01*
X310389919Y-113901675D01*
X310074169Y-114032463D01*
X309790002Y-114222337D01*
X309548337Y-114464002D01*
X309358463Y-114748169D01*
X309227675Y-115063919D01*
X309161000Y-115399117D01*
X305460000Y-115399117D01*
X305460000Y-109390000D01*
X309157928Y-109390000D01*
X309157928Y-111590000D01*
X309170188Y-111714482D01*
X309206498Y-111834180D01*
X309265463Y-111944494D01*
X309344815Y-112041185D01*
X309441506Y-112120537D01*
X309551820Y-112179502D01*
X309671518Y-112215812D01*
X309796000Y-112228072D01*
X311996000Y-112228072D01*
X312120482Y-112215812D01*
X312240180Y-112179502D01*
X312350494Y-112120537D01*
X312447185Y-112041185D01*
X312526537Y-111944494D01*
X312585502Y-111834180D01*
X312621812Y-111714482D01*
X312634072Y-111590000D01*
X312634072Y-109390000D01*
X312621812Y-109265518D01*
X312585502Y-109145820D01*
X312526537Y-109035506D01*
X312447185Y-108938815D01*
X312350494Y-108859463D01*
X312240180Y-108800498D01*
X312120482Y-108764188D01*
X311996000Y-108751928D01*
X309796000Y-108751928D01*
X309671518Y-108764188D01*
X309551820Y-108800498D01*
X309441506Y-108859463D01*
X309344815Y-108938815D01*
X309265463Y-109035506D01*
X309206498Y-109145820D01*
X309170188Y-109265518D01*
X309157928Y-109390000D01*
X305460000Y-109390000D01*
X305460000Y-105199721D01*
X306475000Y-105199721D01*
X306475000Y-105620279D01*
X306557047Y-106032756D01*
X306717988Y-106421302D01*
X306951637Y-106770983D01*
X307249017Y-107068363D01*
X307598698Y-107302012D01*
X307987244Y-107462953D01*
X308399721Y-107545000D01*
X308820279Y-107545000D01*
X309232756Y-107462953D01*
X309621302Y-107302012D01*
X309970983Y-107068363D01*
X310225996Y-106813350D01*
X318392278Y-106813350D01*
X318392278Y-109594650D01*
X318404538Y-109719132D01*
X318440848Y-109838830D01*
X318499813Y-109949144D01*
X318579165Y-110045835D01*
X318675856Y-110125187D01*
X318786170Y-110184152D01*
X318905868Y-110220462D01*
X319030350Y-110232722D01*
X321811650Y-110232722D01*
X321936132Y-110220462D01*
X322055830Y-110184152D01*
X322166144Y-110125187D01*
X322262835Y-110045835D01*
X322342187Y-109949144D01*
X322401152Y-109838830D01*
X322437462Y-109719132D01*
X322449722Y-109594650D01*
X322449722Y-108004491D01*
X323094350Y-108004491D01*
X323094350Y-108403509D01*
X323172195Y-108794860D01*
X323324892Y-109163505D01*
X323546575Y-109495276D01*
X323828724Y-109777425D01*
X324160495Y-109999108D01*
X324529140Y-110151805D01*
X324920491Y-110229650D01*
X325319509Y-110229650D01*
X325710860Y-110151805D01*
X326079505Y-109999108D01*
X326411276Y-109777425D01*
X326693425Y-109495276D01*
X326915108Y-109163505D01*
X327067805Y-108794860D01*
X327145650Y-108403509D01*
X327145650Y-108004491D01*
X327793350Y-108004491D01*
X327793350Y-108403509D01*
X327871195Y-108794860D01*
X328023892Y-109163505D01*
X328245575Y-109495276D01*
X328527724Y-109777425D01*
X328859495Y-109999108D01*
X329228140Y-110151805D01*
X329619491Y-110229650D01*
X330018509Y-110229650D01*
X330409860Y-110151805D01*
X330778505Y-109999108D01*
X331110276Y-109777425D01*
X331392425Y-109495276D01*
X331614108Y-109163505D01*
X331627157Y-109132000D01*
X358429928Y-109132000D01*
X358429928Y-110832000D01*
X358442188Y-110956482D01*
X358478498Y-111076180D01*
X358537463Y-111186494D01*
X358616815Y-111283185D01*
X358713506Y-111362537D01*
X358823820Y-111421502D01*
X358899626Y-111444498D01*
X358722822Y-111640645D01*
X358573843Y-111890748D01*
X358476519Y-112165109D01*
X358597186Y-112395000D01*
X359791000Y-112395000D01*
X359791000Y-112375000D01*
X360045000Y-112375000D01*
X360045000Y-112395000D01*
X361238814Y-112395000D01*
X361359481Y-112165109D01*
X361262157Y-111890748D01*
X361113178Y-111640645D01*
X360936374Y-111444498D01*
X361012180Y-111421502D01*
X361122494Y-111362537D01*
X361219185Y-111283185D01*
X361298537Y-111186494D01*
X361357502Y-111076180D01*
X361393812Y-110956482D01*
X361406072Y-110832000D01*
X361406072Y-110038363D01*
X365573000Y-110038363D01*
X365573000Y-110281637D01*
X365620460Y-110520236D01*
X365713557Y-110744992D01*
X365848713Y-110947267D01*
X366020733Y-111119287D01*
X366223008Y-111254443D01*
X366447764Y-111347540D01*
X366686363Y-111395000D01*
X366929637Y-111395000D01*
X367168236Y-111347540D01*
X367194928Y-111336484D01*
X367194928Y-112360000D01*
X367211992Y-112533254D01*
X367262528Y-112699850D01*
X367344595Y-112853386D01*
X367455038Y-112987962D01*
X367589614Y-113098405D01*
X367694961Y-113154714D01*
X367673571Y-113170951D01*
X367480504Y-113388807D01*
X367333648Y-113640142D01*
X367241524Y-113903110D01*
X367362845Y-114133000D01*
X368681000Y-114133000D01*
X368681000Y-114113000D01*
X368935000Y-114113000D01*
X368935000Y-114133000D01*
X370253155Y-114133000D01*
X370374476Y-113903110D01*
X370282352Y-113640142D01*
X370135496Y-113388807D01*
X369942429Y-113170951D01*
X369921039Y-113154714D01*
X370026386Y-113098405D01*
X370160962Y-112987962D01*
X370271405Y-112853386D01*
X370353472Y-112699850D01*
X370404008Y-112533254D01*
X370421072Y-112360000D01*
X370421072Y-111160000D01*
X370404008Y-110986746D01*
X370353472Y-110820150D01*
X370271405Y-110666614D01*
X370160962Y-110532038D01*
X370026386Y-110421595D01*
X369872850Y-110339528D01*
X369706254Y-110288992D01*
X369533000Y-110271928D01*
X368083000Y-110271928D01*
X368043000Y-110275868D01*
X368043000Y-110038363D01*
X367995540Y-109799764D01*
X367902443Y-109575008D01*
X367767287Y-109372733D01*
X367595267Y-109200713D01*
X367392992Y-109065557D01*
X367168236Y-108972460D01*
X366929637Y-108925000D01*
X366686363Y-108925000D01*
X366447764Y-108972460D01*
X366223008Y-109065557D01*
X366020733Y-109200713D01*
X365848713Y-109372733D01*
X365713557Y-109575008D01*
X365620460Y-109799764D01*
X365573000Y-110038363D01*
X361406072Y-110038363D01*
X361406072Y-109132000D01*
X361393812Y-109007518D01*
X361357502Y-108887820D01*
X361298537Y-108777506D01*
X361219185Y-108680815D01*
X361122494Y-108601463D01*
X361012180Y-108542498D01*
X360892482Y-108506188D01*
X360768000Y-108493928D01*
X359068000Y-108493928D01*
X358943518Y-108506188D01*
X358823820Y-108542498D01*
X358713506Y-108601463D01*
X358616815Y-108680815D01*
X358537463Y-108777506D01*
X358478498Y-108887820D01*
X358442188Y-109007518D01*
X358429928Y-109132000D01*
X331627157Y-109132000D01*
X331766805Y-108794860D01*
X331844650Y-108403509D01*
X331844650Y-108004491D01*
X331766805Y-107613140D01*
X331614108Y-107244495D01*
X331392425Y-106912724D01*
X331110276Y-106630575D01*
X330778505Y-106408892D01*
X330409860Y-106256195D01*
X330018509Y-106178350D01*
X329619491Y-106178350D01*
X329228140Y-106256195D01*
X328859495Y-106408892D01*
X328527724Y-106630575D01*
X328245575Y-106912724D01*
X328023892Y-107244495D01*
X327871195Y-107613140D01*
X327793350Y-108004491D01*
X327145650Y-108004491D01*
X327067805Y-107613140D01*
X326915108Y-107244495D01*
X326693425Y-106912724D01*
X326411276Y-106630575D01*
X326079505Y-106408892D01*
X325710860Y-106256195D01*
X325319509Y-106178350D01*
X324920491Y-106178350D01*
X324529140Y-106256195D01*
X324160495Y-106408892D01*
X323828724Y-106630575D01*
X323546575Y-106912724D01*
X323324892Y-107244495D01*
X323172195Y-107613140D01*
X323094350Y-108004491D01*
X322449722Y-108004491D01*
X322449722Y-106813350D01*
X322437462Y-106688868D01*
X322401152Y-106569170D01*
X322342187Y-106458856D01*
X322262835Y-106362165D01*
X322166144Y-106282813D01*
X322055830Y-106223848D01*
X321936132Y-106187538D01*
X321811650Y-106175278D01*
X319030350Y-106175278D01*
X318905868Y-106187538D01*
X318786170Y-106223848D01*
X318675856Y-106282813D01*
X318579165Y-106362165D01*
X318499813Y-106458856D01*
X318440848Y-106569170D01*
X318404538Y-106688868D01*
X318392278Y-106813350D01*
X310225996Y-106813350D01*
X310268363Y-106770983D01*
X310502012Y-106421302D01*
X310662953Y-106032756D01*
X310745000Y-105620279D01*
X310745000Y-105199721D01*
X367435000Y-105199721D01*
X367435000Y-105620279D01*
X367517047Y-106032756D01*
X367677988Y-106421302D01*
X367911637Y-106770983D01*
X368209017Y-107068363D01*
X368558698Y-107302012D01*
X368947244Y-107462953D01*
X369359721Y-107545000D01*
X369780279Y-107545000D01*
X370192756Y-107462953D01*
X370581302Y-107302012D01*
X370930983Y-107068363D01*
X371228363Y-106770983D01*
X371462012Y-106421302D01*
X371622953Y-106032756D01*
X371705000Y-105620279D01*
X371705000Y-105199721D01*
X371622953Y-104787244D01*
X371462012Y-104398698D01*
X371228363Y-104049017D01*
X370930983Y-103751637D01*
X370581302Y-103517988D01*
X370192756Y-103357047D01*
X369780279Y-103275000D01*
X369359721Y-103275000D01*
X368947244Y-103357047D01*
X368558698Y-103517988D01*
X368209017Y-103751637D01*
X367911637Y-104049017D01*
X367677988Y-104398698D01*
X367517047Y-104787244D01*
X367435000Y-105199721D01*
X310745000Y-105199721D01*
X310662953Y-104787244D01*
X310502012Y-104398698D01*
X310268363Y-104049017D01*
X309970983Y-103751637D01*
X309621302Y-103517988D01*
X309232756Y-103357047D01*
X308820279Y-103275000D01*
X308399721Y-103275000D01*
X307987244Y-103357047D01*
X307598698Y-103517988D01*
X307249017Y-103751637D01*
X306951637Y-104049017D01*
X306717988Y-104398698D01*
X306557047Y-104787244D01*
X306475000Y-105199721D01*
X305460000Y-105199721D01*
X305460000Y-104172279D01*
X305498909Y-103775455D01*
X305604780Y-103424792D01*
X305776744Y-103101375D01*
X306008254Y-102817516D01*
X306290486Y-102584035D01*
X306612695Y-102409817D01*
X306962614Y-102301498D01*
X307357443Y-102260000D01*
X370807721Y-102260000D01*
X371204545Y-102298909D01*
M02*
