G04 #@! TF.GenerationSoftware,KiCad,Pcbnew,(5.1.4)-1*
G04 #@! TF.CreationDate,2019-11-02T17:27:44+00:00*
G04 #@! TF.ProjectId,timer-board,74696d65-722d-4626-9f61-72642e6b6963,rev?*
G04 #@! TF.SameCoordinates,Original*
G04 #@! TF.FileFunction,Copper,L2,Bot*
G04 #@! TF.FilePolarity,Positive*
%FSLAX46Y46*%
G04 Gerber Fmt 4.6, Leading zero omitted, Abs format (unit mm)*
G04 Created by KiCad (PCBNEW (5.1.4)-1) date 2019-11-02 17:27:44*
%MOMM*%
%LPD*%
G04 APERTURE LIST*
%ADD10R,3.200000X3.200000*%
%ADD11C,3.200000*%
%ADD12R,2.200000X2.200000*%
%ADD13C,2.200000*%
%ADD14C,2.000000*%
%ADD15O,1.950000X1.700000*%
%ADD16C,0.100000*%
%ADD17C,1.700000*%
%ADD18R,1.700000X1.700000*%
%ADD19O,1.700000X1.700000*%
%ADD20C,0.800000*%
%ADD21C,0.250000*%
%ADD22C,0.500000*%
%ADD23C,0.254000*%
G04 APERTURE END LIST*
D10*
X320745000Y-108268000D03*
D11*
X325120000Y-108268000D03*
X329495000Y-108268000D03*
D12*
X310896000Y-110490000D03*
D13*
X310896000Y-115570000D03*
X310896000Y-120650000D03*
D14*
X325070000Y-121372000D03*
X320170000Y-123872000D03*
X320170000Y-118872000D03*
D15*
X368808000Y-119260000D03*
X368808000Y-116760000D03*
X368808000Y-114260000D03*
D16*
G36*
X369557504Y-110911204D02*
G01*
X369581773Y-110914804D01*
X369605571Y-110920765D01*
X369628671Y-110929030D01*
X369650849Y-110939520D01*
X369671893Y-110952133D01*
X369691598Y-110966747D01*
X369709777Y-110983223D01*
X369726253Y-111001402D01*
X369740867Y-111021107D01*
X369753480Y-111042151D01*
X369763970Y-111064329D01*
X369772235Y-111087429D01*
X369778196Y-111111227D01*
X369781796Y-111135496D01*
X369783000Y-111160000D01*
X369783000Y-112360000D01*
X369781796Y-112384504D01*
X369778196Y-112408773D01*
X369772235Y-112432571D01*
X369763970Y-112455671D01*
X369753480Y-112477849D01*
X369740867Y-112498893D01*
X369726253Y-112518598D01*
X369709777Y-112536777D01*
X369691598Y-112553253D01*
X369671893Y-112567867D01*
X369650849Y-112580480D01*
X369628671Y-112590970D01*
X369605571Y-112599235D01*
X369581773Y-112605196D01*
X369557504Y-112608796D01*
X369533000Y-112610000D01*
X368083000Y-112610000D01*
X368058496Y-112608796D01*
X368034227Y-112605196D01*
X368010429Y-112599235D01*
X367987329Y-112590970D01*
X367965151Y-112580480D01*
X367944107Y-112567867D01*
X367924402Y-112553253D01*
X367906223Y-112536777D01*
X367889747Y-112518598D01*
X367875133Y-112498893D01*
X367862520Y-112477849D01*
X367852030Y-112455671D01*
X367843765Y-112432571D01*
X367837804Y-112408773D01*
X367834204Y-112384504D01*
X367833000Y-112360000D01*
X367833000Y-111160000D01*
X367834204Y-111135496D01*
X367837804Y-111111227D01*
X367843765Y-111087429D01*
X367852030Y-111064329D01*
X367862520Y-111042151D01*
X367875133Y-111021107D01*
X367889747Y-111001402D01*
X367906223Y-110983223D01*
X367924402Y-110966747D01*
X367944107Y-110952133D01*
X367965151Y-110939520D01*
X367987329Y-110929030D01*
X368010429Y-110920765D01*
X368034227Y-110914804D01*
X368058496Y-110911204D01*
X368083000Y-110910000D01*
X369533000Y-110910000D01*
X369557504Y-110911204D01*
X369557504Y-110911204D01*
G37*
D17*
X368808000Y-111760000D03*
D18*
X359918000Y-109982000D03*
D19*
X359918000Y-112522000D03*
X359918000Y-119380000D03*
D18*
X359918000Y-116840000D03*
D20*
X356997000Y-118110000D03*
X341884000Y-122936000D03*
X334746600Y-122148600D03*
X326644000Y-114300000D03*
X328930000Y-124713990D03*
X333070200Y-113919000D03*
X330454000Y-122428000D03*
X330454000Y-127000000D03*
X336321400Y-112242600D03*
X332994000Y-120319800D03*
D21*
X330454000Y-122428000D02*
X330454000Y-127000000D01*
D22*
X336321400Y-116992400D02*
X332994000Y-120319800D01*
X336321400Y-112242600D02*
X336321400Y-116992400D01*
D23*
G36*
X371204545Y-102298909D02*
G01*
X371555208Y-102404780D01*
X371878625Y-102576744D01*
X372162484Y-102808254D01*
X372395965Y-103090486D01*
X372570183Y-103412695D01*
X372678502Y-103762614D01*
X372720000Y-104157443D01*
X372720001Y-126967711D01*
X372681091Y-127364545D01*
X372575220Y-127715206D01*
X372403257Y-128038623D01*
X372171748Y-128322482D01*
X371889514Y-128555965D01*
X371567304Y-128730184D01*
X371217385Y-128838502D01*
X370822557Y-128880000D01*
X307372279Y-128880000D01*
X306975455Y-128841091D01*
X306624794Y-128735220D01*
X306301377Y-128563257D01*
X306017518Y-128331748D01*
X305784035Y-128049514D01*
X305609816Y-127727304D01*
X305501498Y-127377385D01*
X305460000Y-126982557D01*
X305460000Y-123710967D01*
X318535000Y-123710967D01*
X318535000Y-124033033D01*
X318597832Y-124348912D01*
X318721082Y-124646463D01*
X318900013Y-124914252D01*
X319127748Y-125141987D01*
X319395537Y-125320918D01*
X319693088Y-125444168D01*
X320008967Y-125507000D01*
X320331033Y-125507000D01*
X320646912Y-125444168D01*
X320944463Y-125320918D01*
X321212252Y-125141987D01*
X321439987Y-124914252D01*
X321618918Y-124646463D01*
X321742168Y-124348912D01*
X321805000Y-124033033D01*
X321805000Y-123710967D01*
X321742168Y-123395088D01*
X321618918Y-123097537D01*
X321439987Y-122829748D01*
X321212252Y-122602013D01*
X320944463Y-122423082D01*
X320646912Y-122299832D01*
X320331033Y-122237000D01*
X320008967Y-122237000D01*
X319693088Y-122299832D01*
X319395537Y-122423082D01*
X319127748Y-122602013D01*
X318900013Y-122829748D01*
X318721082Y-123097537D01*
X318597832Y-123395088D01*
X318535000Y-123710967D01*
X305460000Y-123710967D01*
X305460000Y-120479117D01*
X309161000Y-120479117D01*
X309161000Y-120820883D01*
X309227675Y-121156081D01*
X309358463Y-121471831D01*
X309548337Y-121755998D01*
X309790002Y-121997663D01*
X310074169Y-122187537D01*
X310389919Y-122318325D01*
X310725117Y-122385000D01*
X311066883Y-122385000D01*
X311402081Y-122318325D01*
X311717831Y-122187537D01*
X312001998Y-121997663D01*
X312243663Y-121755998D01*
X312433537Y-121471831D01*
X312541590Y-121210967D01*
X323435000Y-121210967D01*
X323435000Y-121533033D01*
X323497832Y-121848912D01*
X323621082Y-122146463D01*
X323800013Y-122414252D01*
X324027748Y-122641987D01*
X324295537Y-122820918D01*
X324593088Y-122944168D01*
X324908967Y-123007000D01*
X325231033Y-123007000D01*
X325546912Y-122944168D01*
X325844463Y-122820918D01*
X326112252Y-122641987D01*
X326339987Y-122414252D01*
X326398914Y-122326061D01*
X329419000Y-122326061D01*
X329419000Y-122529939D01*
X329458774Y-122729898D01*
X329536795Y-122918256D01*
X329650063Y-123087774D01*
X329694000Y-123131711D01*
X329694001Y-126296288D01*
X329650063Y-126340226D01*
X329536795Y-126509744D01*
X329458774Y-126698102D01*
X329419000Y-126898061D01*
X329419000Y-127101939D01*
X329458774Y-127301898D01*
X329536795Y-127490256D01*
X329650063Y-127659774D01*
X329794226Y-127803937D01*
X329963744Y-127917205D01*
X330152102Y-127995226D01*
X330352061Y-128035000D01*
X330555939Y-128035000D01*
X330755898Y-127995226D01*
X330944256Y-127917205D01*
X331113774Y-127803937D01*
X331257937Y-127659774D01*
X331371205Y-127490256D01*
X331449226Y-127301898D01*
X331489000Y-127101939D01*
X331489000Y-126898061D01*
X331449226Y-126698102D01*
X331371205Y-126509744D01*
X331257937Y-126340226D01*
X331214000Y-126296289D01*
X331214000Y-123131711D01*
X331257937Y-123087774D01*
X331371205Y-122918256D01*
X331449226Y-122729898D01*
X331489000Y-122529939D01*
X331489000Y-122326061D01*
X331449226Y-122126102D01*
X331371205Y-121937744D01*
X331257937Y-121768226D01*
X331113774Y-121624063D01*
X330944256Y-121510795D01*
X330755898Y-121432774D01*
X330555939Y-121393000D01*
X330352061Y-121393000D01*
X330152102Y-121432774D01*
X329963744Y-121510795D01*
X329794226Y-121624063D01*
X329650063Y-121768226D01*
X329536795Y-121937744D01*
X329458774Y-122126102D01*
X329419000Y-122326061D01*
X326398914Y-122326061D01*
X326518918Y-122146463D01*
X326642168Y-121848912D01*
X326705000Y-121533033D01*
X326705000Y-121210967D01*
X326642168Y-120895088D01*
X326518918Y-120597537D01*
X326339987Y-120329748D01*
X326228100Y-120217861D01*
X331959000Y-120217861D01*
X331959000Y-120421739D01*
X331998774Y-120621698D01*
X332076795Y-120810056D01*
X332190063Y-120979574D01*
X332334226Y-121123737D01*
X332503744Y-121237005D01*
X332692102Y-121315026D01*
X332892061Y-121354800D01*
X333095939Y-121354800D01*
X333295898Y-121315026D01*
X333484256Y-121237005D01*
X333653774Y-121123737D01*
X333797937Y-120979574D01*
X333911205Y-120810056D01*
X333989226Y-120621698D01*
X334000535Y-120564843D01*
X335185378Y-119380000D01*
X358425815Y-119380000D01*
X358454487Y-119671111D01*
X358539401Y-119951034D01*
X358677294Y-120209014D01*
X358862866Y-120435134D01*
X359088986Y-120620706D01*
X359346966Y-120758599D01*
X359626889Y-120843513D01*
X359845050Y-120865000D01*
X359990950Y-120865000D01*
X360209111Y-120843513D01*
X360489034Y-120758599D01*
X360747014Y-120620706D01*
X360973134Y-120435134D01*
X361158706Y-120209014D01*
X361296599Y-119951034D01*
X361381513Y-119671111D01*
X361410185Y-119380000D01*
X361381513Y-119088889D01*
X361296599Y-118808966D01*
X361158706Y-118550986D01*
X360973134Y-118324866D01*
X360943313Y-118300393D01*
X361012180Y-118279502D01*
X361122494Y-118220537D01*
X361219185Y-118141185D01*
X361298537Y-118044494D01*
X361357502Y-117934180D01*
X361393812Y-117814482D01*
X361406072Y-117690000D01*
X361406072Y-116760000D01*
X367190815Y-116760000D01*
X367219487Y-117051111D01*
X367304401Y-117331034D01*
X367442294Y-117589014D01*
X367627866Y-117815134D01*
X367853986Y-118000706D01*
X367871374Y-118010000D01*
X367853986Y-118019294D01*
X367627866Y-118204866D01*
X367442294Y-118430986D01*
X367304401Y-118688966D01*
X367219487Y-118968889D01*
X367190815Y-119260000D01*
X367219487Y-119551111D01*
X367304401Y-119831034D01*
X367442294Y-120089014D01*
X367627866Y-120315134D01*
X367853986Y-120500706D01*
X368111966Y-120638599D01*
X368391889Y-120723513D01*
X368610050Y-120745000D01*
X369005950Y-120745000D01*
X369224111Y-120723513D01*
X369504034Y-120638599D01*
X369762014Y-120500706D01*
X369988134Y-120315134D01*
X370173706Y-120089014D01*
X370311599Y-119831034D01*
X370396513Y-119551111D01*
X370425185Y-119260000D01*
X370396513Y-118968889D01*
X370311599Y-118688966D01*
X370173706Y-118430986D01*
X369988134Y-118204866D01*
X369762014Y-118019294D01*
X369744626Y-118010000D01*
X369762014Y-118000706D01*
X369988134Y-117815134D01*
X370173706Y-117589014D01*
X370311599Y-117331034D01*
X370396513Y-117051111D01*
X370425185Y-116760000D01*
X370396513Y-116468889D01*
X370311599Y-116188966D01*
X370173706Y-115930986D01*
X369988134Y-115704866D01*
X369762014Y-115519294D01*
X369736278Y-115505538D01*
X369942429Y-115349049D01*
X370135496Y-115131193D01*
X370282352Y-114879858D01*
X370374476Y-114616890D01*
X370253155Y-114387000D01*
X368935000Y-114387000D01*
X368935000Y-114407000D01*
X368681000Y-114407000D01*
X368681000Y-114387000D01*
X367362845Y-114387000D01*
X367241524Y-114616890D01*
X367333648Y-114879858D01*
X367480504Y-115131193D01*
X367673571Y-115349049D01*
X367879722Y-115505538D01*
X367853986Y-115519294D01*
X367627866Y-115704866D01*
X367442294Y-115930986D01*
X367304401Y-116188966D01*
X367219487Y-116468889D01*
X367190815Y-116760000D01*
X361406072Y-116760000D01*
X361406072Y-115990000D01*
X361393812Y-115865518D01*
X361357502Y-115745820D01*
X361298537Y-115635506D01*
X361219185Y-115538815D01*
X361122494Y-115459463D01*
X361012180Y-115400498D01*
X360892482Y-115364188D01*
X360768000Y-115351928D01*
X359068000Y-115351928D01*
X358943518Y-115364188D01*
X358823820Y-115400498D01*
X358713506Y-115459463D01*
X358616815Y-115538815D01*
X358537463Y-115635506D01*
X358478498Y-115745820D01*
X358442188Y-115865518D01*
X358429928Y-115990000D01*
X358429928Y-117690000D01*
X358442188Y-117814482D01*
X358478498Y-117934180D01*
X358537463Y-118044494D01*
X358616815Y-118141185D01*
X358713506Y-118220537D01*
X358823820Y-118279502D01*
X358892687Y-118300393D01*
X358862866Y-118324866D01*
X358677294Y-118550986D01*
X358539401Y-118808966D01*
X358454487Y-119088889D01*
X358425815Y-119380000D01*
X335185378Y-119380000D01*
X336916449Y-117648930D01*
X336950217Y-117621217D01*
X337060811Y-117486459D01*
X337142989Y-117332713D01*
X337193595Y-117165890D01*
X337206400Y-117035877D01*
X337206400Y-117035867D01*
X337210681Y-116992401D01*
X337206400Y-116948935D01*
X337206400Y-112878891D01*
X358476519Y-112878891D01*
X358573843Y-113153252D01*
X358722822Y-113403355D01*
X358917731Y-113619588D01*
X359151080Y-113793641D01*
X359413901Y-113918825D01*
X359561110Y-113963476D01*
X359791000Y-113842155D01*
X359791000Y-112649000D01*
X360045000Y-112649000D01*
X360045000Y-113842155D01*
X360274890Y-113963476D01*
X360422099Y-113918825D01*
X360684920Y-113793641D01*
X360918269Y-113619588D01*
X361113178Y-113403355D01*
X361262157Y-113153252D01*
X361359481Y-112878891D01*
X361238814Y-112649000D01*
X360045000Y-112649000D01*
X359791000Y-112649000D01*
X358597186Y-112649000D01*
X358476519Y-112878891D01*
X337206400Y-112878891D01*
X337206400Y-112781054D01*
X337238605Y-112732856D01*
X337316626Y-112544498D01*
X337356400Y-112344539D01*
X337356400Y-112140661D01*
X337316626Y-111940702D01*
X337238605Y-111752344D01*
X337125337Y-111582826D01*
X336981174Y-111438663D01*
X336811656Y-111325395D01*
X336623298Y-111247374D01*
X336423339Y-111207600D01*
X336219461Y-111207600D01*
X336019502Y-111247374D01*
X335831144Y-111325395D01*
X335661626Y-111438663D01*
X335517463Y-111582826D01*
X335404195Y-111752344D01*
X335326174Y-111940702D01*
X335286400Y-112140661D01*
X335286400Y-112344539D01*
X335326174Y-112544498D01*
X335404195Y-112732856D01*
X335436400Y-112781054D01*
X335436401Y-116625820D01*
X332748957Y-119313265D01*
X332692102Y-119324574D01*
X332503744Y-119402595D01*
X332334226Y-119515863D01*
X332190063Y-119660026D01*
X332076795Y-119829544D01*
X331998774Y-120017902D01*
X331959000Y-120217861D01*
X326228100Y-120217861D01*
X326112252Y-120102013D01*
X325844463Y-119923082D01*
X325546912Y-119799832D01*
X325231033Y-119737000D01*
X324908967Y-119737000D01*
X324593088Y-119799832D01*
X324295537Y-119923082D01*
X324027748Y-120102013D01*
X323800013Y-120329748D01*
X323621082Y-120597537D01*
X323497832Y-120895088D01*
X323435000Y-121210967D01*
X312541590Y-121210967D01*
X312564325Y-121156081D01*
X312631000Y-120820883D01*
X312631000Y-120479117D01*
X312564325Y-120143919D01*
X312433537Y-119828169D01*
X312243663Y-119544002D01*
X312001998Y-119302337D01*
X311717831Y-119112463D01*
X311402081Y-118981675D01*
X311066883Y-118915000D01*
X310725117Y-118915000D01*
X310389919Y-118981675D01*
X310074169Y-119112463D01*
X309790002Y-119302337D01*
X309548337Y-119544002D01*
X309358463Y-119828169D01*
X309227675Y-120143919D01*
X309161000Y-120479117D01*
X305460000Y-120479117D01*
X305460000Y-118710967D01*
X318535000Y-118710967D01*
X318535000Y-119033033D01*
X318597832Y-119348912D01*
X318721082Y-119646463D01*
X318900013Y-119914252D01*
X319127748Y-120141987D01*
X319395537Y-120320918D01*
X319693088Y-120444168D01*
X320008967Y-120507000D01*
X320331033Y-120507000D01*
X320646912Y-120444168D01*
X320944463Y-120320918D01*
X321212252Y-120141987D01*
X321439987Y-119914252D01*
X321618918Y-119646463D01*
X321742168Y-119348912D01*
X321805000Y-119033033D01*
X321805000Y-118710967D01*
X321742168Y-118395088D01*
X321618918Y-118097537D01*
X321439987Y-117829748D01*
X321212252Y-117602013D01*
X320944463Y-117423082D01*
X320646912Y-117299832D01*
X320331033Y-117237000D01*
X320008967Y-117237000D01*
X319693088Y-117299832D01*
X319395537Y-117423082D01*
X319127748Y-117602013D01*
X318900013Y-117829748D01*
X318721082Y-118097537D01*
X318597832Y-118395088D01*
X318535000Y-118710967D01*
X305460000Y-118710967D01*
X305460000Y-115399117D01*
X309161000Y-115399117D01*
X309161000Y-115740883D01*
X309227675Y-116076081D01*
X309358463Y-116391831D01*
X309548337Y-116675998D01*
X309790002Y-116917663D01*
X310074169Y-117107537D01*
X310389919Y-117238325D01*
X310725117Y-117305000D01*
X311066883Y-117305000D01*
X311402081Y-117238325D01*
X311717831Y-117107537D01*
X312001998Y-116917663D01*
X312243663Y-116675998D01*
X312433537Y-116391831D01*
X312564325Y-116076081D01*
X312631000Y-115740883D01*
X312631000Y-115399117D01*
X312564325Y-115063919D01*
X312433537Y-114748169D01*
X312243663Y-114464002D01*
X312001998Y-114222337D01*
X311717831Y-114032463D01*
X311402081Y-113901675D01*
X311066883Y-113835000D01*
X310725117Y-113835000D01*
X310389919Y-113901675D01*
X310074169Y-114032463D01*
X309790002Y-114222337D01*
X309548337Y-114464002D01*
X309358463Y-114748169D01*
X309227675Y-115063919D01*
X309161000Y-115399117D01*
X305460000Y-115399117D01*
X305460000Y-109390000D01*
X309157928Y-109390000D01*
X309157928Y-111590000D01*
X309170188Y-111714482D01*
X309206498Y-111834180D01*
X309265463Y-111944494D01*
X309344815Y-112041185D01*
X309441506Y-112120537D01*
X309551820Y-112179502D01*
X309671518Y-112215812D01*
X309796000Y-112228072D01*
X311996000Y-112228072D01*
X312120482Y-112215812D01*
X312240180Y-112179502D01*
X312350494Y-112120537D01*
X312447185Y-112041185D01*
X312526537Y-111944494D01*
X312585502Y-111834180D01*
X312621812Y-111714482D01*
X312634072Y-111590000D01*
X312634072Y-109390000D01*
X312621812Y-109265518D01*
X312585502Y-109145820D01*
X312526537Y-109035506D01*
X312447185Y-108938815D01*
X312350494Y-108859463D01*
X312240180Y-108800498D01*
X312120482Y-108764188D01*
X311996000Y-108751928D01*
X309796000Y-108751928D01*
X309671518Y-108764188D01*
X309551820Y-108800498D01*
X309441506Y-108859463D01*
X309344815Y-108938815D01*
X309265463Y-109035506D01*
X309206498Y-109145820D01*
X309170188Y-109265518D01*
X309157928Y-109390000D01*
X305460000Y-109390000D01*
X305460000Y-106668000D01*
X318506928Y-106668000D01*
X318506928Y-109868000D01*
X318519188Y-109992482D01*
X318555498Y-110112180D01*
X318614463Y-110222494D01*
X318693815Y-110319185D01*
X318790506Y-110398537D01*
X318900820Y-110457502D01*
X319020518Y-110493812D01*
X319145000Y-110506072D01*
X322345000Y-110506072D01*
X322469482Y-110493812D01*
X322589180Y-110457502D01*
X322699494Y-110398537D01*
X322796185Y-110319185D01*
X322875537Y-110222494D01*
X322934502Y-110112180D01*
X322970812Y-109992482D01*
X322983072Y-109868000D01*
X322983072Y-108949335D01*
X323139369Y-109326669D01*
X323383962Y-109692729D01*
X323695271Y-110004038D01*
X324061331Y-110248631D01*
X324468075Y-110417110D01*
X324899872Y-110503000D01*
X325340128Y-110503000D01*
X325771925Y-110417110D01*
X326178669Y-110248631D01*
X326544729Y-110004038D01*
X326856038Y-109692729D01*
X327100631Y-109326669D01*
X327269110Y-108919925D01*
X327307500Y-108726926D01*
X327345890Y-108919925D01*
X327514369Y-109326669D01*
X327758962Y-109692729D01*
X328070271Y-110004038D01*
X328436331Y-110248631D01*
X328843075Y-110417110D01*
X329274872Y-110503000D01*
X329715128Y-110503000D01*
X330146925Y-110417110D01*
X330553669Y-110248631D01*
X330919729Y-110004038D01*
X331231038Y-109692729D01*
X331475631Y-109326669D01*
X331556265Y-109132000D01*
X358429928Y-109132000D01*
X358429928Y-110832000D01*
X358442188Y-110956482D01*
X358478498Y-111076180D01*
X358537463Y-111186494D01*
X358616815Y-111283185D01*
X358713506Y-111362537D01*
X358823820Y-111421502D01*
X358899626Y-111444498D01*
X358722822Y-111640645D01*
X358573843Y-111890748D01*
X358476519Y-112165109D01*
X358597186Y-112395000D01*
X359791000Y-112395000D01*
X359791000Y-112375000D01*
X360045000Y-112375000D01*
X360045000Y-112395000D01*
X361238814Y-112395000D01*
X361359481Y-112165109D01*
X361262157Y-111890748D01*
X361113178Y-111640645D01*
X360936374Y-111444498D01*
X361012180Y-111421502D01*
X361122494Y-111362537D01*
X361219185Y-111283185D01*
X361298537Y-111186494D01*
X361357502Y-111076180D01*
X361393812Y-110956482D01*
X361406072Y-110832000D01*
X361406072Y-110038363D01*
X365573000Y-110038363D01*
X365573000Y-110281637D01*
X365620460Y-110520236D01*
X365713557Y-110744992D01*
X365848713Y-110947267D01*
X366020733Y-111119287D01*
X366223008Y-111254443D01*
X366447764Y-111347540D01*
X366686363Y-111395000D01*
X366929637Y-111395000D01*
X367168236Y-111347540D01*
X367194928Y-111336484D01*
X367194928Y-112360000D01*
X367211992Y-112533254D01*
X367262528Y-112699850D01*
X367344595Y-112853386D01*
X367455038Y-112987962D01*
X367589614Y-113098405D01*
X367694961Y-113154714D01*
X367673571Y-113170951D01*
X367480504Y-113388807D01*
X367333648Y-113640142D01*
X367241524Y-113903110D01*
X367362845Y-114133000D01*
X368681000Y-114133000D01*
X368681000Y-114113000D01*
X368935000Y-114113000D01*
X368935000Y-114133000D01*
X370253155Y-114133000D01*
X370374476Y-113903110D01*
X370282352Y-113640142D01*
X370135496Y-113388807D01*
X369942429Y-113170951D01*
X369921039Y-113154714D01*
X370026386Y-113098405D01*
X370160962Y-112987962D01*
X370271405Y-112853386D01*
X370353472Y-112699850D01*
X370404008Y-112533254D01*
X370421072Y-112360000D01*
X370421072Y-111160000D01*
X370404008Y-110986746D01*
X370353472Y-110820150D01*
X370271405Y-110666614D01*
X370160962Y-110532038D01*
X370026386Y-110421595D01*
X369872850Y-110339528D01*
X369706254Y-110288992D01*
X369533000Y-110271928D01*
X368083000Y-110271928D01*
X368043000Y-110275868D01*
X368043000Y-110038363D01*
X367995540Y-109799764D01*
X367902443Y-109575008D01*
X367767287Y-109372733D01*
X367595267Y-109200713D01*
X367392992Y-109065557D01*
X367168236Y-108972460D01*
X366929637Y-108925000D01*
X366686363Y-108925000D01*
X366447764Y-108972460D01*
X366223008Y-109065557D01*
X366020733Y-109200713D01*
X365848713Y-109372733D01*
X365713557Y-109575008D01*
X365620460Y-109799764D01*
X365573000Y-110038363D01*
X361406072Y-110038363D01*
X361406072Y-109132000D01*
X361393812Y-109007518D01*
X361357502Y-108887820D01*
X361298537Y-108777506D01*
X361219185Y-108680815D01*
X361122494Y-108601463D01*
X361012180Y-108542498D01*
X360892482Y-108506188D01*
X360768000Y-108493928D01*
X359068000Y-108493928D01*
X358943518Y-108506188D01*
X358823820Y-108542498D01*
X358713506Y-108601463D01*
X358616815Y-108680815D01*
X358537463Y-108777506D01*
X358478498Y-108887820D01*
X358442188Y-109007518D01*
X358429928Y-109132000D01*
X331556265Y-109132000D01*
X331644110Y-108919925D01*
X331730000Y-108488128D01*
X331730000Y-108047872D01*
X331644110Y-107616075D01*
X331475631Y-107209331D01*
X331231038Y-106843271D01*
X330919729Y-106531962D01*
X330553669Y-106287369D01*
X330146925Y-106118890D01*
X329715128Y-106033000D01*
X329274872Y-106033000D01*
X328843075Y-106118890D01*
X328436331Y-106287369D01*
X328070271Y-106531962D01*
X327758962Y-106843271D01*
X327514369Y-107209331D01*
X327345890Y-107616075D01*
X327307500Y-107809074D01*
X327269110Y-107616075D01*
X327100631Y-107209331D01*
X326856038Y-106843271D01*
X326544729Y-106531962D01*
X326178669Y-106287369D01*
X325771925Y-106118890D01*
X325340128Y-106033000D01*
X324899872Y-106033000D01*
X324468075Y-106118890D01*
X324061331Y-106287369D01*
X323695271Y-106531962D01*
X323383962Y-106843271D01*
X323139369Y-107209331D01*
X322983072Y-107586665D01*
X322983072Y-106668000D01*
X322970812Y-106543518D01*
X322934502Y-106423820D01*
X322875537Y-106313506D01*
X322796185Y-106216815D01*
X322699494Y-106137463D01*
X322589180Y-106078498D01*
X322469482Y-106042188D01*
X322345000Y-106029928D01*
X319145000Y-106029928D01*
X319020518Y-106042188D01*
X318900820Y-106078498D01*
X318790506Y-106137463D01*
X318693815Y-106216815D01*
X318614463Y-106313506D01*
X318555498Y-106423820D01*
X318519188Y-106543518D01*
X318506928Y-106668000D01*
X305460000Y-106668000D01*
X305460000Y-104172279D01*
X305498909Y-103775455D01*
X305604780Y-103424792D01*
X305776744Y-103101375D01*
X306008254Y-102817516D01*
X306290486Y-102584035D01*
X306612695Y-102409817D01*
X306962614Y-102301498D01*
X307357443Y-102260000D01*
X370807721Y-102260000D01*
X371204545Y-102298909D01*
X371204545Y-102298909D01*
G37*
X371204545Y-102298909D02*
X371555208Y-102404780D01*
X371878625Y-102576744D01*
X372162484Y-102808254D01*
X372395965Y-103090486D01*
X372570183Y-103412695D01*
X372678502Y-103762614D01*
X372720000Y-104157443D01*
X372720001Y-126967711D01*
X372681091Y-127364545D01*
X372575220Y-127715206D01*
X372403257Y-128038623D01*
X372171748Y-128322482D01*
X371889514Y-128555965D01*
X371567304Y-128730184D01*
X371217385Y-128838502D01*
X370822557Y-128880000D01*
X307372279Y-128880000D01*
X306975455Y-128841091D01*
X306624794Y-128735220D01*
X306301377Y-128563257D01*
X306017518Y-128331748D01*
X305784035Y-128049514D01*
X305609816Y-127727304D01*
X305501498Y-127377385D01*
X305460000Y-126982557D01*
X305460000Y-123710967D01*
X318535000Y-123710967D01*
X318535000Y-124033033D01*
X318597832Y-124348912D01*
X318721082Y-124646463D01*
X318900013Y-124914252D01*
X319127748Y-125141987D01*
X319395537Y-125320918D01*
X319693088Y-125444168D01*
X320008967Y-125507000D01*
X320331033Y-125507000D01*
X320646912Y-125444168D01*
X320944463Y-125320918D01*
X321212252Y-125141987D01*
X321439987Y-124914252D01*
X321618918Y-124646463D01*
X321742168Y-124348912D01*
X321805000Y-124033033D01*
X321805000Y-123710967D01*
X321742168Y-123395088D01*
X321618918Y-123097537D01*
X321439987Y-122829748D01*
X321212252Y-122602013D01*
X320944463Y-122423082D01*
X320646912Y-122299832D01*
X320331033Y-122237000D01*
X320008967Y-122237000D01*
X319693088Y-122299832D01*
X319395537Y-122423082D01*
X319127748Y-122602013D01*
X318900013Y-122829748D01*
X318721082Y-123097537D01*
X318597832Y-123395088D01*
X318535000Y-123710967D01*
X305460000Y-123710967D01*
X305460000Y-120479117D01*
X309161000Y-120479117D01*
X309161000Y-120820883D01*
X309227675Y-121156081D01*
X309358463Y-121471831D01*
X309548337Y-121755998D01*
X309790002Y-121997663D01*
X310074169Y-122187537D01*
X310389919Y-122318325D01*
X310725117Y-122385000D01*
X311066883Y-122385000D01*
X311402081Y-122318325D01*
X311717831Y-122187537D01*
X312001998Y-121997663D01*
X312243663Y-121755998D01*
X312433537Y-121471831D01*
X312541590Y-121210967D01*
X323435000Y-121210967D01*
X323435000Y-121533033D01*
X323497832Y-121848912D01*
X323621082Y-122146463D01*
X323800013Y-122414252D01*
X324027748Y-122641987D01*
X324295537Y-122820918D01*
X324593088Y-122944168D01*
X324908967Y-123007000D01*
X325231033Y-123007000D01*
X325546912Y-122944168D01*
X325844463Y-122820918D01*
X326112252Y-122641987D01*
X326339987Y-122414252D01*
X326398914Y-122326061D01*
X329419000Y-122326061D01*
X329419000Y-122529939D01*
X329458774Y-122729898D01*
X329536795Y-122918256D01*
X329650063Y-123087774D01*
X329694000Y-123131711D01*
X329694001Y-126296288D01*
X329650063Y-126340226D01*
X329536795Y-126509744D01*
X329458774Y-126698102D01*
X329419000Y-126898061D01*
X329419000Y-127101939D01*
X329458774Y-127301898D01*
X329536795Y-127490256D01*
X329650063Y-127659774D01*
X329794226Y-127803937D01*
X329963744Y-127917205D01*
X330152102Y-127995226D01*
X330352061Y-128035000D01*
X330555939Y-128035000D01*
X330755898Y-127995226D01*
X330944256Y-127917205D01*
X331113774Y-127803937D01*
X331257937Y-127659774D01*
X331371205Y-127490256D01*
X331449226Y-127301898D01*
X331489000Y-127101939D01*
X331489000Y-126898061D01*
X331449226Y-126698102D01*
X331371205Y-126509744D01*
X331257937Y-126340226D01*
X331214000Y-126296289D01*
X331214000Y-123131711D01*
X331257937Y-123087774D01*
X331371205Y-122918256D01*
X331449226Y-122729898D01*
X331489000Y-122529939D01*
X331489000Y-122326061D01*
X331449226Y-122126102D01*
X331371205Y-121937744D01*
X331257937Y-121768226D01*
X331113774Y-121624063D01*
X330944256Y-121510795D01*
X330755898Y-121432774D01*
X330555939Y-121393000D01*
X330352061Y-121393000D01*
X330152102Y-121432774D01*
X329963744Y-121510795D01*
X329794226Y-121624063D01*
X329650063Y-121768226D01*
X329536795Y-121937744D01*
X329458774Y-122126102D01*
X329419000Y-122326061D01*
X326398914Y-122326061D01*
X326518918Y-122146463D01*
X326642168Y-121848912D01*
X326705000Y-121533033D01*
X326705000Y-121210967D01*
X326642168Y-120895088D01*
X326518918Y-120597537D01*
X326339987Y-120329748D01*
X326228100Y-120217861D01*
X331959000Y-120217861D01*
X331959000Y-120421739D01*
X331998774Y-120621698D01*
X332076795Y-120810056D01*
X332190063Y-120979574D01*
X332334226Y-121123737D01*
X332503744Y-121237005D01*
X332692102Y-121315026D01*
X332892061Y-121354800D01*
X333095939Y-121354800D01*
X333295898Y-121315026D01*
X333484256Y-121237005D01*
X333653774Y-121123737D01*
X333797937Y-120979574D01*
X333911205Y-120810056D01*
X333989226Y-120621698D01*
X334000535Y-120564843D01*
X335185378Y-119380000D01*
X358425815Y-119380000D01*
X358454487Y-119671111D01*
X358539401Y-119951034D01*
X358677294Y-120209014D01*
X358862866Y-120435134D01*
X359088986Y-120620706D01*
X359346966Y-120758599D01*
X359626889Y-120843513D01*
X359845050Y-120865000D01*
X359990950Y-120865000D01*
X360209111Y-120843513D01*
X360489034Y-120758599D01*
X360747014Y-120620706D01*
X360973134Y-120435134D01*
X361158706Y-120209014D01*
X361296599Y-119951034D01*
X361381513Y-119671111D01*
X361410185Y-119380000D01*
X361381513Y-119088889D01*
X361296599Y-118808966D01*
X361158706Y-118550986D01*
X360973134Y-118324866D01*
X360943313Y-118300393D01*
X361012180Y-118279502D01*
X361122494Y-118220537D01*
X361219185Y-118141185D01*
X361298537Y-118044494D01*
X361357502Y-117934180D01*
X361393812Y-117814482D01*
X361406072Y-117690000D01*
X361406072Y-116760000D01*
X367190815Y-116760000D01*
X367219487Y-117051111D01*
X367304401Y-117331034D01*
X367442294Y-117589014D01*
X367627866Y-117815134D01*
X367853986Y-118000706D01*
X367871374Y-118010000D01*
X367853986Y-118019294D01*
X367627866Y-118204866D01*
X367442294Y-118430986D01*
X367304401Y-118688966D01*
X367219487Y-118968889D01*
X367190815Y-119260000D01*
X367219487Y-119551111D01*
X367304401Y-119831034D01*
X367442294Y-120089014D01*
X367627866Y-120315134D01*
X367853986Y-120500706D01*
X368111966Y-120638599D01*
X368391889Y-120723513D01*
X368610050Y-120745000D01*
X369005950Y-120745000D01*
X369224111Y-120723513D01*
X369504034Y-120638599D01*
X369762014Y-120500706D01*
X369988134Y-120315134D01*
X370173706Y-120089014D01*
X370311599Y-119831034D01*
X370396513Y-119551111D01*
X370425185Y-119260000D01*
X370396513Y-118968889D01*
X370311599Y-118688966D01*
X370173706Y-118430986D01*
X369988134Y-118204866D01*
X369762014Y-118019294D01*
X369744626Y-118010000D01*
X369762014Y-118000706D01*
X369988134Y-117815134D01*
X370173706Y-117589014D01*
X370311599Y-117331034D01*
X370396513Y-117051111D01*
X370425185Y-116760000D01*
X370396513Y-116468889D01*
X370311599Y-116188966D01*
X370173706Y-115930986D01*
X369988134Y-115704866D01*
X369762014Y-115519294D01*
X369736278Y-115505538D01*
X369942429Y-115349049D01*
X370135496Y-115131193D01*
X370282352Y-114879858D01*
X370374476Y-114616890D01*
X370253155Y-114387000D01*
X368935000Y-114387000D01*
X368935000Y-114407000D01*
X368681000Y-114407000D01*
X368681000Y-114387000D01*
X367362845Y-114387000D01*
X367241524Y-114616890D01*
X367333648Y-114879858D01*
X367480504Y-115131193D01*
X367673571Y-115349049D01*
X367879722Y-115505538D01*
X367853986Y-115519294D01*
X367627866Y-115704866D01*
X367442294Y-115930986D01*
X367304401Y-116188966D01*
X367219487Y-116468889D01*
X367190815Y-116760000D01*
X361406072Y-116760000D01*
X361406072Y-115990000D01*
X361393812Y-115865518D01*
X361357502Y-115745820D01*
X361298537Y-115635506D01*
X361219185Y-115538815D01*
X361122494Y-115459463D01*
X361012180Y-115400498D01*
X360892482Y-115364188D01*
X360768000Y-115351928D01*
X359068000Y-115351928D01*
X358943518Y-115364188D01*
X358823820Y-115400498D01*
X358713506Y-115459463D01*
X358616815Y-115538815D01*
X358537463Y-115635506D01*
X358478498Y-115745820D01*
X358442188Y-115865518D01*
X358429928Y-115990000D01*
X358429928Y-117690000D01*
X358442188Y-117814482D01*
X358478498Y-117934180D01*
X358537463Y-118044494D01*
X358616815Y-118141185D01*
X358713506Y-118220537D01*
X358823820Y-118279502D01*
X358892687Y-118300393D01*
X358862866Y-118324866D01*
X358677294Y-118550986D01*
X358539401Y-118808966D01*
X358454487Y-119088889D01*
X358425815Y-119380000D01*
X335185378Y-119380000D01*
X336916449Y-117648930D01*
X336950217Y-117621217D01*
X337060811Y-117486459D01*
X337142989Y-117332713D01*
X337193595Y-117165890D01*
X337206400Y-117035877D01*
X337206400Y-117035867D01*
X337210681Y-116992401D01*
X337206400Y-116948935D01*
X337206400Y-112878891D01*
X358476519Y-112878891D01*
X358573843Y-113153252D01*
X358722822Y-113403355D01*
X358917731Y-113619588D01*
X359151080Y-113793641D01*
X359413901Y-113918825D01*
X359561110Y-113963476D01*
X359791000Y-113842155D01*
X359791000Y-112649000D01*
X360045000Y-112649000D01*
X360045000Y-113842155D01*
X360274890Y-113963476D01*
X360422099Y-113918825D01*
X360684920Y-113793641D01*
X360918269Y-113619588D01*
X361113178Y-113403355D01*
X361262157Y-113153252D01*
X361359481Y-112878891D01*
X361238814Y-112649000D01*
X360045000Y-112649000D01*
X359791000Y-112649000D01*
X358597186Y-112649000D01*
X358476519Y-112878891D01*
X337206400Y-112878891D01*
X337206400Y-112781054D01*
X337238605Y-112732856D01*
X337316626Y-112544498D01*
X337356400Y-112344539D01*
X337356400Y-112140661D01*
X337316626Y-111940702D01*
X337238605Y-111752344D01*
X337125337Y-111582826D01*
X336981174Y-111438663D01*
X336811656Y-111325395D01*
X336623298Y-111247374D01*
X336423339Y-111207600D01*
X336219461Y-111207600D01*
X336019502Y-111247374D01*
X335831144Y-111325395D01*
X335661626Y-111438663D01*
X335517463Y-111582826D01*
X335404195Y-111752344D01*
X335326174Y-111940702D01*
X335286400Y-112140661D01*
X335286400Y-112344539D01*
X335326174Y-112544498D01*
X335404195Y-112732856D01*
X335436400Y-112781054D01*
X335436401Y-116625820D01*
X332748957Y-119313265D01*
X332692102Y-119324574D01*
X332503744Y-119402595D01*
X332334226Y-119515863D01*
X332190063Y-119660026D01*
X332076795Y-119829544D01*
X331998774Y-120017902D01*
X331959000Y-120217861D01*
X326228100Y-120217861D01*
X326112252Y-120102013D01*
X325844463Y-119923082D01*
X325546912Y-119799832D01*
X325231033Y-119737000D01*
X324908967Y-119737000D01*
X324593088Y-119799832D01*
X324295537Y-119923082D01*
X324027748Y-120102013D01*
X323800013Y-120329748D01*
X323621082Y-120597537D01*
X323497832Y-120895088D01*
X323435000Y-121210967D01*
X312541590Y-121210967D01*
X312564325Y-121156081D01*
X312631000Y-120820883D01*
X312631000Y-120479117D01*
X312564325Y-120143919D01*
X312433537Y-119828169D01*
X312243663Y-119544002D01*
X312001998Y-119302337D01*
X311717831Y-119112463D01*
X311402081Y-118981675D01*
X311066883Y-118915000D01*
X310725117Y-118915000D01*
X310389919Y-118981675D01*
X310074169Y-119112463D01*
X309790002Y-119302337D01*
X309548337Y-119544002D01*
X309358463Y-119828169D01*
X309227675Y-120143919D01*
X309161000Y-120479117D01*
X305460000Y-120479117D01*
X305460000Y-118710967D01*
X318535000Y-118710967D01*
X318535000Y-119033033D01*
X318597832Y-119348912D01*
X318721082Y-119646463D01*
X318900013Y-119914252D01*
X319127748Y-120141987D01*
X319395537Y-120320918D01*
X319693088Y-120444168D01*
X320008967Y-120507000D01*
X320331033Y-120507000D01*
X320646912Y-120444168D01*
X320944463Y-120320918D01*
X321212252Y-120141987D01*
X321439987Y-119914252D01*
X321618918Y-119646463D01*
X321742168Y-119348912D01*
X321805000Y-119033033D01*
X321805000Y-118710967D01*
X321742168Y-118395088D01*
X321618918Y-118097537D01*
X321439987Y-117829748D01*
X321212252Y-117602013D01*
X320944463Y-117423082D01*
X320646912Y-117299832D01*
X320331033Y-117237000D01*
X320008967Y-117237000D01*
X319693088Y-117299832D01*
X319395537Y-117423082D01*
X319127748Y-117602013D01*
X318900013Y-117829748D01*
X318721082Y-118097537D01*
X318597832Y-118395088D01*
X318535000Y-118710967D01*
X305460000Y-118710967D01*
X305460000Y-115399117D01*
X309161000Y-115399117D01*
X309161000Y-115740883D01*
X309227675Y-116076081D01*
X309358463Y-116391831D01*
X309548337Y-116675998D01*
X309790002Y-116917663D01*
X310074169Y-117107537D01*
X310389919Y-117238325D01*
X310725117Y-117305000D01*
X311066883Y-117305000D01*
X311402081Y-117238325D01*
X311717831Y-117107537D01*
X312001998Y-116917663D01*
X312243663Y-116675998D01*
X312433537Y-116391831D01*
X312564325Y-116076081D01*
X312631000Y-115740883D01*
X312631000Y-115399117D01*
X312564325Y-115063919D01*
X312433537Y-114748169D01*
X312243663Y-114464002D01*
X312001998Y-114222337D01*
X311717831Y-114032463D01*
X311402081Y-113901675D01*
X311066883Y-113835000D01*
X310725117Y-113835000D01*
X310389919Y-113901675D01*
X310074169Y-114032463D01*
X309790002Y-114222337D01*
X309548337Y-114464002D01*
X309358463Y-114748169D01*
X309227675Y-115063919D01*
X309161000Y-115399117D01*
X305460000Y-115399117D01*
X305460000Y-109390000D01*
X309157928Y-109390000D01*
X309157928Y-111590000D01*
X309170188Y-111714482D01*
X309206498Y-111834180D01*
X309265463Y-111944494D01*
X309344815Y-112041185D01*
X309441506Y-112120537D01*
X309551820Y-112179502D01*
X309671518Y-112215812D01*
X309796000Y-112228072D01*
X311996000Y-112228072D01*
X312120482Y-112215812D01*
X312240180Y-112179502D01*
X312350494Y-112120537D01*
X312447185Y-112041185D01*
X312526537Y-111944494D01*
X312585502Y-111834180D01*
X312621812Y-111714482D01*
X312634072Y-111590000D01*
X312634072Y-109390000D01*
X312621812Y-109265518D01*
X312585502Y-109145820D01*
X312526537Y-109035506D01*
X312447185Y-108938815D01*
X312350494Y-108859463D01*
X312240180Y-108800498D01*
X312120482Y-108764188D01*
X311996000Y-108751928D01*
X309796000Y-108751928D01*
X309671518Y-108764188D01*
X309551820Y-108800498D01*
X309441506Y-108859463D01*
X309344815Y-108938815D01*
X309265463Y-109035506D01*
X309206498Y-109145820D01*
X309170188Y-109265518D01*
X309157928Y-109390000D01*
X305460000Y-109390000D01*
X305460000Y-106668000D01*
X318506928Y-106668000D01*
X318506928Y-109868000D01*
X318519188Y-109992482D01*
X318555498Y-110112180D01*
X318614463Y-110222494D01*
X318693815Y-110319185D01*
X318790506Y-110398537D01*
X318900820Y-110457502D01*
X319020518Y-110493812D01*
X319145000Y-110506072D01*
X322345000Y-110506072D01*
X322469482Y-110493812D01*
X322589180Y-110457502D01*
X322699494Y-110398537D01*
X322796185Y-110319185D01*
X322875537Y-110222494D01*
X322934502Y-110112180D01*
X322970812Y-109992482D01*
X322983072Y-109868000D01*
X322983072Y-108949335D01*
X323139369Y-109326669D01*
X323383962Y-109692729D01*
X323695271Y-110004038D01*
X324061331Y-110248631D01*
X324468075Y-110417110D01*
X324899872Y-110503000D01*
X325340128Y-110503000D01*
X325771925Y-110417110D01*
X326178669Y-110248631D01*
X326544729Y-110004038D01*
X326856038Y-109692729D01*
X327100631Y-109326669D01*
X327269110Y-108919925D01*
X327307500Y-108726926D01*
X327345890Y-108919925D01*
X327514369Y-109326669D01*
X327758962Y-109692729D01*
X328070271Y-110004038D01*
X328436331Y-110248631D01*
X328843075Y-110417110D01*
X329274872Y-110503000D01*
X329715128Y-110503000D01*
X330146925Y-110417110D01*
X330553669Y-110248631D01*
X330919729Y-110004038D01*
X331231038Y-109692729D01*
X331475631Y-109326669D01*
X331556265Y-109132000D01*
X358429928Y-109132000D01*
X358429928Y-110832000D01*
X358442188Y-110956482D01*
X358478498Y-111076180D01*
X358537463Y-111186494D01*
X358616815Y-111283185D01*
X358713506Y-111362537D01*
X358823820Y-111421502D01*
X358899626Y-111444498D01*
X358722822Y-111640645D01*
X358573843Y-111890748D01*
X358476519Y-112165109D01*
X358597186Y-112395000D01*
X359791000Y-112395000D01*
X359791000Y-112375000D01*
X360045000Y-112375000D01*
X360045000Y-112395000D01*
X361238814Y-112395000D01*
X361359481Y-112165109D01*
X361262157Y-111890748D01*
X361113178Y-111640645D01*
X360936374Y-111444498D01*
X361012180Y-111421502D01*
X361122494Y-111362537D01*
X361219185Y-111283185D01*
X361298537Y-111186494D01*
X361357502Y-111076180D01*
X361393812Y-110956482D01*
X361406072Y-110832000D01*
X361406072Y-110038363D01*
X365573000Y-110038363D01*
X365573000Y-110281637D01*
X365620460Y-110520236D01*
X365713557Y-110744992D01*
X365848713Y-110947267D01*
X366020733Y-111119287D01*
X366223008Y-111254443D01*
X366447764Y-111347540D01*
X366686363Y-111395000D01*
X366929637Y-111395000D01*
X367168236Y-111347540D01*
X367194928Y-111336484D01*
X367194928Y-112360000D01*
X367211992Y-112533254D01*
X367262528Y-112699850D01*
X367344595Y-112853386D01*
X367455038Y-112987962D01*
X367589614Y-113098405D01*
X367694961Y-113154714D01*
X367673571Y-113170951D01*
X367480504Y-113388807D01*
X367333648Y-113640142D01*
X367241524Y-113903110D01*
X367362845Y-114133000D01*
X368681000Y-114133000D01*
X368681000Y-114113000D01*
X368935000Y-114113000D01*
X368935000Y-114133000D01*
X370253155Y-114133000D01*
X370374476Y-113903110D01*
X370282352Y-113640142D01*
X370135496Y-113388807D01*
X369942429Y-113170951D01*
X369921039Y-113154714D01*
X370026386Y-113098405D01*
X370160962Y-112987962D01*
X370271405Y-112853386D01*
X370353472Y-112699850D01*
X370404008Y-112533254D01*
X370421072Y-112360000D01*
X370421072Y-111160000D01*
X370404008Y-110986746D01*
X370353472Y-110820150D01*
X370271405Y-110666614D01*
X370160962Y-110532038D01*
X370026386Y-110421595D01*
X369872850Y-110339528D01*
X369706254Y-110288992D01*
X369533000Y-110271928D01*
X368083000Y-110271928D01*
X368043000Y-110275868D01*
X368043000Y-110038363D01*
X367995540Y-109799764D01*
X367902443Y-109575008D01*
X367767287Y-109372733D01*
X367595267Y-109200713D01*
X367392992Y-109065557D01*
X367168236Y-108972460D01*
X366929637Y-108925000D01*
X366686363Y-108925000D01*
X366447764Y-108972460D01*
X366223008Y-109065557D01*
X366020733Y-109200713D01*
X365848713Y-109372733D01*
X365713557Y-109575008D01*
X365620460Y-109799764D01*
X365573000Y-110038363D01*
X361406072Y-110038363D01*
X361406072Y-109132000D01*
X361393812Y-109007518D01*
X361357502Y-108887820D01*
X361298537Y-108777506D01*
X361219185Y-108680815D01*
X361122494Y-108601463D01*
X361012180Y-108542498D01*
X360892482Y-108506188D01*
X360768000Y-108493928D01*
X359068000Y-108493928D01*
X358943518Y-108506188D01*
X358823820Y-108542498D01*
X358713506Y-108601463D01*
X358616815Y-108680815D01*
X358537463Y-108777506D01*
X358478498Y-108887820D01*
X358442188Y-109007518D01*
X358429928Y-109132000D01*
X331556265Y-109132000D01*
X331644110Y-108919925D01*
X331730000Y-108488128D01*
X331730000Y-108047872D01*
X331644110Y-107616075D01*
X331475631Y-107209331D01*
X331231038Y-106843271D01*
X330919729Y-106531962D01*
X330553669Y-106287369D01*
X330146925Y-106118890D01*
X329715128Y-106033000D01*
X329274872Y-106033000D01*
X328843075Y-106118890D01*
X328436331Y-106287369D01*
X328070271Y-106531962D01*
X327758962Y-106843271D01*
X327514369Y-107209331D01*
X327345890Y-107616075D01*
X327307500Y-107809074D01*
X327269110Y-107616075D01*
X327100631Y-107209331D01*
X326856038Y-106843271D01*
X326544729Y-106531962D01*
X326178669Y-106287369D01*
X325771925Y-106118890D01*
X325340128Y-106033000D01*
X324899872Y-106033000D01*
X324468075Y-106118890D01*
X324061331Y-106287369D01*
X323695271Y-106531962D01*
X323383962Y-106843271D01*
X323139369Y-107209331D01*
X322983072Y-107586665D01*
X322983072Y-106668000D01*
X322970812Y-106543518D01*
X322934502Y-106423820D01*
X322875537Y-106313506D01*
X322796185Y-106216815D01*
X322699494Y-106137463D01*
X322589180Y-106078498D01*
X322469482Y-106042188D01*
X322345000Y-106029928D01*
X319145000Y-106029928D01*
X319020518Y-106042188D01*
X318900820Y-106078498D01*
X318790506Y-106137463D01*
X318693815Y-106216815D01*
X318614463Y-106313506D01*
X318555498Y-106423820D01*
X318519188Y-106543518D01*
X318506928Y-106668000D01*
X305460000Y-106668000D01*
X305460000Y-104172279D01*
X305498909Y-103775455D01*
X305604780Y-103424792D01*
X305776744Y-103101375D01*
X306008254Y-102817516D01*
X306290486Y-102584035D01*
X306612695Y-102409817D01*
X306962614Y-102301498D01*
X307357443Y-102260000D01*
X370807721Y-102260000D01*
X371204545Y-102298909D01*
M02*
