G04 #@! TF.GenerationSoftware,KiCad,Pcbnew,(5.1.4)-1*
G04 #@! TF.CreationDate,2019-11-02T17:27:44+00:00*
G04 #@! TF.ProjectId,timer-board,74696d65-722d-4626-9f61-72642e6b6963,rev?*
G04 #@! TF.SameCoordinates,Original*
G04 #@! TF.FileFunction,Soldermask,Top*
G04 #@! TF.FilePolarity,Negative*
%FSLAX46Y46*%
G04 Gerber Fmt 4.6, Leading zero omitted, Abs format (unit mm)*
G04 Created by KiCad (PCBNEW (5.1.4)-1) date 2019-11-02 17:27:44*
%MOMM*%
%LPD*%
G04 APERTURE LIST*
%ADD10C,0.100000*%
G04 APERTURE END LIST*
D10*
G36*
X320476564Y-122861389D02*
G01*
X320667833Y-122940615D01*
X320667835Y-122940616D01*
X320839973Y-123055635D01*
X320986365Y-123202027D01*
X321101385Y-123374167D01*
X321180611Y-123565436D01*
X321221000Y-123768484D01*
X321221000Y-123975516D01*
X321180611Y-124178564D01*
X321124006Y-124315220D01*
X321101384Y-124369835D01*
X320986365Y-124541973D01*
X320839973Y-124688365D01*
X320667835Y-124803384D01*
X320667834Y-124803385D01*
X320667833Y-124803385D01*
X320476564Y-124882611D01*
X320273516Y-124923000D01*
X320066484Y-124923000D01*
X319863436Y-124882611D01*
X319672167Y-124803385D01*
X319672166Y-124803385D01*
X319672165Y-124803384D01*
X319500027Y-124688365D01*
X319353635Y-124541973D01*
X319238616Y-124369835D01*
X319215994Y-124315220D01*
X319159389Y-124178564D01*
X319119000Y-123975516D01*
X319119000Y-123768484D01*
X319159389Y-123565436D01*
X319238615Y-123374167D01*
X319353635Y-123202027D01*
X319500027Y-123055635D01*
X319672165Y-122940616D01*
X319672167Y-122940615D01*
X319863436Y-122861389D01*
X320066484Y-122821000D01*
X320273516Y-122821000D01*
X320476564Y-122861389D01*
X320476564Y-122861389D01*
G37*
G36*
X333373591Y-123493085D02*
G01*
X333407569Y-123503393D01*
X333438890Y-123520134D01*
X333466339Y-123542661D01*
X333488866Y-123570110D01*
X333505607Y-123601431D01*
X333515915Y-123635409D01*
X333520000Y-123676890D01*
X333520000Y-124278110D01*
X333515915Y-124319591D01*
X333505607Y-124353569D01*
X333488866Y-124384890D01*
X333466339Y-124412339D01*
X333438890Y-124434866D01*
X333407569Y-124451607D01*
X333373591Y-124461915D01*
X333332110Y-124466000D01*
X332655890Y-124466000D01*
X332614409Y-124461915D01*
X332580431Y-124451607D01*
X332549110Y-124434866D01*
X332521661Y-124412339D01*
X332499134Y-124384890D01*
X332482393Y-124353569D01*
X332472085Y-124319591D01*
X332468000Y-124278110D01*
X332468000Y-123676890D01*
X332472085Y-123635409D01*
X332482393Y-123601431D01*
X332499134Y-123570110D01*
X332521661Y-123542661D01*
X332549110Y-123520134D01*
X332580431Y-123503393D01*
X332614409Y-123493085D01*
X332655890Y-123489000D01*
X333332110Y-123489000D01*
X333373591Y-123493085D01*
X333373591Y-123493085D01*
G37*
G36*
X329309591Y-122985085D02*
G01*
X329343569Y-122995393D01*
X329374890Y-123012134D01*
X329402339Y-123034661D01*
X329424866Y-123062110D01*
X329441607Y-123093431D01*
X329451915Y-123127409D01*
X329456000Y-123168890D01*
X329456000Y-123770110D01*
X329451915Y-123811591D01*
X329441607Y-123845569D01*
X329424866Y-123876890D01*
X329402339Y-123904339D01*
X329374890Y-123926866D01*
X329343569Y-123943607D01*
X329309591Y-123953915D01*
X329268110Y-123958000D01*
X328591890Y-123958000D01*
X328550409Y-123953915D01*
X328516431Y-123943607D01*
X328485110Y-123926866D01*
X328457661Y-123904339D01*
X328435134Y-123876890D01*
X328418393Y-123845569D01*
X328408085Y-123811591D01*
X328404000Y-123770110D01*
X328404000Y-123168890D01*
X328408085Y-123127409D01*
X328418393Y-123093431D01*
X328435134Y-123062110D01*
X328457661Y-123034661D01*
X328485110Y-123012134D01*
X328516431Y-122995393D01*
X328550409Y-122985085D01*
X328591890Y-122981000D01*
X329268110Y-122981000D01*
X329309591Y-122985085D01*
X329309591Y-122985085D01*
G37*
G36*
X344767100Y-123355800D02*
G01*
X342607700Y-123355800D01*
X342607700Y-122644200D01*
X344767100Y-122644200D01*
X344767100Y-123355800D01*
X344767100Y-123355800D01*
G37*
G36*
X349567700Y-123355800D02*
G01*
X347408300Y-123355800D01*
X347408300Y-122644200D01*
X349567700Y-122644200D01*
X349567700Y-123355800D01*
X349567700Y-123355800D01*
G37*
G36*
X333373591Y-121918085D02*
G01*
X333407569Y-121928393D01*
X333438890Y-121945134D01*
X333466339Y-121967661D01*
X333488866Y-121995110D01*
X333505607Y-122026431D01*
X333515915Y-122060409D01*
X333520000Y-122101890D01*
X333520000Y-122703110D01*
X333515915Y-122744591D01*
X333505607Y-122778569D01*
X333488866Y-122809890D01*
X333466339Y-122837339D01*
X333438890Y-122859866D01*
X333407569Y-122876607D01*
X333373591Y-122886915D01*
X333332110Y-122891000D01*
X332655890Y-122891000D01*
X332614409Y-122886915D01*
X332580431Y-122876607D01*
X332549110Y-122859866D01*
X332521661Y-122837339D01*
X332499134Y-122809890D01*
X332482393Y-122778569D01*
X332472085Y-122744591D01*
X332468000Y-122703110D01*
X332468000Y-122101890D01*
X332472085Y-122060409D01*
X332482393Y-122026431D01*
X332499134Y-121995110D01*
X332521661Y-121967661D01*
X332549110Y-121945134D01*
X332580431Y-121928393D01*
X332614409Y-121918085D01*
X332655890Y-121914000D01*
X333332110Y-121914000D01*
X333373591Y-121918085D01*
X333373591Y-121918085D01*
G37*
G36*
X325376564Y-120361389D02*
G01*
X325567833Y-120440615D01*
X325567835Y-120440616D01*
X325711539Y-120536636D01*
X325739973Y-120555635D01*
X325886365Y-120702027D01*
X326001385Y-120874167D01*
X326080611Y-121065436D01*
X326121000Y-121268484D01*
X326121000Y-121475516D01*
X326080611Y-121678564D01*
X326048218Y-121756768D01*
X326001384Y-121869835D01*
X325886365Y-122041973D01*
X325739973Y-122188365D01*
X325567835Y-122303384D01*
X325567834Y-122303385D01*
X325567833Y-122303385D01*
X325376564Y-122382611D01*
X325173516Y-122423000D01*
X324966484Y-122423000D01*
X324763436Y-122382611D01*
X324572167Y-122303385D01*
X324572166Y-122303385D01*
X324572165Y-122303384D01*
X324400027Y-122188365D01*
X324253635Y-122041973D01*
X324138616Y-121869835D01*
X324091782Y-121756768D01*
X324059389Y-121678564D01*
X324019000Y-121475516D01*
X324019000Y-121268484D01*
X324059389Y-121065436D01*
X324138615Y-120874167D01*
X324253635Y-120702027D01*
X324400027Y-120555635D01*
X324428461Y-120536636D01*
X324572165Y-120440616D01*
X324572167Y-120440615D01*
X324763436Y-120361389D01*
X324966484Y-120321000D01*
X325173516Y-120321000D01*
X325376564Y-120361389D01*
X325376564Y-120361389D01*
G37*
G36*
X329309591Y-121410085D02*
G01*
X329343569Y-121420393D01*
X329374890Y-121437134D01*
X329402339Y-121459661D01*
X329424866Y-121487110D01*
X329441607Y-121518431D01*
X329451915Y-121552409D01*
X329456000Y-121593890D01*
X329456000Y-122195110D01*
X329451915Y-122236591D01*
X329441607Y-122270569D01*
X329424866Y-122301890D01*
X329402339Y-122329339D01*
X329374890Y-122351866D01*
X329343569Y-122368607D01*
X329309591Y-122378915D01*
X329268110Y-122383000D01*
X328591890Y-122383000D01*
X328550409Y-122378915D01*
X328516431Y-122368607D01*
X328485110Y-122351866D01*
X328457661Y-122329339D01*
X328435134Y-122301890D01*
X328418393Y-122270569D01*
X328408085Y-122236591D01*
X328404000Y-122195110D01*
X328404000Y-121593890D01*
X328408085Y-121552409D01*
X328418393Y-121518431D01*
X328435134Y-121487110D01*
X328457661Y-121459661D01*
X328485110Y-121437134D01*
X328516431Y-121420393D01*
X328550409Y-121410085D01*
X328591890Y-121406000D01*
X329268110Y-121406000D01*
X329309591Y-121410085D01*
X329309591Y-121410085D01*
G37*
G36*
X349567700Y-122085800D02*
G01*
X347408300Y-122085800D01*
X347408300Y-121374200D01*
X349567700Y-121374200D01*
X349567700Y-122085800D01*
X349567700Y-122085800D01*
G37*
G36*
X344767100Y-122085800D02*
G01*
X342607700Y-122085800D01*
X342607700Y-121374200D01*
X344767100Y-121374200D01*
X344767100Y-122085800D01*
X344767100Y-122085800D01*
G37*
G36*
X311120549Y-119521116D02*
G01*
X311231734Y-119543232D01*
X311441203Y-119629997D01*
X311629720Y-119755960D01*
X311790040Y-119916280D01*
X311916003Y-120104797D01*
X312002768Y-120314266D01*
X312017452Y-120388090D01*
X312027901Y-120440616D01*
X312047000Y-120536636D01*
X312047000Y-120763364D01*
X312002768Y-120985734D01*
X311916003Y-121195203D01*
X311790040Y-121383720D01*
X311629720Y-121544040D01*
X311441203Y-121670003D01*
X311231734Y-121756768D01*
X311120549Y-121778884D01*
X311009365Y-121801000D01*
X310782635Y-121801000D01*
X310671451Y-121778884D01*
X310560266Y-121756768D01*
X310350797Y-121670003D01*
X310162280Y-121544040D01*
X310001960Y-121383720D01*
X309875997Y-121195203D01*
X309789232Y-120985734D01*
X309745000Y-120763364D01*
X309745000Y-120536636D01*
X309764100Y-120440616D01*
X309774548Y-120388090D01*
X309789232Y-120314266D01*
X309875997Y-120104797D01*
X310001960Y-119916280D01*
X310162280Y-119755960D01*
X310350797Y-119629997D01*
X310560266Y-119543232D01*
X310671451Y-119521116D01*
X310782635Y-119499000D01*
X311009365Y-119499000D01*
X311120549Y-119521116D01*
X311120549Y-119521116D01*
G37*
G36*
X335088591Y-120204285D02*
G01*
X335122569Y-120214593D01*
X335153890Y-120231334D01*
X335181339Y-120253861D01*
X335203866Y-120281310D01*
X335220607Y-120312631D01*
X335230915Y-120346609D01*
X335235000Y-120388090D01*
X335235000Y-121064310D01*
X335230915Y-121105791D01*
X335220607Y-121139769D01*
X335203866Y-121171090D01*
X335181339Y-121198539D01*
X335153890Y-121221066D01*
X335122569Y-121237807D01*
X335088591Y-121248115D01*
X335047110Y-121252200D01*
X334445890Y-121252200D01*
X334404409Y-121248115D01*
X334370431Y-121237807D01*
X334339110Y-121221066D01*
X334311661Y-121198539D01*
X334289134Y-121171090D01*
X334272393Y-121139769D01*
X334262085Y-121105791D01*
X334258000Y-121064310D01*
X334258000Y-120388090D01*
X334262085Y-120346609D01*
X334272393Y-120312631D01*
X334289134Y-120281310D01*
X334311661Y-120253861D01*
X334339110Y-120231334D01*
X334370431Y-120214593D01*
X334404409Y-120204285D01*
X334445890Y-120200200D01*
X335047110Y-120200200D01*
X335088591Y-120204285D01*
X335088591Y-120204285D01*
G37*
G36*
X336663591Y-120204285D02*
G01*
X336697569Y-120214593D01*
X336728890Y-120231334D01*
X336756339Y-120253861D01*
X336778866Y-120281310D01*
X336795607Y-120312631D01*
X336805915Y-120346609D01*
X336810000Y-120388090D01*
X336810000Y-121064310D01*
X336805915Y-121105791D01*
X336795607Y-121139769D01*
X336778866Y-121171090D01*
X336756339Y-121198539D01*
X336728890Y-121221066D01*
X336697569Y-121237807D01*
X336663591Y-121248115D01*
X336622110Y-121252200D01*
X336020890Y-121252200D01*
X335979409Y-121248115D01*
X335945431Y-121237807D01*
X335914110Y-121221066D01*
X335886661Y-121198539D01*
X335864134Y-121171090D01*
X335847393Y-121139769D01*
X335837085Y-121105791D01*
X335833000Y-121064310D01*
X335833000Y-120388090D01*
X335837085Y-120346609D01*
X335847393Y-120312631D01*
X335864134Y-120281310D01*
X335886661Y-120253861D01*
X335914110Y-120231334D01*
X335945431Y-120214593D01*
X335979409Y-120204285D01*
X336020890Y-120200200D01*
X336622110Y-120200200D01*
X336663591Y-120204285D01*
X336663591Y-120204285D01*
G37*
G36*
X351026591Y-119937085D02*
G01*
X351060569Y-119947393D01*
X351091890Y-119964134D01*
X351119339Y-119986661D01*
X351141866Y-120014110D01*
X351158607Y-120045431D01*
X351168915Y-120079409D01*
X351173000Y-120120890D01*
X351173000Y-120722110D01*
X351168915Y-120763591D01*
X351158607Y-120797569D01*
X351141866Y-120828890D01*
X351119339Y-120856339D01*
X351091890Y-120878866D01*
X351060569Y-120895607D01*
X351026591Y-120905915D01*
X350985110Y-120910000D01*
X350308890Y-120910000D01*
X350267409Y-120905915D01*
X350233431Y-120895607D01*
X350202110Y-120878866D01*
X350174661Y-120856339D01*
X350152134Y-120828890D01*
X350135393Y-120797569D01*
X350125085Y-120763591D01*
X350121000Y-120722110D01*
X350121000Y-120120890D01*
X350125085Y-120079409D01*
X350135393Y-120045431D01*
X350152134Y-120014110D01*
X350174661Y-119986661D01*
X350202110Y-119964134D01*
X350233431Y-119947393D01*
X350267409Y-119937085D01*
X350308890Y-119933000D01*
X350985110Y-119933000D01*
X351026591Y-119937085D01*
X351026591Y-119937085D01*
G37*
G36*
X329309591Y-119937085D02*
G01*
X329343569Y-119947393D01*
X329374890Y-119964134D01*
X329402339Y-119986661D01*
X329424866Y-120014110D01*
X329441607Y-120045431D01*
X329451915Y-120079409D01*
X329456000Y-120120890D01*
X329456000Y-120722110D01*
X329451915Y-120763591D01*
X329441607Y-120797569D01*
X329424866Y-120828890D01*
X329402339Y-120856339D01*
X329374890Y-120878866D01*
X329343569Y-120895607D01*
X329309591Y-120905915D01*
X329268110Y-120910000D01*
X328591890Y-120910000D01*
X328550409Y-120905915D01*
X328516431Y-120895607D01*
X328485110Y-120878866D01*
X328457661Y-120856339D01*
X328435134Y-120828890D01*
X328418393Y-120797569D01*
X328408085Y-120763591D01*
X328404000Y-120722110D01*
X328404000Y-120120890D01*
X328408085Y-120079409D01*
X328418393Y-120045431D01*
X328435134Y-120014110D01*
X328457661Y-119986661D01*
X328485110Y-119964134D01*
X328516431Y-119947393D01*
X328550409Y-119937085D01*
X328591890Y-119933000D01*
X329268110Y-119933000D01*
X329309591Y-119937085D01*
X329309591Y-119937085D01*
G37*
G36*
X349567700Y-120815800D02*
G01*
X347408300Y-120815800D01*
X347408300Y-120104200D01*
X349567700Y-120104200D01*
X349567700Y-120815800D01*
X349567700Y-120815800D01*
G37*
G36*
X344767100Y-120815800D02*
G01*
X342607700Y-120815800D01*
X342607700Y-120104200D01*
X344767100Y-120104200D01*
X344767100Y-120815800D01*
X344767100Y-120815800D01*
G37*
G36*
X360028442Y-118485518D02*
G01*
X360094627Y-118492037D01*
X360264466Y-118543557D01*
X360420991Y-118627222D01*
X360456729Y-118656552D01*
X360558186Y-118739814D01*
X360635645Y-118834200D01*
X360670778Y-118877009D01*
X360670779Y-118877011D01*
X360736301Y-118999592D01*
X360754443Y-119033534D01*
X360805963Y-119203373D01*
X360823359Y-119380000D01*
X360805963Y-119556627D01*
X360754443Y-119726466D01*
X360670778Y-119882991D01*
X360656667Y-119900185D01*
X360558186Y-120020186D01*
X360486021Y-120079409D01*
X360420991Y-120132778D01*
X360264466Y-120216443D01*
X360094627Y-120267963D01*
X360028442Y-120274482D01*
X359962260Y-120281000D01*
X359873740Y-120281000D01*
X359807558Y-120274482D01*
X359741373Y-120267963D01*
X359571534Y-120216443D01*
X359415009Y-120132778D01*
X359349979Y-120079409D01*
X359277814Y-120020186D01*
X359179333Y-119900185D01*
X359165222Y-119882991D01*
X359081557Y-119726466D01*
X359030037Y-119556627D01*
X359012641Y-119380000D01*
X359030037Y-119203373D01*
X359081557Y-119033534D01*
X359099700Y-118999592D01*
X359165221Y-118877011D01*
X359165222Y-118877009D01*
X359200355Y-118834200D01*
X359277814Y-118739814D01*
X359379271Y-118656552D01*
X359415009Y-118627222D01*
X359571534Y-118543557D01*
X359741373Y-118492037D01*
X359807558Y-118485518D01*
X359873740Y-118479000D01*
X359962260Y-118479000D01*
X360028442Y-118485518D01*
X360028442Y-118485518D01*
G37*
G36*
X369043443Y-118365519D02*
G01*
X369109627Y-118372037D01*
X369279466Y-118423557D01*
X369279468Y-118423558D01*
X369308563Y-118439110D01*
X369435991Y-118507222D01*
X369437889Y-118508780D01*
X369573186Y-118619814D01*
X369656448Y-118721271D01*
X369685778Y-118757009D01*
X369769443Y-118913534D01*
X369820963Y-119083373D01*
X369838359Y-119260000D01*
X369820963Y-119436627D01*
X369769443Y-119606466D01*
X369685778Y-119762991D01*
X369664638Y-119788750D01*
X369573186Y-119900186D01*
X369483042Y-119974164D01*
X369435991Y-120012778D01*
X369279466Y-120096443D01*
X369109627Y-120147963D01*
X369043442Y-120154482D01*
X368977260Y-120161000D01*
X368638740Y-120161000D01*
X368572558Y-120154482D01*
X368506373Y-120147963D01*
X368336534Y-120096443D01*
X368180009Y-120012778D01*
X368132958Y-119974164D01*
X368042814Y-119900186D01*
X367951362Y-119788750D01*
X367930222Y-119762991D01*
X367846557Y-119606466D01*
X367795037Y-119436627D01*
X367777641Y-119260000D01*
X367795037Y-119083373D01*
X367846557Y-118913534D01*
X367930222Y-118757009D01*
X367959552Y-118721271D01*
X368042814Y-118619814D01*
X368178111Y-118508780D01*
X368180009Y-118507222D01*
X368307437Y-118439110D01*
X368336532Y-118423558D01*
X368336534Y-118423557D01*
X368506373Y-118372037D01*
X368572557Y-118365519D01*
X368638740Y-118359000D01*
X368977260Y-118359000D01*
X369043443Y-118365519D01*
X369043443Y-118365519D01*
G37*
G36*
X355789591Y-118985085D02*
G01*
X355823569Y-118995393D01*
X355854890Y-119012134D01*
X355882339Y-119034661D01*
X355904866Y-119062110D01*
X355921607Y-119093431D01*
X355931915Y-119127409D01*
X355936000Y-119168890D01*
X355936000Y-119845110D01*
X355931915Y-119886591D01*
X355921607Y-119920569D01*
X355904866Y-119951890D01*
X355882339Y-119979339D01*
X355854890Y-120001866D01*
X355823569Y-120018607D01*
X355789591Y-120028915D01*
X355748110Y-120033000D01*
X355146890Y-120033000D01*
X355105409Y-120028915D01*
X355071431Y-120018607D01*
X355040110Y-120001866D01*
X355012661Y-119979339D01*
X354990134Y-119951890D01*
X354973393Y-119920569D01*
X354963085Y-119886591D01*
X354959000Y-119845110D01*
X354959000Y-119168890D01*
X354963085Y-119127409D01*
X354973393Y-119093431D01*
X354990134Y-119062110D01*
X355012661Y-119034661D01*
X355040110Y-119012134D01*
X355071431Y-118995393D01*
X355105409Y-118985085D01*
X355146890Y-118981000D01*
X355748110Y-118981000D01*
X355789591Y-118985085D01*
X355789591Y-118985085D01*
G37*
G36*
X357364591Y-118985085D02*
G01*
X357398569Y-118995393D01*
X357429890Y-119012134D01*
X357457339Y-119034661D01*
X357479866Y-119062110D01*
X357496607Y-119093431D01*
X357506915Y-119127409D01*
X357511000Y-119168890D01*
X357511000Y-119845110D01*
X357506915Y-119886591D01*
X357496607Y-119920569D01*
X357479866Y-119951890D01*
X357457339Y-119979339D01*
X357429890Y-120001866D01*
X357398569Y-120018607D01*
X357364591Y-120028915D01*
X357323110Y-120033000D01*
X356721890Y-120033000D01*
X356680409Y-120028915D01*
X356646431Y-120018607D01*
X356615110Y-120001866D01*
X356587661Y-119979339D01*
X356565134Y-119951890D01*
X356548393Y-119920569D01*
X356538085Y-119886591D01*
X356534000Y-119845110D01*
X356534000Y-119168890D01*
X356538085Y-119127409D01*
X356548393Y-119093431D01*
X356565134Y-119062110D01*
X356587661Y-119034661D01*
X356615110Y-119012134D01*
X356646431Y-118995393D01*
X356680409Y-118985085D01*
X356721890Y-118981000D01*
X357323110Y-118981000D01*
X357364591Y-118985085D01*
X357364591Y-118985085D01*
G37*
G36*
X352487591Y-118985085D02*
G01*
X352521569Y-118995393D01*
X352552890Y-119012134D01*
X352580339Y-119034661D01*
X352602866Y-119062110D01*
X352619607Y-119093431D01*
X352629915Y-119127409D01*
X352634000Y-119168890D01*
X352634000Y-119845110D01*
X352629915Y-119886591D01*
X352619607Y-119920569D01*
X352602866Y-119951890D01*
X352580339Y-119979339D01*
X352552890Y-120001866D01*
X352521569Y-120018607D01*
X352487591Y-120028915D01*
X352446110Y-120033000D01*
X351844890Y-120033000D01*
X351803409Y-120028915D01*
X351769431Y-120018607D01*
X351738110Y-120001866D01*
X351710661Y-119979339D01*
X351688134Y-119951890D01*
X351671393Y-119920569D01*
X351661085Y-119886591D01*
X351657000Y-119845110D01*
X351657000Y-119168890D01*
X351661085Y-119127409D01*
X351671393Y-119093431D01*
X351688134Y-119062110D01*
X351710661Y-119034661D01*
X351738110Y-119012134D01*
X351769431Y-118995393D01*
X351803409Y-118985085D01*
X351844890Y-118981000D01*
X352446110Y-118981000D01*
X352487591Y-118985085D01*
X352487591Y-118985085D01*
G37*
G36*
X354062591Y-118985085D02*
G01*
X354096569Y-118995393D01*
X354127890Y-119012134D01*
X354155339Y-119034661D01*
X354177866Y-119062110D01*
X354194607Y-119093431D01*
X354204915Y-119127409D01*
X354209000Y-119168890D01*
X354209000Y-119845110D01*
X354204915Y-119886591D01*
X354194607Y-119920569D01*
X354177866Y-119951890D01*
X354155339Y-119979339D01*
X354127890Y-120001866D01*
X354096569Y-120018607D01*
X354062591Y-120028915D01*
X354021110Y-120033000D01*
X353419890Y-120033000D01*
X353378409Y-120028915D01*
X353344431Y-120018607D01*
X353313110Y-120001866D01*
X353285661Y-119979339D01*
X353263134Y-119951890D01*
X353246393Y-119920569D01*
X353236085Y-119886591D01*
X353232000Y-119845110D01*
X353232000Y-119168890D01*
X353236085Y-119127409D01*
X353246393Y-119093431D01*
X353263134Y-119062110D01*
X353285661Y-119034661D01*
X353313110Y-119012134D01*
X353344431Y-118995393D01*
X353378409Y-118985085D01*
X353419890Y-118981000D01*
X354021110Y-118981000D01*
X354062591Y-118985085D01*
X354062591Y-118985085D01*
G37*
G36*
X320476564Y-117861389D02*
G01*
X320667833Y-117940615D01*
X320667835Y-117940616D01*
X320839973Y-118055635D01*
X320986365Y-118202027D01*
X321093719Y-118362693D01*
X321101385Y-118374167D01*
X321180611Y-118565436D01*
X321221000Y-118768484D01*
X321221000Y-118975516D01*
X321180611Y-119178564D01*
X321138040Y-119281339D01*
X321101384Y-119369835D01*
X320986365Y-119541973D01*
X320839973Y-119688365D01*
X320667835Y-119803384D01*
X320667834Y-119803385D01*
X320667833Y-119803385D01*
X320476564Y-119882611D01*
X320273516Y-119923000D01*
X320066484Y-119923000D01*
X319863436Y-119882611D01*
X319672167Y-119803385D01*
X319672166Y-119803385D01*
X319672165Y-119803384D01*
X319500027Y-119688365D01*
X319353635Y-119541973D01*
X319238616Y-119369835D01*
X319201960Y-119281339D01*
X319159389Y-119178564D01*
X319119000Y-118975516D01*
X319119000Y-118768484D01*
X319159389Y-118565436D01*
X319238615Y-118374167D01*
X319246282Y-118362693D01*
X319353635Y-118202027D01*
X319500027Y-118055635D01*
X319672165Y-117940616D01*
X319672167Y-117940615D01*
X319863436Y-117861389D01*
X320066484Y-117821000D01*
X320273516Y-117821000D01*
X320476564Y-117861389D01*
X320476564Y-117861389D01*
G37*
G36*
X339039400Y-119583400D02*
G01*
X336956200Y-119583400D01*
X336956200Y-118922600D01*
X339039400Y-118922600D01*
X339039400Y-119583400D01*
X339039400Y-119583400D01*
G37*
G36*
X334111800Y-119583400D02*
G01*
X332028600Y-119583400D01*
X332028600Y-118922600D01*
X334111800Y-118922600D01*
X334111800Y-119583400D01*
X334111800Y-119583400D01*
G37*
G36*
X349567700Y-119545800D02*
G01*
X347408300Y-119545800D01*
X347408300Y-118834200D01*
X349567700Y-118834200D01*
X349567700Y-119545800D01*
X349567700Y-119545800D01*
G37*
G36*
X344767100Y-119545800D02*
G01*
X342607700Y-119545800D01*
X342607700Y-118834200D01*
X344767100Y-118834200D01*
X344767100Y-119545800D01*
X344767100Y-119545800D01*
G37*
G36*
X351026591Y-118362085D02*
G01*
X351060569Y-118372393D01*
X351091890Y-118389134D01*
X351119339Y-118411661D01*
X351141866Y-118439110D01*
X351158607Y-118470431D01*
X351168915Y-118504409D01*
X351173000Y-118545890D01*
X351173000Y-119147110D01*
X351168915Y-119188591D01*
X351158607Y-119222569D01*
X351141866Y-119253890D01*
X351119339Y-119281339D01*
X351091890Y-119303866D01*
X351060569Y-119320607D01*
X351026591Y-119330915D01*
X350985110Y-119335000D01*
X350308890Y-119335000D01*
X350267409Y-119330915D01*
X350233431Y-119320607D01*
X350202110Y-119303866D01*
X350174661Y-119281339D01*
X350152134Y-119253890D01*
X350135393Y-119222569D01*
X350125085Y-119188591D01*
X350121000Y-119147110D01*
X350121000Y-118545890D01*
X350125085Y-118504409D01*
X350135393Y-118470431D01*
X350152134Y-118439110D01*
X350174661Y-118411661D01*
X350202110Y-118389134D01*
X350233431Y-118372393D01*
X350267409Y-118362085D01*
X350308890Y-118358000D01*
X350985110Y-118358000D01*
X351026591Y-118362085D01*
X351026591Y-118362085D01*
G37*
G36*
X329309591Y-118362085D02*
G01*
X329343569Y-118372393D01*
X329374890Y-118389134D01*
X329402339Y-118411661D01*
X329424866Y-118439110D01*
X329441607Y-118470431D01*
X329451915Y-118504409D01*
X329456000Y-118545890D01*
X329456000Y-119147110D01*
X329451915Y-119188591D01*
X329441607Y-119222569D01*
X329424866Y-119253890D01*
X329402339Y-119281339D01*
X329374890Y-119303866D01*
X329343569Y-119320607D01*
X329309591Y-119330915D01*
X329268110Y-119335000D01*
X328591890Y-119335000D01*
X328550409Y-119330915D01*
X328516431Y-119320607D01*
X328485110Y-119303866D01*
X328457661Y-119281339D01*
X328435134Y-119253890D01*
X328418393Y-119222569D01*
X328408085Y-119188591D01*
X328404000Y-119147110D01*
X328404000Y-118545890D01*
X328408085Y-118504409D01*
X328418393Y-118470431D01*
X328435134Y-118439110D01*
X328457661Y-118411661D01*
X328485110Y-118389134D01*
X328516431Y-118372393D01*
X328550409Y-118362085D01*
X328591890Y-118358000D01*
X329268110Y-118358000D01*
X329309591Y-118362085D01*
X329309591Y-118362085D01*
G37*
G36*
X334111800Y-118313400D02*
G01*
X332028600Y-118313400D01*
X332028600Y-117652600D01*
X334111800Y-117652600D01*
X334111800Y-118313400D01*
X334111800Y-118313400D01*
G37*
G36*
X339039400Y-118313400D02*
G01*
X336956200Y-118313400D01*
X336956200Y-117652600D01*
X339039400Y-117652600D01*
X339039400Y-118313400D01*
X339039400Y-118313400D01*
G37*
G36*
X349567700Y-118275800D02*
G01*
X347408300Y-118275800D01*
X347408300Y-117564200D01*
X349567700Y-117564200D01*
X349567700Y-118275800D01*
X349567700Y-118275800D01*
G37*
G36*
X344767100Y-118275800D02*
G01*
X342607700Y-118275800D01*
X342607700Y-117564200D01*
X344767100Y-117564200D01*
X344767100Y-118275800D01*
X344767100Y-118275800D01*
G37*
G36*
X360819000Y-117741000D02*
G01*
X359017000Y-117741000D01*
X359017000Y-115939000D01*
X360819000Y-115939000D01*
X360819000Y-117741000D01*
X360819000Y-117741000D01*
G37*
G36*
X369043442Y-115865518D02*
G01*
X369109627Y-115872037D01*
X369279466Y-115923557D01*
X369435991Y-116007222D01*
X369471729Y-116036552D01*
X369573186Y-116119814D01*
X369656448Y-116221271D01*
X369685778Y-116257009D01*
X369769443Y-116413534D01*
X369820963Y-116583373D01*
X369838359Y-116760000D01*
X369820963Y-116936627D01*
X369769443Y-117106466D01*
X369769442Y-117106468D01*
X369735803Y-117169401D01*
X369685778Y-117262991D01*
X369667806Y-117284890D01*
X369573186Y-117400186D01*
X369471729Y-117483448D01*
X369435991Y-117512778D01*
X369279466Y-117596443D01*
X369109627Y-117647963D01*
X369043442Y-117654482D01*
X368977260Y-117661000D01*
X368638740Y-117661000D01*
X368572558Y-117654482D01*
X368506373Y-117647963D01*
X368336534Y-117596443D01*
X368180009Y-117512778D01*
X368144271Y-117483448D01*
X368042814Y-117400186D01*
X367948194Y-117284890D01*
X367930222Y-117262991D01*
X367880197Y-117169401D01*
X367846558Y-117106468D01*
X367846557Y-117106466D01*
X367795037Y-116936627D01*
X367777641Y-116760000D01*
X367795037Y-116583373D01*
X367846557Y-116413534D01*
X367930222Y-116257009D01*
X367959552Y-116221271D01*
X368042814Y-116119814D01*
X368144271Y-116036552D01*
X368180009Y-116007222D01*
X368336534Y-115923557D01*
X368506373Y-115872037D01*
X368572558Y-115865518D01*
X368638740Y-115859000D01*
X368977260Y-115859000D01*
X369043442Y-115865518D01*
X369043442Y-115865518D01*
G37*
G36*
X354062591Y-116318085D02*
G01*
X354096569Y-116328393D01*
X354127890Y-116345134D01*
X354155339Y-116367661D01*
X354177866Y-116395110D01*
X354194607Y-116426431D01*
X354204915Y-116460409D01*
X354209000Y-116501890D01*
X354209000Y-117178110D01*
X354204915Y-117219591D01*
X354194607Y-117253569D01*
X354177866Y-117284890D01*
X354155339Y-117312339D01*
X354127890Y-117334866D01*
X354096569Y-117351607D01*
X354062591Y-117361915D01*
X354021110Y-117366000D01*
X353419890Y-117366000D01*
X353378409Y-117361915D01*
X353344431Y-117351607D01*
X353313110Y-117334866D01*
X353285661Y-117312339D01*
X353263134Y-117284890D01*
X353246393Y-117253569D01*
X353236085Y-117219591D01*
X353232000Y-117178110D01*
X353232000Y-116501890D01*
X353236085Y-116460409D01*
X353246393Y-116426431D01*
X353263134Y-116395110D01*
X353285661Y-116367661D01*
X353313110Y-116345134D01*
X353344431Y-116328393D01*
X353378409Y-116318085D01*
X353419890Y-116314000D01*
X354021110Y-116314000D01*
X354062591Y-116318085D01*
X354062591Y-116318085D01*
G37*
G36*
X355789591Y-116318085D02*
G01*
X355823569Y-116328393D01*
X355854890Y-116345134D01*
X355882339Y-116367661D01*
X355904866Y-116395110D01*
X355921607Y-116426431D01*
X355931915Y-116460409D01*
X355936000Y-116501890D01*
X355936000Y-117178110D01*
X355931915Y-117219591D01*
X355921607Y-117253569D01*
X355904866Y-117284890D01*
X355882339Y-117312339D01*
X355854890Y-117334866D01*
X355823569Y-117351607D01*
X355789591Y-117361915D01*
X355748110Y-117366000D01*
X355146890Y-117366000D01*
X355105409Y-117361915D01*
X355071431Y-117351607D01*
X355040110Y-117334866D01*
X355012661Y-117312339D01*
X354990134Y-117284890D01*
X354973393Y-117253569D01*
X354963085Y-117219591D01*
X354959000Y-117178110D01*
X354959000Y-116501890D01*
X354963085Y-116460409D01*
X354973393Y-116426431D01*
X354990134Y-116395110D01*
X355012661Y-116367661D01*
X355040110Y-116345134D01*
X355071431Y-116328393D01*
X355105409Y-116318085D01*
X355146890Y-116314000D01*
X355748110Y-116314000D01*
X355789591Y-116318085D01*
X355789591Y-116318085D01*
G37*
G36*
X357364591Y-116318085D02*
G01*
X357398569Y-116328393D01*
X357429890Y-116345134D01*
X357457339Y-116367661D01*
X357479866Y-116395110D01*
X357496607Y-116426431D01*
X357506915Y-116460409D01*
X357511000Y-116501890D01*
X357511000Y-117178110D01*
X357506915Y-117219591D01*
X357496607Y-117253569D01*
X357479866Y-117284890D01*
X357457339Y-117312339D01*
X357429890Y-117334866D01*
X357398569Y-117351607D01*
X357364591Y-117361915D01*
X357323110Y-117366000D01*
X356721890Y-117366000D01*
X356680409Y-117361915D01*
X356646431Y-117351607D01*
X356615110Y-117334866D01*
X356587661Y-117312339D01*
X356565134Y-117284890D01*
X356548393Y-117253569D01*
X356538085Y-117219591D01*
X356534000Y-117178110D01*
X356534000Y-116501890D01*
X356538085Y-116460409D01*
X356548393Y-116426431D01*
X356565134Y-116395110D01*
X356587661Y-116367661D01*
X356615110Y-116345134D01*
X356646431Y-116328393D01*
X356680409Y-116318085D01*
X356721890Y-116314000D01*
X357323110Y-116314000D01*
X357364591Y-116318085D01*
X357364591Y-116318085D01*
G37*
G36*
X352487591Y-116318085D02*
G01*
X352521569Y-116328393D01*
X352552890Y-116345134D01*
X352580339Y-116367661D01*
X352602866Y-116395110D01*
X352619607Y-116426431D01*
X352629915Y-116460409D01*
X352634000Y-116501890D01*
X352634000Y-117178110D01*
X352629915Y-117219591D01*
X352619607Y-117253569D01*
X352602866Y-117284890D01*
X352580339Y-117312339D01*
X352552890Y-117334866D01*
X352521569Y-117351607D01*
X352487591Y-117361915D01*
X352446110Y-117366000D01*
X351844890Y-117366000D01*
X351803409Y-117361915D01*
X351769431Y-117351607D01*
X351738110Y-117334866D01*
X351710661Y-117312339D01*
X351688134Y-117284890D01*
X351671393Y-117253569D01*
X351661085Y-117219591D01*
X351657000Y-117178110D01*
X351657000Y-116501890D01*
X351661085Y-116460409D01*
X351671393Y-116426431D01*
X351688134Y-116395110D01*
X351710661Y-116367661D01*
X351738110Y-116345134D01*
X351769431Y-116328393D01*
X351803409Y-116318085D01*
X351844890Y-116314000D01*
X352446110Y-116314000D01*
X352487591Y-116318085D01*
X352487591Y-116318085D01*
G37*
G36*
X334111800Y-117043400D02*
G01*
X332028600Y-117043400D01*
X332028600Y-116382600D01*
X334111800Y-116382600D01*
X334111800Y-117043400D01*
X334111800Y-117043400D01*
G37*
G36*
X339039400Y-117043400D02*
G01*
X336956200Y-117043400D01*
X336956200Y-116382600D01*
X339039400Y-116382600D01*
X339039400Y-117043400D01*
X339039400Y-117043400D01*
G37*
G36*
X344767100Y-117005800D02*
G01*
X342607700Y-117005800D01*
X342607700Y-116294200D01*
X344767100Y-116294200D01*
X344767100Y-117005800D01*
X344767100Y-117005800D01*
G37*
G36*
X349567700Y-117005800D02*
G01*
X347408300Y-117005800D01*
X347408300Y-116294200D01*
X349567700Y-116294200D01*
X349567700Y-117005800D01*
X349567700Y-117005800D01*
G37*
G36*
X311097971Y-114436625D02*
G01*
X311231734Y-114463232D01*
X311441203Y-114549997D01*
X311629720Y-114675960D01*
X311790040Y-114836280D01*
X311916003Y-115024797D01*
X312002768Y-115234266D01*
X312047000Y-115456636D01*
X312047000Y-115683364D01*
X312002768Y-115905734D01*
X311916003Y-116115203D01*
X311790040Y-116303720D01*
X311629720Y-116464040D01*
X311441203Y-116590003D01*
X311231734Y-116676768D01*
X311120549Y-116698884D01*
X311009365Y-116721000D01*
X310782635Y-116721000D01*
X310671451Y-116698884D01*
X310560266Y-116676768D01*
X310350797Y-116590003D01*
X310162280Y-116464040D01*
X310001960Y-116303720D01*
X309875997Y-116115203D01*
X309789232Y-115905734D01*
X309745000Y-115683364D01*
X309745000Y-115456636D01*
X309789232Y-115234266D01*
X309875997Y-115024797D01*
X310001960Y-114836280D01*
X310162280Y-114675960D01*
X310350797Y-114549997D01*
X310560266Y-114463232D01*
X310694029Y-114436625D01*
X310782635Y-114419000D01*
X311009365Y-114419000D01*
X311097971Y-114436625D01*
X311097971Y-114436625D01*
G37*
G36*
X339039400Y-115773400D02*
G01*
X336956200Y-115773400D01*
X336956200Y-115112600D01*
X339039400Y-115112600D01*
X339039400Y-115773400D01*
X339039400Y-115773400D01*
G37*
G36*
X334111800Y-115773400D02*
G01*
X332028600Y-115773400D01*
X332028600Y-115112600D01*
X334111800Y-115112600D01*
X334111800Y-115773400D01*
X334111800Y-115773400D01*
G37*
G36*
X344767100Y-115735800D02*
G01*
X342607700Y-115735800D01*
X342607700Y-115024200D01*
X344767100Y-115024200D01*
X344767100Y-115735800D01*
X344767100Y-115735800D01*
G37*
G36*
X349567700Y-115735800D02*
G01*
X347408300Y-115735800D01*
X347408300Y-115024200D01*
X349567700Y-115024200D01*
X349567700Y-115735800D01*
X349567700Y-115735800D01*
G37*
G36*
X369043442Y-113365518D02*
G01*
X369109627Y-113372037D01*
X369279466Y-113423557D01*
X369435991Y-113507222D01*
X369471729Y-113536552D01*
X369573186Y-113619814D01*
X369656448Y-113721271D01*
X369685778Y-113757009D01*
X369769443Y-113913534D01*
X369820963Y-114083373D01*
X369838359Y-114260000D01*
X369820963Y-114436627D01*
X369769443Y-114606466D01*
X369685778Y-114762991D01*
X369678837Y-114771448D01*
X369573186Y-114900186D01*
X369471729Y-114983448D01*
X369435991Y-115012778D01*
X369279466Y-115096443D01*
X369109627Y-115147963D01*
X369043442Y-115154482D01*
X368977260Y-115161000D01*
X368638740Y-115161000D01*
X368572558Y-115154482D01*
X368506373Y-115147963D01*
X368336534Y-115096443D01*
X368180009Y-115012778D01*
X368144271Y-114983448D01*
X368042814Y-114900186D01*
X367937163Y-114771448D01*
X367930222Y-114762991D01*
X367846557Y-114606466D01*
X367795037Y-114436627D01*
X367777641Y-114260000D01*
X367795037Y-114083373D01*
X367846557Y-113913534D01*
X367930222Y-113757009D01*
X367959552Y-113721271D01*
X368042814Y-113619814D01*
X368144271Y-113536552D01*
X368180009Y-113507222D01*
X368336534Y-113423557D01*
X368506373Y-113372037D01*
X368572558Y-113365518D01*
X368638740Y-113359000D01*
X368977260Y-113359000D01*
X369043442Y-113365518D01*
X369043442Y-113365518D01*
G37*
G36*
X325499591Y-113907085D02*
G01*
X325533569Y-113917393D01*
X325564890Y-113934134D01*
X325592339Y-113956661D01*
X325614866Y-113984110D01*
X325631607Y-114015431D01*
X325641915Y-114049409D01*
X325646000Y-114090890D01*
X325646000Y-114692110D01*
X325641915Y-114733591D01*
X325631607Y-114767569D01*
X325614866Y-114798890D01*
X325592339Y-114826339D01*
X325564890Y-114848866D01*
X325533569Y-114865607D01*
X325499591Y-114875915D01*
X325458110Y-114880000D01*
X324781890Y-114880000D01*
X324740409Y-114875915D01*
X324706431Y-114865607D01*
X324675110Y-114848866D01*
X324647661Y-114826339D01*
X324625134Y-114798890D01*
X324608393Y-114767569D01*
X324598085Y-114733591D01*
X324594000Y-114692110D01*
X324594000Y-114090890D01*
X324598085Y-114049409D01*
X324608393Y-114015431D01*
X324625134Y-113984110D01*
X324647661Y-113956661D01*
X324675110Y-113934134D01*
X324706431Y-113917393D01*
X324740409Y-113907085D01*
X324781890Y-113903000D01*
X325458110Y-113903000D01*
X325499591Y-113907085D01*
X325499591Y-113907085D01*
G37*
G36*
X336663591Y-113447885D02*
G01*
X336697569Y-113458193D01*
X336728890Y-113474934D01*
X336756339Y-113497461D01*
X336778866Y-113524910D01*
X336795607Y-113556231D01*
X336805915Y-113590209D01*
X336810000Y-113631690D01*
X336810000Y-114307910D01*
X336805915Y-114349391D01*
X336795607Y-114383369D01*
X336778866Y-114414690D01*
X336756339Y-114442139D01*
X336728890Y-114464666D01*
X336697569Y-114481407D01*
X336663591Y-114491715D01*
X336622110Y-114495800D01*
X336020890Y-114495800D01*
X335979409Y-114491715D01*
X335945431Y-114481407D01*
X335914110Y-114464666D01*
X335886661Y-114442139D01*
X335864134Y-114414690D01*
X335847393Y-114383369D01*
X335837085Y-114349391D01*
X335833000Y-114307910D01*
X335833000Y-113631690D01*
X335837085Y-113590209D01*
X335847393Y-113556231D01*
X335864134Y-113524910D01*
X335886661Y-113497461D01*
X335914110Y-113474934D01*
X335945431Y-113458193D01*
X335979409Y-113447885D01*
X336020890Y-113443800D01*
X336622110Y-113443800D01*
X336663591Y-113447885D01*
X336663591Y-113447885D01*
G37*
G36*
X335088591Y-113447885D02*
G01*
X335122569Y-113458193D01*
X335153890Y-113474934D01*
X335181339Y-113497461D01*
X335203866Y-113524910D01*
X335220607Y-113556231D01*
X335230915Y-113590209D01*
X335235000Y-113631690D01*
X335235000Y-114307910D01*
X335230915Y-114349391D01*
X335220607Y-114383369D01*
X335203866Y-114414690D01*
X335181339Y-114442139D01*
X335153890Y-114464666D01*
X335122569Y-114481407D01*
X335088591Y-114491715D01*
X335047110Y-114495800D01*
X334445890Y-114495800D01*
X334404409Y-114491715D01*
X334370431Y-114481407D01*
X334339110Y-114464666D01*
X334311661Y-114442139D01*
X334289134Y-114414690D01*
X334272393Y-114383369D01*
X334262085Y-114349391D01*
X334258000Y-114307910D01*
X334258000Y-113631690D01*
X334262085Y-113590209D01*
X334272393Y-113556231D01*
X334289134Y-113524910D01*
X334311661Y-113497461D01*
X334339110Y-113474934D01*
X334370431Y-113458193D01*
X334404409Y-113447885D01*
X334445890Y-113443800D01*
X335047110Y-113443800D01*
X335088591Y-113447885D01*
X335088591Y-113447885D01*
G37*
G36*
X360028442Y-111627518D02*
G01*
X360094627Y-111634037D01*
X360264466Y-111685557D01*
X360420991Y-111769222D01*
X360456729Y-111798552D01*
X360558186Y-111881814D01*
X360641448Y-111983271D01*
X360670778Y-112019009D01*
X360754443Y-112175534D01*
X360805963Y-112345373D01*
X360823359Y-112522000D01*
X360805963Y-112698627D01*
X360754443Y-112868466D01*
X360670778Y-113024991D01*
X360641448Y-113060729D01*
X360558186Y-113162186D01*
X360482998Y-113223890D01*
X360420991Y-113274778D01*
X360264466Y-113358443D01*
X360094627Y-113409963D01*
X360028442Y-113416482D01*
X359962260Y-113423000D01*
X359873740Y-113423000D01*
X359807558Y-113416482D01*
X359741373Y-113409963D01*
X359571534Y-113358443D01*
X359415009Y-113274778D01*
X359353002Y-113223890D01*
X359277814Y-113162186D01*
X359194552Y-113060729D01*
X359165222Y-113024991D01*
X359081557Y-112868466D01*
X359030037Y-112698627D01*
X359012641Y-112522000D01*
X359030037Y-112345373D01*
X359081557Y-112175534D01*
X359165222Y-112019009D01*
X359194552Y-111983271D01*
X359277814Y-111881814D01*
X359379271Y-111798552D01*
X359415009Y-111769222D01*
X359571534Y-111685557D01*
X359741373Y-111634037D01*
X359807558Y-111627518D01*
X359873740Y-111621000D01*
X359962260Y-111621000D01*
X360028442Y-111627518D01*
X360028442Y-111627518D01*
G37*
G36*
X325499591Y-112332085D02*
G01*
X325533569Y-112342393D01*
X325564890Y-112359134D01*
X325592339Y-112381661D01*
X325614866Y-112409110D01*
X325631607Y-112440431D01*
X325641915Y-112474409D01*
X325646000Y-112515890D01*
X325646000Y-113117110D01*
X325641915Y-113158591D01*
X325631607Y-113192569D01*
X325614866Y-113223890D01*
X325592339Y-113251339D01*
X325564890Y-113273866D01*
X325533569Y-113290607D01*
X325499591Y-113300915D01*
X325458110Y-113305000D01*
X324781890Y-113305000D01*
X324740409Y-113300915D01*
X324706431Y-113290607D01*
X324675110Y-113273866D01*
X324647661Y-113251339D01*
X324625134Y-113223890D01*
X324608393Y-113192569D01*
X324598085Y-113158591D01*
X324594000Y-113117110D01*
X324594000Y-112515890D01*
X324598085Y-112474409D01*
X324608393Y-112440431D01*
X324625134Y-112409110D01*
X324647661Y-112381661D01*
X324675110Y-112359134D01*
X324706431Y-112342393D01*
X324740409Y-112332085D01*
X324781890Y-112328000D01*
X325458110Y-112328000D01*
X325499591Y-112332085D01*
X325499591Y-112332085D01*
G37*
G36*
X369691600Y-110862989D02*
G01*
X369724652Y-110873015D01*
X369755103Y-110889292D01*
X369781799Y-110911201D01*
X369803708Y-110937897D01*
X369819985Y-110968348D01*
X369830011Y-111001400D01*
X369834000Y-111041903D01*
X369834000Y-112478097D01*
X369830011Y-112518600D01*
X369819985Y-112551652D01*
X369803708Y-112582103D01*
X369781799Y-112608799D01*
X369755103Y-112630708D01*
X369724652Y-112646985D01*
X369691600Y-112657011D01*
X369651097Y-112661000D01*
X367964903Y-112661000D01*
X367924400Y-112657011D01*
X367891348Y-112646985D01*
X367860897Y-112630708D01*
X367834201Y-112608799D01*
X367812292Y-112582103D01*
X367796015Y-112551652D01*
X367785989Y-112518600D01*
X367782000Y-112478097D01*
X367782000Y-111041903D01*
X367785989Y-111001400D01*
X367796015Y-110968348D01*
X367812292Y-110937897D01*
X367834201Y-110911201D01*
X367860897Y-110889292D01*
X367891348Y-110873015D01*
X367924400Y-110862989D01*
X367964903Y-110859000D01*
X369651097Y-110859000D01*
X369691600Y-110862989D01*
X369691600Y-110862989D01*
G37*
G36*
X312047000Y-111641000D02*
G01*
X309745000Y-111641000D01*
X309745000Y-109339000D01*
X312047000Y-109339000D01*
X312047000Y-111641000D01*
X312047000Y-111641000D01*
G37*
G36*
X360819000Y-110883000D02*
G01*
X359017000Y-110883000D01*
X359017000Y-109081000D01*
X360819000Y-109081000D01*
X360819000Y-110883000D01*
X360819000Y-110883000D01*
G37*
G36*
X366997890Y-109534017D02*
G01*
X367116364Y-109583091D01*
X367222988Y-109654335D01*
X367313665Y-109745012D01*
X367384910Y-109851638D01*
X367412812Y-109919000D01*
X367433983Y-109970110D01*
X367459000Y-110095882D01*
X367459000Y-110224118D01*
X367433983Y-110349890D01*
X367384909Y-110468364D01*
X367313665Y-110574988D01*
X367222988Y-110665665D01*
X367116364Y-110736909D01*
X367116363Y-110736910D01*
X367116362Y-110736910D01*
X366997890Y-110785983D01*
X366872119Y-110811000D01*
X366743881Y-110811000D01*
X366618110Y-110785983D01*
X366499638Y-110736910D01*
X366499637Y-110736910D01*
X366499636Y-110736909D01*
X366393012Y-110665665D01*
X366302335Y-110574988D01*
X366231091Y-110468364D01*
X366182017Y-110349890D01*
X366157000Y-110224118D01*
X366157000Y-110095882D01*
X366182017Y-109970110D01*
X366203188Y-109919000D01*
X366231090Y-109851638D01*
X366302335Y-109745012D01*
X366393012Y-109654335D01*
X366499636Y-109583091D01*
X366618110Y-109534017D01*
X366743881Y-109509000D01*
X366872119Y-109509000D01*
X366997890Y-109534017D01*
X366997890Y-109534017D01*
G37*
G36*
X329870256Y-106659298D02*
G01*
X329976579Y-106680447D01*
X330277042Y-106804903D01*
X330547451Y-106985585D01*
X330777415Y-107215549D01*
X330958097Y-107485958D01*
X331082553Y-107786421D01*
X331146000Y-108105391D01*
X331146000Y-108430609D01*
X331082553Y-108749579D01*
X330958097Y-109050042D01*
X330777415Y-109320451D01*
X330547451Y-109550415D01*
X330277042Y-109731097D01*
X330277041Y-109731098D01*
X330277040Y-109731098D01*
X330189037Y-109767550D01*
X329976579Y-109855553D01*
X329870256Y-109876702D01*
X329657611Y-109919000D01*
X329332389Y-109919000D01*
X329119744Y-109876702D01*
X329013421Y-109855553D01*
X328800963Y-109767550D01*
X328712960Y-109731098D01*
X328712959Y-109731098D01*
X328712958Y-109731097D01*
X328442549Y-109550415D01*
X328212585Y-109320451D01*
X328031903Y-109050042D01*
X327907447Y-108749579D01*
X327844000Y-108430609D01*
X327844000Y-108105391D01*
X327907447Y-107786421D01*
X328031903Y-107485958D01*
X328212585Y-107215549D01*
X328442549Y-106985585D01*
X328712958Y-106804903D01*
X329013421Y-106680447D01*
X329119744Y-106659298D01*
X329332389Y-106617000D01*
X329657611Y-106617000D01*
X329870256Y-106659298D01*
X329870256Y-106659298D01*
G37*
G36*
X325495256Y-106659298D02*
G01*
X325601579Y-106680447D01*
X325902042Y-106804903D01*
X326172451Y-106985585D01*
X326402415Y-107215549D01*
X326583097Y-107485958D01*
X326707553Y-107786421D01*
X326771000Y-108105391D01*
X326771000Y-108430609D01*
X326707553Y-108749579D01*
X326583097Y-109050042D01*
X326402415Y-109320451D01*
X326172451Y-109550415D01*
X325902042Y-109731097D01*
X325902041Y-109731098D01*
X325902040Y-109731098D01*
X325814037Y-109767550D01*
X325601579Y-109855553D01*
X325495256Y-109876702D01*
X325282611Y-109919000D01*
X324957389Y-109919000D01*
X324744744Y-109876702D01*
X324638421Y-109855553D01*
X324425963Y-109767550D01*
X324337960Y-109731098D01*
X324337959Y-109731098D01*
X324337958Y-109731097D01*
X324067549Y-109550415D01*
X323837585Y-109320451D01*
X323656903Y-109050042D01*
X323532447Y-108749579D01*
X323469000Y-108430609D01*
X323469000Y-108105391D01*
X323532447Y-107786421D01*
X323656903Y-107485958D01*
X323837585Y-107215549D01*
X324067549Y-106985585D01*
X324337958Y-106804903D01*
X324638421Y-106680447D01*
X324744744Y-106659298D01*
X324957389Y-106617000D01*
X325282611Y-106617000D01*
X325495256Y-106659298D01*
X325495256Y-106659298D01*
G37*
G36*
X322396000Y-109919000D02*
G01*
X319094000Y-109919000D01*
X319094000Y-106617000D01*
X322396000Y-106617000D01*
X322396000Y-109919000D01*
X322396000Y-109919000D01*
G37*
M02*
