M48
; DRILL file {KiCad (5.1.4)-1} date 29/10/2019 10:28:31
; FORMAT={-:-/ absolute / inch / decimal}
; #@! TF.CreationDate,2019-10-29T10:28:31+00:00
; #@! TF.GenerationSoftware,Kicad,Pcbnew,(5.1.4)-1
FMAT,2
INCH
T1C0.0157
T2C0.0374
T3C0.0394
T4C0.0472
T5C0.0512
T6C0.0730
T7C0.0472
T8C0.1181
%
G90
G05
T1
X12.8Y-4.53
X12.95Y-4.82
X13.01Y-4.82
X13.01Y-4.92
X13.11Y-4.77
X13.1472Y-4.49
X13.16Y-4.75
X13.2226Y-4.4374
X13.46Y-4.84
X13.63Y-4.49
X13.82Y-4.64
X13.87Y-4.6
X14.07Y-4.76
T2
X14.52Y-4.4
X14.52Y-4.4984
X14.52Y-4.5969
X14.52Y-4.6953
T3
X14.17Y-4.33
X14.17Y-4.43
X14.17Y-4.6
X14.17Y-4.7
T4
X12.24Y-4.35
X12.24Y-4.55
X12.24Y-4.75
T5
X12.6031Y-4.6716
X12.6031Y-4.8684
X12.8Y-4.77
T6
X12.615Y-4.26
X12.8Y-4.26
X12.985Y-4.26
T7
X14.4413Y-4.337
T8
X14.55Y-4.95
X14.55Y-4.15
X12.15Y-4.95
X12.15Y-4.15
T0
M30
