G04 #@! TF.GenerationSoftware,KiCad,Pcbnew,(5.1.4)-1*
G04 #@! TF.CreationDate,2019-11-02T17:27:44+00:00*
G04 #@! TF.ProjectId,timer-board,74696d65-722d-4626-9f61-72642e6b6963,rev?*
G04 #@! TF.SameCoordinates,Original*
G04 #@! TF.FileFunction,Soldermask,Bot*
G04 #@! TF.FilePolarity,Negative*
%FSLAX46Y46*%
G04 Gerber Fmt 4.6, Leading zero omitted, Abs format (unit mm)*
G04 Created by KiCad (PCBNEW (5.1.4)-1) date 2019-11-02 17:27:44*
%MOMM*%
%LPD*%
G04 APERTURE LIST*
%ADD10C,0.100000*%
G04 APERTURE END LIST*
D10*
G36*
X320476564Y-122861389D02*
G01*
X320667833Y-122940615D01*
X320667835Y-122940616D01*
X320839973Y-123055635D01*
X320986365Y-123202027D01*
X321101385Y-123374167D01*
X321180611Y-123565436D01*
X321221000Y-123768484D01*
X321221000Y-123975516D01*
X321180611Y-124178564D01*
X321101385Y-124369833D01*
X321101384Y-124369835D01*
X320986365Y-124541973D01*
X320839973Y-124688365D01*
X320667835Y-124803384D01*
X320667834Y-124803385D01*
X320667833Y-124803385D01*
X320476564Y-124882611D01*
X320273516Y-124923000D01*
X320066484Y-124923000D01*
X319863436Y-124882611D01*
X319672167Y-124803385D01*
X319672166Y-124803385D01*
X319672165Y-124803384D01*
X319500027Y-124688365D01*
X319353635Y-124541973D01*
X319238616Y-124369835D01*
X319238615Y-124369833D01*
X319159389Y-124178564D01*
X319119000Y-123975516D01*
X319119000Y-123768484D01*
X319159389Y-123565436D01*
X319238615Y-123374167D01*
X319353635Y-123202027D01*
X319500027Y-123055635D01*
X319672165Y-122940616D01*
X319672167Y-122940615D01*
X319863436Y-122861389D01*
X320066484Y-122821000D01*
X320273516Y-122821000D01*
X320476564Y-122861389D01*
X320476564Y-122861389D01*
G37*
G36*
X325376564Y-120361389D02*
G01*
X325567833Y-120440615D01*
X325567835Y-120440616D01*
X325711539Y-120536636D01*
X325739973Y-120555635D01*
X325886365Y-120702027D01*
X326001385Y-120874167D01*
X326080611Y-121065436D01*
X326121000Y-121268484D01*
X326121000Y-121475516D01*
X326080611Y-121678564D01*
X326048218Y-121756768D01*
X326001384Y-121869835D01*
X325886365Y-122041973D01*
X325739973Y-122188365D01*
X325567835Y-122303384D01*
X325567834Y-122303385D01*
X325567833Y-122303385D01*
X325376564Y-122382611D01*
X325173516Y-122423000D01*
X324966484Y-122423000D01*
X324763436Y-122382611D01*
X324572167Y-122303385D01*
X324572166Y-122303385D01*
X324572165Y-122303384D01*
X324400027Y-122188365D01*
X324253635Y-122041973D01*
X324138616Y-121869835D01*
X324091782Y-121756768D01*
X324059389Y-121678564D01*
X324019000Y-121475516D01*
X324019000Y-121268484D01*
X324059389Y-121065436D01*
X324138615Y-120874167D01*
X324253635Y-120702027D01*
X324400027Y-120555635D01*
X324428461Y-120536636D01*
X324572165Y-120440616D01*
X324572167Y-120440615D01*
X324763436Y-120361389D01*
X324966484Y-120321000D01*
X325173516Y-120321000D01*
X325376564Y-120361389D01*
X325376564Y-120361389D01*
G37*
G36*
X311120549Y-119521116D02*
G01*
X311231734Y-119543232D01*
X311441203Y-119629997D01*
X311629720Y-119755960D01*
X311790040Y-119916280D01*
X311916003Y-120104797D01*
X312002768Y-120314266D01*
X312024884Y-120425451D01*
X312027901Y-120440616D01*
X312047000Y-120536636D01*
X312047000Y-120763364D01*
X312002768Y-120985734D01*
X311916003Y-121195203D01*
X311790040Y-121383720D01*
X311629720Y-121544040D01*
X311441203Y-121670003D01*
X311231734Y-121756768D01*
X311120549Y-121778884D01*
X311009365Y-121801000D01*
X310782635Y-121801000D01*
X310671451Y-121778884D01*
X310560266Y-121756768D01*
X310350797Y-121670003D01*
X310162280Y-121544040D01*
X310001960Y-121383720D01*
X309875997Y-121195203D01*
X309789232Y-120985734D01*
X309745000Y-120763364D01*
X309745000Y-120536636D01*
X309764100Y-120440616D01*
X309767116Y-120425451D01*
X309789232Y-120314266D01*
X309875997Y-120104797D01*
X310001960Y-119916280D01*
X310162280Y-119755960D01*
X310350797Y-119629997D01*
X310560266Y-119543232D01*
X310671451Y-119521116D01*
X310782635Y-119499000D01*
X311009365Y-119499000D01*
X311120549Y-119521116D01*
X311120549Y-119521116D01*
G37*
G36*
X360028442Y-118485518D02*
G01*
X360094627Y-118492037D01*
X360264466Y-118543557D01*
X360420991Y-118627222D01*
X360456729Y-118656552D01*
X360558186Y-118739814D01*
X360641448Y-118841271D01*
X360670778Y-118877009D01*
X360670779Y-118877011D01*
X360723432Y-118975516D01*
X360754443Y-119033534D01*
X360805963Y-119203373D01*
X360823359Y-119380000D01*
X360805963Y-119556627D01*
X360754443Y-119726466D01*
X360670778Y-119882991D01*
X360656667Y-119900185D01*
X360558186Y-120020186D01*
X360465266Y-120096442D01*
X360420991Y-120132778D01*
X360264466Y-120216443D01*
X360094627Y-120267963D01*
X360028442Y-120274482D01*
X359962260Y-120281000D01*
X359873740Y-120281000D01*
X359807558Y-120274482D01*
X359741373Y-120267963D01*
X359571534Y-120216443D01*
X359415009Y-120132778D01*
X359370734Y-120096442D01*
X359277814Y-120020186D01*
X359179333Y-119900185D01*
X359165222Y-119882991D01*
X359081557Y-119726466D01*
X359030037Y-119556627D01*
X359012641Y-119380000D01*
X359030037Y-119203373D01*
X359081557Y-119033534D01*
X359112569Y-118975516D01*
X359165221Y-118877011D01*
X359165222Y-118877009D01*
X359194552Y-118841271D01*
X359277814Y-118739814D01*
X359379271Y-118656552D01*
X359415009Y-118627222D01*
X359571534Y-118543557D01*
X359741373Y-118492037D01*
X359807558Y-118485518D01*
X359873740Y-118479000D01*
X359962260Y-118479000D01*
X360028442Y-118485518D01*
X360028442Y-118485518D01*
G37*
G36*
X369043443Y-118365519D02*
G01*
X369109627Y-118372037D01*
X369279466Y-118423557D01*
X369435991Y-118507222D01*
X369471729Y-118536552D01*
X369573186Y-118619814D01*
X369656448Y-118721271D01*
X369685778Y-118757009D01*
X369769443Y-118913534D01*
X369820963Y-119083373D01*
X369838359Y-119260000D01*
X369820963Y-119436627D01*
X369769443Y-119606466D01*
X369685778Y-119762991D01*
X369656448Y-119798729D01*
X369573186Y-119900186D01*
X369471729Y-119983448D01*
X369435991Y-120012778D01*
X369279466Y-120096443D01*
X369109627Y-120147963D01*
X369043442Y-120154482D01*
X368977260Y-120161000D01*
X368638740Y-120161000D01*
X368572558Y-120154482D01*
X368506373Y-120147963D01*
X368336534Y-120096443D01*
X368180009Y-120012778D01*
X368144271Y-119983448D01*
X368042814Y-119900186D01*
X367959552Y-119798729D01*
X367930222Y-119762991D01*
X367846557Y-119606466D01*
X367795037Y-119436627D01*
X367777641Y-119260000D01*
X367795037Y-119083373D01*
X367846557Y-118913534D01*
X367930222Y-118757009D01*
X367959552Y-118721271D01*
X368042814Y-118619814D01*
X368144271Y-118536552D01*
X368180009Y-118507222D01*
X368336534Y-118423557D01*
X368506373Y-118372037D01*
X368572557Y-118365519D01*
X368638740Y-118359000D01*
X368977260Y-118359000D01*
X369043443Y-118365519D01*
X369043443Y-118365519D01*
G37*
G36*
X320476564Y-117861389D02*
G01*
X320667833Y-117940615D01*
X320667835Y-117940616D01*
X320839973Y-118055635D01*
X320986365Y-118202027D01*
X321101385Y-118374167D01*
X321180611Y-118565436D01*
X321221000Y-118768484D01*
X321221000Y-118975516D01*
X321180611Y-119178564D01*
X321146879Y-119260000D01*
X321101384Y-119369835D01*
X320986365Y-119541973D01*
X320839973Y-119688365D01*
X320667835Y-119803384D01*
X320667834Y-119803385D01*
X320667833Y-119803385D01*
X320476564Y-119882611D01*
X320273516Y-119923000D01*
X320066484Y-119923000D01*
X319863436Y-119882611D01*
X319672167Y-119803385D01*
X319672166Y-119803385D01*
X319672165Y-119803384D01*
X319500027Y-119688365D01*
X319353635Y-119541973D01*
X319238616Y-119369835D01*
X319193121Y-119260000D01*
X319159389Y-119178564D01*
X319119000Y-118975516D01*
X319119000Y-118768484D01*
X319159389Y-118565436D01*
X319238615Y-118374167D01*
X319353635Y-118202027D01*
X319500027Y-118055635D01*
X319672165Y-117940616D01*
X319672167Y-117940615D01*
X319863436Y-117861389D01*
X320066484Y-117821000D01*
X320273516Y-117821000D01*
X320476564Y-117861389D01*
X320476564Y-117861389D01*
G37*
G36*
X360819000Y-117741000D02*
G01*
X359017000Y-117741000D01*
X359017000Y-115939000D01*
X360819000Y-115939000D01*
X360819000Y-117741000D01*
X360819000Y-117741000D01*
G37*
G36*
X369043442Y-115865518D02*
G01*
X369109627Y-115872037D01*
X369279466Y-115923557D01*
X369435991Y-116007222D01*
X369471729Y-116036552D01*
X369573186Y-116119814D01*
X369656448Y-116221271D01*
X369685778Y-116257009D01*
X369769443Y-116413534D01*
X369820963Y-116583373D01*
X369838359Y-116760000D01*
X369820963Y-116936627D01*
X369769443Y-117106466D01*
X369685778Y-117262991D01*
X369656448Y-117298729D01*
X369573186Y-117400186D01*
X369471729Y-117483448D01*
X369435991Y-117512778D01*
X369279466Y-117596443D01*
X369109627Y-117647963D01*
X369043442Y-117654482D01*
X368977260Y-117661000D01*
X368638740Y-117661000D01*
X368572558Y-117654482D01*
X368506373Y-117647963D01*
X368336534Y-117596443D01*
X368180009Y-117512778D01*
X368144271Y-117483448D01*
X368042814Y-117400186D01*
X367959552Y-117298729D01*
X367930222Y-117262991D01*
X367846557Y-117106466D01*
X367795037Y-116936627D01*
X367777641Y-116760000D01*
X367795037Y-116583373D01*
X367846557Y-116413534D01*
X367930222Y-116257009D01*
X367959552Y-116221271D01*
X368042814Y-116119814D01*
X368144271Y-116036552D01*
X368180009Y-116007222D01*
X368336534Y-115923557D01*
X368506373Y-115872037D01*
X368572558Y-115865518D01*
X368638740Y-115859000D01*
X368977260Y-115859000D01*
X369043442Y-115865518D01*
X369043442Y-115865518D01*
G37*
G36*
X311097971Y-114436625D02*
G01*
X311231734Y-114463232D01*
X311441203Y-114549997D01*
X311629720Y-114675960D01*
X311790040Y-114836280D01*
X311916003Y-115024797D01*
X312002768Y-115234266D01*
X312047000Y-115456636D01*
X312047000Y-115683364D01*
X312002768Y-115905734D01*
X311916003Y-116115203D01*
X311790040Y-116303720D01*
X311629720Y-116464040D01*
X311441203Y-116590003D01*
X311231734Y-116676768D01*
X311120549Y-116698884D01*
X311009365Y-116721000D01*
X310782635Y-116721000D01*
X310671451Y-116698884D01*
X310560266Y-116676768D01*
X310350797Y-116590003D01*
X310162280Y-116464040D01*
X310001960Y-116303720D01*
X309875997Y-116115203D01*
X309789232Y-115905734D01*
X309745000Y-115683364D01*
X309745000Y-115456636D01*
X309789232Y-115234266D01*
X309875997Y-115024797D01*
X310001960Y-114836280D01*
X310162280Y-114675960D01*
X310350797Y-114549997D01*
X310560266Y-114463232D01*
X310694029Y-114436625D01*
X310782635Y-114419000D01*
X311009365Y-114419000D01*
X311097971Y-114436625D01*
X311097971Y-114436625D01*
G37*
G36*
X369043442Y-113365518D02*
G01*
X369109627Y-113372037D01*
X369279466Y-113423557D01*
X369435991Y-113507222D01*
X369471729Y-113536552D01*
X369573186Y-113619814D01*
X369656448Y-113721271D01*
X369685778Y-113757009D01*
X369769443Y-113913534D01*
X369820963Y-114083373D01*
X369838359Y-114260000D01*
X369820963Y-114436627D01*
X369769443Y-114606466D01*
X369685778Y-114762991D01*
X369656448Y-114798729D01*
X369573186Y-114900186D01*
X369471729Y-114983448D01*
X369435991Y-115012778D01*
X369279466Y-115096443D01*
X369109627Y-115147963D01*
X369043442Y-115154482D01*
X368977260Y-115161000D01*
X368638740Y-115161000D01*
X368572558Y-115154482D01*
X368506373Y-115147963D01*
X368336534Y-115096443D01*
X368180009Y-115012778D01*
X368144271Y-114983448D01*
X368042814Y-114900186D01*
X367959552Y-114798729D01*
X367930222Y-114762991D01*
X367846557Y-114606466D01*
X367795037Y-114436627D01*
X367777641Y-114260000D01*
X367795037Y-114083373D01*
X367846557Y-113913534D01*
X367930222Y-113757009D01*
X367959552Y-113721271D01*
X368042814Y-113619814D01*
X368144271Y-113536552D01*
X368180009Y-113507222D01*
X368336534Y-113423557D01*
X368506373Y-113372037D01*
X368572558Y-113365518D01*
X368638740Y-113359000D01*
X368977260Y-113359000D01*
X369043442Y-113365518D01*
X369043442Y-113365518D01*
G37*
G36*
X360028442Y-111627518D02*
G01*
X360094627Y-111634037D01*
X360264466Y-111685557D01*
X360420991Y-111769222D01*
X360456729Y-111798552D01*
X360558186Y-111881814D01*
X360641448Y-111983271D01*
X360670778Y-112019009D01*
X360754443Y-112175534D01*
X360805963Y-112345373D01*
X360823359Y-112522000D01*
X360805963Y-112698627D01*
X360754443Y-112868466D01*
X360670778Y-113024991D01*
X360641448Y-113060729D01*
X360558186Y-113162186D01*
X360456729Y-113245448D01*
X360420991Y-113274778D01*
X360264466Y-113358443D01*
X360094627Y-113409963D01*
X360028442Y-113416482D01*
X359962260Y-113423000D01*
X359873740Y-113423000D01*
X359807558Y-113416482D01*
X359741373Y-113409963D01*
X359571534Y-113358443D01*
X359415009Y-113274778D01*
X359379271Y-113245448D01*
X359277814Y-113162186D01*
X359194552Y-113060729D01*
X359165222Y-113024991D01*
X359081557Y-112868466D01*
X359030037Y-112698627D01*
X359012641Y-112522000D01*
X359030037Y-112345373D01*
X359081557Y-112175534D01*
X359165222Y-112019009D01*
X359194552Y-111983271D01*
X359277814Y-111881814D01*
X359379271Y-111798552D01*
X359415009Y-111769222D01*
X359571534Y-111685557D01*
X359741373Y-111634037D01*
X359807558Y-111627518D01*
X359873740Y-111621000D01*
X359962260Y-111621000D01*
X360028442Y-111627518D01*
X360028442Y-111627518D01*
G37*
G36*
X369691600Y-110862989D02*
G01*
X369724652Y-110873015D01*
X369755103Y-110889292D01*
X369781799Y-110911201D01*
X369803708Y-110937897D01*
X369819985Y-110968348D01*
X369830011Y-111001400D01*
X369834000Y-111041903D01*
X369834000Y-112478097D01*
X369830011Y-112518600D01*
X369819985Y-112551652D01*
X369803708Y-112582103D01*
X369781799Y-112608799D01*
X369755103Y-112630708D01*
X369724652Y-112646985D01*
X369691600Y-112657011D01*
X369651097Y-112661000D01*
X367964903Y-112661000D01*
X367924400Y-112657011D01*
X367891348Y-112646985D01*
X367860897Y-112630708D01*
X367834201Y-112608799D01*
X367812292Y-112582103D01*
X367796015Y-112551652D01*
X367785989Y-112518600D01*
X367782000Y-112478097D01*
X367782000Y-111041903D01*
X367785989Y-111001400D01*
X367796015Y-110968348D01*
X367812292Y-110937897D01*
X367834201Y-110911201D01*
X367860897Y-110889292D01*
X367891348Y-110873015D01*
X367924400Y-110862989D01*
X367964903Y-110859000D01*
X369651097Y-110859000D01*
X369691600Y-110862989D01*
X369691600Y-110862989D01*
G37*
G36*
X312047000Y-111641000D02*
G01*
X309745000Y-111641000D01*
X309745000Y-109339000D01*
X312047000Y-109339000D01*
X312047000Y-111641000D01*
X312047000Y-111641000D01*
G37*
G36*
X360819000Y-110883000D02*
G01*
X359017000Y-110883000D01*
X359017000Y-109081000D01*
X360819000Y-109081000D01*
X360819000Y-110883000D01*
X360819000Y-110883000D01*
G37*
G36*
X366997890Y-109534017D02*
G01*
X367116364Y-109583091D01*
X367222988Y-109654335D01*
X367313665Y-109745012D01*
X367384910Y-109851638D01*
X367412812Y-109919000D01*
X367433983Y-109970110D01*
X367459000Y-110095882D01*
X367459000Y-110224118D01*
X367433983Y-110349890D01*
X367384909Y-110468364D01*
X367313665Y-110574988D01*
X367222988Y-110665665D01*
X367116364Y-110736909D01*
X367116363Y-110736910D01*
X367116362Y-110736910D01*
X366997890Y-110785983D01*
X366872119Y-110811000D01*
X366743881Y-110811000D01*
X366618110Y-110785983D01*
X366499638Y-110736910D01*
X366499637Y-110736910D01*
X366499636Y-110736909D01*
X366393012Y-110665665D01*
X366302335Y-110574988D01*
X366231091Y-110468364D01*
X366182017Y-110349890D01*
X366157000Y-110224118D01*
X366157000Y-110095882D01*
X366182017Y-109970110D01*
X366203188Y-109919000D01*
X366231090Y-109851638D01*
X366302335Y-109745012D01*
X366393012Y-109654335D01*
X366499636Y-109583091D01*
X366618110Y-109534017D01*
X366743881Y-109509000D01*
X366872119Y-109509000D01*
X366997890Y-109534017D01*
X366997890Y-109534017D01*
G37*
G36*
X329870256Y-106659298D02*
G01*
X329976579Y-106680447D01*
X330277042Y-106804903D01*
X330547451Y-106985585D01*
X330777415Y-107215549D01*
X330958097Y-107485958D01*
X331082553Y-107786421D01*
X331146000Y-108105391D01*
X331146000Y-108430609D01*
X331082553Y-108749579D01*
X330958097Y-109050042D01*
X330777415Y-109320451D01*
X330547451Y-109550415D01*
X330277042Y-109731097D01*
X330277041Y-109731098D01*
X330277040Y-109731098D01*
X330189037Y-109767550D01*
X329976579Y-109855553D01*
X329870256Y-109876702D01*
X329657611Y-109919000D01*
X329332389Y-109919000D01*
X329119744Y-109876702D01*
X329013421Y-109855553D01*
X328800963Y-109767550D01*
X328712960Y-109731098D01*
X328712959Y-109731098D01*
X328712958Y-109731097D01*
X328442549Y-109550415D01*
X328212585Y-109320451D01*
X328031903Y-109050042D01*
X327907447Y-108749579D01*
X327844000Y-108430609D01*
X327844000Y-108105391D01*
X327907447Y-107786421D01*
X328031903Y-107485958D01*
X328212585Y-107215549D01*
X328442549Y-106985585D01*
X328712958Y-106804903D01*
X329013421Y-106680447D01*
X329119744Y-106659298D01*
X329332389Y-106617000D01*
X329657611Y-106617000D01*
X329870256Y-106659298D01*
X329870256Y-106659298D01*
G37*
G36*
X325495256Y-106659298D02*
G01*
X325601579Y-106680447D01*
X325902042Y-106804903D01*
X326172451Y-106985585D01*
X326402415Y-107215549D01*
X326583097Y-107485958D01*
X326707553Y-107786421D01*
X326771000Y-108105391D01*
X326771000Y-108430609D01*
X326707553Y-108749579D01*
X326583097Y-109050042D01*
X326402415Y-109320451D01*
X326172451Y-109550415D01*
X325902042Y-109731097D01*
X325902041Y-109731098D01*
X325902040Y-109731098D01*
X325814037Y-109767550D01*
X325601579Y-109855553D01*
X325495256Y-109876702D01*
X325282611Y-109919000D01*
X324957389Y-109919000D01*
X324744744Y-109876702D01*
X324638421Y-109855553D01*
X324425963Y-109767550D01*
X324337960Y-109731098D01*
X324337959Y-109731098D01*
X324337958Y-109731097D01*
X324067549Y-109550415D01*
X323837585Y-109320451D01*
X323656903Y-109050042D01*
X323532447Y-108749579D01*
X323469000Y-108430609D01*
X323469000Y-108105391D01*
X323532447Y-107786421D01*
X323656903Y-107485958D01*
X323837585Y-107215549D01*
X324067549Y-106985585D01*
X324337958Y-106804903D01*
X324638421Y-106680447D01*
X324744744Y-106659298D01*
X324957389Y-106617000D01*
X325282611Y-106617000D01*
X325495256Y-106659298D01*
X325495256Y-106659298D01*
G37*
G36*
X322396000Y-109919000D02*
G01*
X319094000Y-109919000D01*
X319094000Y-106617000D01*
X322396000Y-106617000D01*
X322396000Y-109919000D01*
X322396000Y-109919000D01*
G37*
M02*
