G04 #@! TF.GenerationSoftware,KiCad,Pcbnew,(5.1.4)-1*
G04 #@! TF.CreationDate,2019-10-30T18:57:56+00:00*
G04 #@! TF.ProjectId,timer-board,74696d65-722d-4626-9f61-72642e6b6963,rev?*
G04 #@! TF.SameCoordinates,Original*
G04 #@! TF.FileFunction,Soldermask,Bot*
G04 #@! TF.FilePolarity,Negative*
%FSLAX46Y46*%
G04 Gerber Fmt 4.6, Leading zero omitted, Abs format (unit mm)*
G04 Created by KiCad (PCBNEW (5.1.4)-1) date 2019-10-30 18:57:56*
%MOMM*%
%LPD*%
G04 APERTURE LIST*
%ADD10C,0.100000*%
G04 APERTURE END LIST*
D10*
G36*
X320358205Y-122460461D02*
G01*
X320476153Y-122483922D01*
X320568194Y-122522047D01*
X320698359Y-122575963D01*
X320898342Y-122709587D01*
X321068413Y-122879658D01*
X321202037Y-123079641D01*
X321294078Y-123301848D01*
X321341000Y-123537741D01*
X321341000Y-123778259D01*
X321294078Y-124014152D01*
X321202037Y-124236359D01*
X321068413Y-124436342D01*
X320898342Y-124606413D01*
X320698359Y-124740037D01*
X320568194Y-124793953D01*
X320476153Y-124832078D01*
X320240259Y-124879000D01*
X319999741Y-124879000D01*
X319763847Y-124832078D01*
X319671806Y-124793953D01*
X319541641Y-124740037D01*
X319341658Y-124606413D01*
X319171587Y-124436342D01*
X319037963Y-124236359D01*
X318945922Y-124014152D01*
X318899000Y-123778259D01*
X318899000Y-123537741D01*
X318945922Y-123301848D01*
X319037963Y-123079641D01*
X319171587Y-122879658D01*
X319341658Y-122709587D01*
X319541641Y-122575963D01*
X319671806Y-122522047D01*
X319763847Y-122483922D01*
X319881795Y-122460461D01*
X319999741Y-122437000D01*
X320240259Y-122437000D01*
X320358205Y-122460461D01*
X320358205Y-122460461D01*
G37*
G36*
X325476153Y-119983922D02*
G01*
X325545817Y-120012778D01*
X325698359Y-120075963D01*
X325898342Y-120209587D01*
X326068413Y-120379658D01*
X326202037Y-120579641D01*
X326255953Y-120709806D01*
X326278138Y-120763364D01*
X326294078Y-120801848D01*
X326341000Y-121037741D01*
X326341000Y-121278259D01*
X326294078Y-121514152D01*
X326202037Y-121736359D01*
X326068413Y-121936342D01*
X325898342Y-122106413D01*
X325698359Y-122240037D01*
X325568194Y-122293953D01*
X325476153Y-122332078D01*
X325358205Y-122355539D01*
X325240259Y-122379000D01*
X324999741Y-122379000D01*
X324881795Y-122355539D01*
X324763847Y-122332078D01*
X324671806Y-122293953D01*
X324541641Y-122240037D01*
X324341658Y-122106413D01*
X324171587Y-121936342D01*
X324037963Y-121736359D01*
X323945922Y-121514152D01*
X323899000Y-121278259D01*
X323899000Y-121037741D01*
X323945922Y-120801848D01*
X323961863Y-120763364D01*
X323984047Y-120709806D01*
X324037963Y-120579641D01*
X324171587Y-120379658D01*
X324341658Y-120209587D01*
X324541641Y-120075963D01*
X324694183Y-120012778D01*
X324763847Y-119983922D01*
X324999741Y-119937000D01*
X325240259Y-119937000D01*
X325476153Y-119983922D01*
X325476153Y-119983922D01*
G37*
G36*
X311120549Y-119521116D02*
G01*
X311231734Y-119543232D01*
X311441203Y-119629997D01*
X311629720Y-119755960D01*
X311790040Y-119916280D01*
X311916003Y-120104797D01*
X312002768Y-120314266D01*
X312047000Y-120536636D01*
X312047000Y-120763364D01*
X312002768Y-120985734D01*
X311916003Y-121195203D01*
X311790040Y-121383720D01*
X311629720Y-121544040D01*
X311441203Y-121670003D01*
X311231734Y-121756768D01*
X311120549Y-121778884D01*
X311009365Y-121801000D01*
X310782635Y-121801000D01*
X310671451Y-121778884D01*
X310560266Y-121756768D01*
X310350797Y-121670003D01*
X310162280Y-121544040D01*
X310001960Y-121383720D01*
X309875997Y-121195203D01*
X309789232Y-120985734D01*
X309745000Y-120763364D01*
X309745000Y-120536636D01*
X309789232Y-120314266D01*
X309875997Y-120104797D01*
X310001960Y-119916280D01*
X310162280Y-119755960D01*
X310350797Y-119629997D01*
X310560266Y-119543232D01*
X310671451Y-119521116D01*
X310782635Y-119499000D01*
X311009365Y-119499000D01*
X311120549Y-119521116D01*
X311120549Y-119521116D01*
G37*
G36*
X360028442Y-118485518D02*
G01*
X360094627Y-118492037D01*
X360264466Y-118543557D01*
X360420991Y-118627222D01*
X360456729Y-118656552D01*
X360558186Y-118739814D01*
X360641448Y-118841271D01*
X360670778Y-118877009D01*
X360754443Y-119033534D01*
X360805963Y-119203373D01*
X360823359Y-119380000D01*
X360805963Y-119556627D01*
X360754443Y-119726466D01*
X360670778Y-119882991D01*
X360656667Y-119900185D01*
X360558186Y-120020186D01*
X360490219Y-120075964D01*
X360420991Y-120132778D01*
X360264466Y-120216443D01*
X360094627Y-120267963D01*
X360028442Y-120274482D01*
X359962260Y-120281000D01*
X359873740Y-120281000D01*
X359807558Y-120274482D01*
X359741373Y-120267963D01*
X359571534Y-120216443D01*
X359415009Y-120132778D01*
X359345781Y-120075964D01*
X359277814Y-120020186D01*
X359179333Y-119900185D01*
X359165222Y-119882991D01*
X359081557Y-119726466D01*
X359030037Y-119556627D01*
X359012641Y-119380000D01*
X359030037Y-119203373D01*
X359081557Y-119033534D01*
X359165222Y-118877009D01*
X359194552Y-118841271D01*
X359277814Y-118739814D01*
X359379271Y-118656552D01*
X359415009Y-118627222D01*
X359571534Y-118543557D01*
X359741373Y-118492037D01*
X359807558Y-118485518D01*
X359873740Y-118479000D01*
X359962260Y-118479000D01*
X360028442Y-118485518D01*
X360028442Y-118485518D01*
G37*
G36*
X369043443Y-118365519D02*
G01*
X369109627Y-118372037D01*
X369279466Y-118423557D01*
X369435991Y-118507222D01*
X369471729Y-118536552D01*
X369573186Y-118619814D01*
X369656448Y-118721271D01*
X369685778Y-118757009D01*
X369769443Y-118913534D01*
X369820963Y-119083373D01*
X369838359Y-119260000D01*
X369820963Y-119436627D01*
X369769443Y-119606466D01*
X369685778Y-119762991D01*
X369656448Y-119798729D01*
X369573186Y-119900186D01*
X369471729Y-119983448D01*
X369435991Y-120012778D01*
X369279466Y-120096443D01*
X369109627Y-120147963D01*
X369043442Y-120154482D01*
X368977260Y-120161000D01*
X368638740Y-120161000D01*
X368572558Y-120154482D01*
X368506373Y-120147963D01*
X368336534Y-120096443D01*
X368180009Y-120012778D01*
X368144271Y-119983448D01*
X368042814Y-119900186D01*
X367959552Y-119798729D01*
X367930222Y-119762991D01*
X367846557Y-119606466D01*
X367795037Y-119436627D01*
X367777641Y-119260000D01*
X367795037Y-119083373D01*
X367846557Y-118913534D01*
X367930222Y-118757009D01*
X367959552Y-118721271D01*
X368042814Y-118619814D01*
X368144271Y-118536552D01*
X368180009Y-118507222D01*
X368336534Y-118423557D01*
X368506373Y-118372037D01*
X368572557Y-118365519D01*
X368638740Y-118359000D01*
X368977260Y-118359000D01*
X369043443Y-118365519D01*
X369043443Y-118365519D01*
G37*
G36*
X320476153Y-117483922D02*
G01*
X320545817Y-117512778D01*
X320698359Y-117575963D01*
X320898342Y-117709587D01*
X321068413Y-117879658D01*
X321202037Y-118079641D01*
X321255953Y-118209806D01*
X321294078Y-118301847D01*
X321341000Y-118537741D01*
X321341000Y-118778259D01*
X321294078Y-119014152D01*
X321202037Y-119236359D01*
X321068413Y-119436342D01*
X320898342Y-119606413D01*
X320698359Y-119740037D01*
X320568194Y-119793953D01*
X320476153Y-119832078D01*
X320358205Y-119855539D01*
X320240259Y-119879000D01*
X319999741Y-119879000D01*
X319881795Y-119855539D01*
X319763847Y-119832078D01*
X319671806Y-119793953D01*
X319541641Y-119740037D01*
X319341658Y-119606413D01*
X319171587Y-119436342D01*
X319037963Y-119236359D01*
X318945922Y-119014152D01*
X318899000Y-118778259D01*
X318899000Y-118537741D01*
X318945922Y-118301847D01*
X318984047Y-118209806D01*
X319037963Y-118079641D01*
X319171587Y-117879658D01*
X319341658Y-117709587D01*
X319541641Y-117575963D01*
X319694183Y-117512778D01*
X319763847Y-117483922D01*
X319999741Y-117437000D01*
X320240259Y-117437000D01*
X320476153Y-117483922D01*
X320476153Y-117483922D01*
G37*
G36*
X360819000Y-117741000D02*
G01*
X359017000Y-117741000D01*
X359017000Y-115939000D01*
X360819000Y-115939000D01*
X360819000Y-117741000D01*
X360819000Y-117741000D01*
G37*
G36*
X369043442Y-115865518D02*
G01*
X369109627Y-115872037D01*
X369279466Y-115923557D01*
X369435991Y-116007222D01*
X369471729Y-116036552D01*
X369573186Y-116119814D01*
X369656448Y-116221271D01*
X369685778Y-116257009D01*
X369769443Y-116413534D01*
X369820963Y-116583373D01*
X369838359Y-116760000D01*
X369820963Y-116936627D01*
X369769443Y-117106466D01*
X369685778Y-117262991D01*
X369656448Y-117298729D01*
X369573186Y-117400186D01*
X369471729Y-117483448D01*
X369435991Y-117512778D01*
X369279466Y-117596443D01*
X369109627Y-117647963D01*
X369043442Y-117654482D01*
X368977260Y-117661000D01*
X368638740Y-117661000D01*
X368572558Y-117654482D01*
X368506373Y-117647963D01*
X368336534Y-117596443D01*
X368180009Y-117512778D01*
X368144271Y-117483448D01*
X368042814Y-117400186D01*
X367959552Y-117298729D01*
X367930222Y-117262991D01*
X367846557Y-117106466D01*
X367795037Y-116936627D01*
X367777641Y-116760000D01*
X367795037Y-116583373D01*
X367846557Y-116413534D01*
X367930222Y-116257009D01*
X367959552Y-116221271D01*
X368042814Y-116119814D01*
X368144271Y-116036552D01*
X368180009Y-116007222D01*
X368336534Y-115923557D01*
X368506373Y-115872037D01*
X368572558Y-115865518D01*
X368638740Y-115859000D01*
X368977260Y-115859000D01*
X369043442Y-115865518D01*
X369043442Y-115865518D01*
G37*
G36*
X311097971Y-114436625D02*
G01*
X311231734Y-114463232D01*
X311441203Y-114549997D01*
X311629720Y-114675960D01*
X311790040Y-114836280D01*
X311916003Y-115024797D01*
X312002768Y-115234266D01*
X312047000Y-115456636D01*
X312047000Y-115683364D01*
X312002768Y-115905734D01*
X311916003Y-116115203D01*
X311790040Y-116303720D01*
X311629720Y-116464040D01*
X311441203Y-116590003D01*
X311231734Y-116676768D01*
X311120549Y-116698884D01*
X311009365Y-116721000D01*
X310782635Y-116721000D01*
X310671451Y-116698884D01*
X310560266Y-116676768D01*
X310350797Y-116590003D01*
X310162280Y-116464040D01*
X310001960Y-116303720D01*
X309875997Y-116115203D01*
X309789232Y-115905734D01*
X309745000Y-115683364D01*
X309745000Y-115456636D01*
X309789232Y-115234266D01*
X309875997Y-115024797D01*
X310001960Y-114836280D01*
X310162280Y-114675960D01*
X310350797Y-114549997D01*
X310560266Y-114463232D01*
X310694029Y-114436625D01*
X310782635Y-114419000D01*
X311009365Y-114419000D01*
X311097971Y-114436625D01*
X311097971Y-114436625D01*
G37*
G36*
X369043442Y-113365518D02*
G01*
X369109627Y-113372037D01*
X369279466Y-113423557D01*
X369435991Y-113507222D01*
X369471729Y-113536552D01*
X369573186Y-113619814D01*
X369656448Y-113721271D01*
X369685778Y-113757009D01*
X369769443Y-113913534D01*
X369820963Y-114083373D01*
X369838359Y-114260000D01*
X369820963Y-114436627D01*
X369769443Y-114606466D01*
X369685778Y-114762991D01*
X369656448Y-114798729D01*
X369573186Y-114900186D01*
X369471729Y-114983448D01*
X369435991Y-115012778D01*
X369279466Y-115096443D01*
X369109627Y-115147963D01*
X369043442Y-115154482D01*
X368977260Y-115161000D01*
X368638740Y-115161000D01*
X368572558Y-115154482D01*
X368506373Y-115147963D01*
X368336534Y-115096443D01*
X368180009Y-115012778D01*
X368144271Y-114983448D01*
X368042814Y-114900186D01*
X367959552Y-114798729D01*
X367930222Y-114762991D01*
X367846557Y-114606466D01*
X367795037Y-114436627D01*
X367777641Y-114260000D01*
X367795037Y-114083373D01*
X367846557Y-113913534D01*
X367930222Y-113757009D01*
X367959552Y-113721271D01*
X368042814Y-113619814D01*
X368144271Y-113536552D01*
X368180009Y-113507222D01*
X368336534Y-113423557D01*
X368506373Y-113372037D01*
X368572558Y-113365518D01*
X368638740Y-113359000D01*
X368977260Y-113359000D01*
X369043442Y-113365518D01*
X369043442Y-113365518D01*
G37*
G36*
X360028442Y-111627518D02*
G01*
X360094627Y-111634037D01*
X360264466Y-111685557D01*
X360420991Y-111769222D01*
X360456729Y-111798552D01*
X360558186Y-111881814D01*
X360641448Y-111983271D01*
X360670778Y-112019009D01*
X360754443Y-112175534D01*
X360805963Y-112345373D01*
X360823359Y-112522000D01*
X360805963Y-112698627D01*
X360754443Y-112868466D01*
X360670778Y-113024991D01*
X360641448Y-113060729D01*
X360558186Y-113162186D01*
X360456729Y-113245448D01*
X360420991Y-113274778D01*
X360264466Y-113358443D01*
X360094627Y-113409963D01*
X360028442Y-113416482D01*
X359962260Y-113423000D01*
X359873740Y-113423000D01*
X359807558Y-113416482D01*
X359741373Y-113409963D01*
X359571534Y-113358443D01*
X359415009Y-113274778D01*
X359379271Y-113245448D01*
X359277814Y-113162186D01*
X359194552Y-113060729D01*
X359165222Y-113024991D01*
X359081557Y-112868466D01*
X359030037Y-112698627D01*
X359012641Y-112522000D01*
X359030037Y-112345373D01*
X359081557Y-112175534D01*
X359165222Y-112019009D01*
X359194552Y-111983271D01*
X359277814Y-111881814D01*
X359379271Y-111798552D01*
X359415009Y-111769222D01*
X359571534Y-111685557D01*
X359741373Y-111634037D01*
X359807558Y-111627518D01*
X359873740Y-111621000D01*
X359962260Y-111621000D01*
X360028442Y-111627518D01*
X360028442Y-111627518D01*
G37*
G36*
X369691600Y-110862989D02*
G01*
X369724652Y-110873015D01*
X369755103Y-110889292D01*
X369781799Y-110911201D01*
X369803708Y-110937897D01*
X369819985Y-110968348D01*
X369830011Y-111001400D01*
X369834000Y-111041903D01*
X369834000Y-112478097D01*
X369830011Y-112518600D01*
X369819985Y-112551652D01*
X369803708Y-112582103D01*
X369781799Y-112608799D01*
X369755103Y-112630708D01*
X369724652Y-112646985D01*
X369691600Y-112657011D01*
X369651097Y-112661000D01*
X367964903Y-112661000D01*
X367924400Y-112657011D01*
X367891348Y-112646985D01*
X367860897Y-112630708D01*
X367834201Y-112608799D01*
X367812292Y-112582103D01*
X367796015Y-112551652D01*
X367785989Y-112518600D01*
X367782000Y-112478097D01*
X367782000Y-111041903D01*
X367785989Y-111001400D01*
X367796015Y-110968348D01*
X367812292Y-110937897D01*
X367834201Y-110911201D01*
X367860897Y-110889292D01*
X367891348Y-110873015D01*
X367924400Y-110862989D01*
X367964903Y-110859000D01*
X369651097Y-110859000D01*
X369691600Y-110862989D01*
X369691600Y-110862989D01*
G37*
G36*
X312047000Y-111641000D02*
G01*
X309745000Y-111641000D01*
X309745000Y-109339000D01*
X312047000Y-109339000D01*
X312047000Y-111641000D01*
X312047000Y-111641000D01*
G37*
G36*
X360819000Y-110883000D02*
G01*
X359017000Y-110883000D01*
X359017000Y-109081000D01*
X360819000Y-109081000D01*
X360819000Y-110883000D01*
X360819000Y-110883000D01*
G37*
G36*
X366997890Y-109534017D02*
G01*
X367116364Y-109583091D01*
X367222988Y-109654335D01*
X367313665Y-109745012D01*
X367384909Y-109851636D01*
X367433983Y-109970110D01*
X367459000Y-110095882D01*
X367459000Y-110224118D01*
X367433983Y-110349890D01*
X367384909Y-110468364D01*
X367313665Y-110574988D01*
X367222988Y-110665665D01*
X367116364Y-110736909D01*
X367116363Y-110736910D01*
X367116362Y-110736910D01*
X366997890Y-110785983D01*
X366872119Y-110811000D01*
X366743881Y-110811000D01*
X366618110Y-110785983D01*
X366499638Y-110736910D01*
X366499637Y-110736910D01*
X366499636Y-110736909D01*
X366393012Y-110665665D01*
X366302335Y-110574988D01*
X366231091Y-110468364D01*
X366182017Y-110349890D01*
X366157000Y-110224118D01*
X366157000Y-110095882D01*
X366182017Y-109970110D01*
X366231091Y-109851636D01*
X366302335Y-109745012D01*
X366393012Y-109654335D01*
X366499636Y-109583091D01*
X366618110Y-109534017D01*
X366743881Y-109509000D01*
X366872119Y-109509000D01*
X366997890Y-109534017D01*
X366997890Y-109534017D01*
G37*
G36*
X321862650Y-109645650D02*
G01*
X318979350Y-109645650D01*
X318979350Y-106762350D01*
X321862650Y-106762350D01*
X321862650Y-109645650D01*
X321862650Y-109645650D01*
G37*
G36*
X325301625Y-106770234D02*
G01*
X325540514Y-106817751D01*
X325802878Y-106926426D01*
X326038999Y-107084197D01*
X326239803Y-107285001D01*
X326397574Y-107521122D01*
X326506249Y-107783486D01*
X326561650Y-108062010D01*
X326561650Y-108345990D01*
X326506249Y-108624514D01*
X326397574Y-108886878D01*
X326239803Y-109122999D01*
X326038999Y-109323803D01*
X325802878Y-109481574D01*
X325540514Y-109590249D01*
X325301625Y-109637766D01*
X325261991Y-109645650D01*
X324978009Y-109645650D01*
X324938375Y-109637766D01*
X324699486Y-109590249D01*
X324437122Y-109481574D01*
X324201001Y-109323803D01*
X324000197Y-109122999D01*
X323842426Y-108886878D01*
X323733751Y-108624514D01*
X323678350Y-108345990D01*
X323678350Y-108062010D01*
X323733751Y-107783486D01*
X323842426Y-107521122D01*
X324000197Y-107285001D01*
X324201001Y-107084197D01*
X324437122Y-106926426D01*
X324699486Y-106817751D01*
X324938375Y-106770234D01*
X324978009Y-106762350D01*
X325261991Y-106762350D01*
X325301625Y-106770234D01*
X325301625Y-106770234D01*
G37*
G36*
X330000625Y-106770234D02*
G01*
X330239514Y-106817751D01*
X330501878Y-106926426D01*
X330737999Y-107084197D01*
X330938803Y-107285001D01*
X331096574Y-107521122D01*
X331205249Y-107783486D01*
X331260650Y-108062010D01*
X331260650Y-108345990D01*
X331205249Y-108624514D01*
X331096574Y-108886878D01*
X330938803Y-109122999D01*
X330737999Y-109323803D01*
X330501878Y-109481574D01*
X330239514Y-109590249D01*
X330000625Y-109637766D01*
X329960991Y-109645650D01*
X329677009Y-109645650D01*
X329637375Y-109637766D01*
X329398486Y-109590249D01*
X329136122Y-109481574D01*
X328900001Y-109323803D01*
X328699197Y-109122999D01*
X328541426Y-108886878D01*
X328432751Y-108624514D01*
X328377350Y-108345990D01*
X328377350Y-108062010D01*
X328432751Y-107783486D01*
X328541426Y-107521122D01*
X328699197Y-107285001D01*
X328900001Y-107084197D01*
X329136122Y-106926426D01*
X329398486Y-106817751D01*
X329637375Y-106770234D01*
X329677009Y-106762350D01*
X329960991Y-106762350D01*
X330000625Y-106770234D01*
X330000625Y-106770234D01*
G37*
M02*
