G04 #@! TF.GenerationSoftware,KiCad,Pcbnew,(5.1.4)-1*
G04 #@! TF.CreationDate,2019-10-30T18:57:56+00:00*
G04 #@! TF.ProjectId,timer-board,74696d65-722d-4626-9f61-72642e6b6963,rev?*
G04 #@! TF.SameCoordinates,Original*
G04 #@! TF.FileFunction,Paste,Top*
G04 #@! TF.FilePolarity,Positive*
%FSLAX46Y46*%
G04 Gerber Fmt 4.6, Leading zero omitted, Abs format (unit mm)*
G04 Created by KiCad (PCBNEW (5.1.4)-1) date 2019-10-30 18:57:56*
%MOMM*%
%LPD*%
G04 APERTURE LIST*
%ADD10C,0.100000*%
%ADD11C,0.875000*%
%ADD12R,1.981200X0.558800*%
%ADD13R,2.057400X0.609600*%
G04 APERTURE END LIST*
D10*
G36*
X357262691Y-119033053D02*
G01*
X357283926Y-119036203D01*
X357304750Y-119041419D01*
X357324962Y-119048651D01*
X357344368Y-119057830D01*
X357362781Y-119068866D01*
X357380024Y-119081654D01*
X357395930Y-119096070D01*
X357410346Y-119111976D01*
X357423134Y-119129219D01*
X357434170Y-119147632D01*
X357443349Y-119167038D01*
X357450581Y-119187250D01*
X357455797Y-119208074D01*
X357458947Y-119229309D01*
X357460000Y-119250750D01*
X357460000Y-119763250D01*
X357458947Y-119784691D01*
X357455797Y-119805926D01*
X357450581Y-119826750D01*
X357443349Y-119846962D01*
X357434170Y-119866368D01*
X357423134Y-119884781D01*
X357410346Y-119902024D01*
X357395930Y-119917930D01*
X357380024Y-119932346D01*
X357362781Y-119945134D01*
X357344368Y-119956170D01*
X357324962Y-119965349D01*
X357304750Y-119972581D01*
X357283926Y-119977797D01*
X357262691Y-119980947D01*
X357241250Y-119982000D01*
X356803750Y-119982000D01*
X356782309Y-119980947D01*
X356761074Y-119977797D01*
X356740250Y-119972581D01*
X356720038Y-119965349D01*
X356700632Y-119956170D01*
X356682219Y-119945134D01*
X356664976Y-119932346D01*
X356649070Y-119917930D01*
X356634654Y-119902024D01*
X356621866Y-119884781D01*
X356610830Y-119866368D01*
X356601651Y-119846962D01*
X356594419Y-119826750D01*
X356589203Y-119805926D01*
X356586053Y-119784691D01*
X356585000Y-119763250D01*
X356585000Y-119250750D01*
X356586053Y-119229309D01*
X356589203Y-119208074D01*
X356594419Y-119187250D01*
X356601651Y-119167038D01*
X356610830Y-119147632D01*
X356621866Y-119129219D01*
X356634654Y-119111976D01*
X356649070Y-119096070D01*
X356664976Y-119081654D01*
X356682219Y-119068866D01*
X356700632Y-119057830D01*
X356720038Y-119048651D01*
X356740250Y-119041419D01*
X356761074Y-119036203D01*
X356782309Y-119033053D01*
X356803750Y-119032000D01*
X357241250Y-119032000D01*
X357262691Y-119033053D01*
X357262691Y-119033053D01*
G37*
D11*
X357022500Y-119507000D03*
D10*
G36*
X355687691Y-119033053D02*
G01*
X355708926Y-119036203D01*
X355729750Y-119041419D01*
X355749962Y-119048651D01*
X355769368Y-119057830D01*
X355787781Y-119068866D01*
X355805024Y-119081654D01*
X355820930Y-119096070D01*
X355835346Y-119111976D01*
X355848134Y-119129219D01*
X355859170Y-119147632D01*
X355868349Y-119167038D01*
X355875581Y-119187250D01*
X355880797Y-119208074D01*
X355883947Y-119229309D01*
X355885000Y-119250750D01*
X355885000Y-119763250D01*
X355883947Y-119784691D01*
X355880797Y-119805926D01*
X355875581Y-119826750D01*
X355868349Y-119846962D01*
X355859170Y-119866368D01*
X355848134Y-119884781D01*
X355835346Y-119902024D01*
X355820930Y-119917930D01*
X355805024Y-119932346D01*
X355787781Y-119945134D01*
X355769368Y-119956170D01*
X355749962Y-119965349D01*
X355729750Y-119972581D01*
X355708926Y-119977797D01*
X355687691Y-119980947D01*
X355666250Y-119982000D01*
X355228750Y-119982000D01*
X355207309Y-119980947D01*
X355186074Y-119977797D01*
X355165250Y-119972581D01*
X355145038Y-119965349D01*
X355125632Y-119956170D01*
X355107219Y-119945134D01*
X355089976Y-119932346D01*
X355074070Y-119917930D01*
X355059654Y-119902024D01*
X355046866Y-119884781D01*
X355035830Y-119866368D01*
X355026651Y-119846962D01*
X355019419Y-119826750D01*
X355014203Y-119805926D01*
X355011053Y-119784691D01*
X355010000Y-119763250D01*
X355010000Y-119250750D01*
X355011053Y-119229309D01*
X355014203Y-119208074D01*
X355019419Y-119187250D01*
X355026651Y-119167038D01*
X355035830Y-119147632D01*
X355046866Y-119129219D01*
X355059654Y-119111976D01*
X355074070Y-119096070D01*
X355089976Y-119081654D01*
X355107219Y-119068866D01*
X355125632Y-119057830D01*
X355145038Y-119048651D01*
X355165250Y-119041419D01*
X355186074Y-119036203D01*
X355207309Y-119033053D01*
X355228750Y-119032000D01*
X355666250Y-119032000D01*
X355687691Y-119033053D01*
X355687691Y-119033053D01*
G37*
D11*
X355447500Y-119507000D03*
D10*
G36*
X357262691Y-116366053D02*
G01*
X357283926Y-116369203D01*
X357304750Y-116374419D01*
X357324962Y-116381651D01*
X357344368Y-116390830D01*
X357362781Y-116401866D01*
X357380024Y-116414654D01*
X357395930Y-116429070D01*
X357410346Y-116444976D01*
X357423134Y-116462219D01*
X357434170Y-116480632D01*
X357443349Y-116500038D01*
X357450581Y-116520250D01*
X357455797Y-116541074D01*
X357458947Y-116562309D01*
X357460000Y-116583750D01*
X357460000Y-117096250D01*
X357458947Y-117117691D01*
X357455797Y-117138926D01*
X357450581Y-117159750D01*
X357443349Y-117179962D01*
X357434170Y-117199368D01*
X357423134Y-117217781D01*
X357410346Y-117235024D01*
X357395930Y-117250930D01*
X357380024Y-117265346D01*
X357362781Y-117278134D01*
X357344368Y-117289170D01*
X357324962Y-117298349D01*
X357304750Y-117305581D01*
X357283926Y-117310797D01*
X357262691Y-117313947D01*
X357241250Y-117315000D01*
X356803750Y-117315000D01*
X356782309Y-117313947D01*
X356761074Y-117310797D01*
X356740250Y-117305581D01*
X356720038Y-117298349D01*
X356700632Y-117289170D01*
X356682219Y-117278134D01*
X356664976Y-117265346D01*
X356649070Y-117250930D01*
X356634654Y-117235024D01*
X356621866Y-117217781D01*
X356610830Y-117199368D01*
X356601651Y-117179962D01*
X356594419Y-117159750D01*
X356589203Y-117138926D01*
X356586053Y-117117691D01*
X356585000Y-117096250D01*
X356585000Y-116583750D01*
X356586053Y-116562309D01*
X356589203Y-116541074D01*
X356594419Y-116520250D01*
X356601651Y-116500038D01*
X356610830Y-116480632D01*
X356621866Y-116462219D01*
X356634654Y-116444976D01*
X356649070Y-116429070D01*
X356664976Y-116414654D01*
X356682219Y-116401866D01*
X356700632Y-116390830D01*
X356720038Y-116381651D01*
X356740250Y-116374419D01*
X356761074Y-116369203D01*
X356782309Y-116366053D01*
X356803750Y-116365000D01*
X357241250Y-116365000D01*
X357262691Y-116366053D01*
X357262691Y-116366053D01*
G37*
D11*
X357022500Y-116840000D03*
D10*
G36*
X355687691Y-116366053D02*
G01*
X355708926Y-116369203D01*
X355729750Y-116374419D01*
X355749962Y-116381651D01*
X355769368Y-116390830D01*
X355787781Y-116401866D01*
X355805024Y-116414654D01*
X355820930Y-116429070D01*
X355835346Y-116444976D01*
X355848134Y-116462219D01*
X355859170Y-116480632D01*
X355868349Y-116500038D01*
X355875581Y-116520250D01*
X355880797Y-116541074D01*
X355883947Y-116562309D01*
X355885000Y-116583750D01*
X355885000Y-117096250D01*
X355883947Y-117117691D01*
X355880797Y-117138926D01*
X355875581Y-117159750D01*
X355868349Y-117179962D01*
X355859170Y-117199368D01*
X355848134Y-117217781D01*
X355835346Y-117235024D01*
X355820930Y-117250930D01*
X355805024Y-117265346D01*
X355787781Y-117278134D01*
X355769368Y-117289170D01*
X355749962Y-117298349D01*
X355729750Y-117305581D01*
X355708926Y-117310797D01*
X355687691Y-117313947D01*
X355666250Y-117315000D01*
X355228750Y-117315000D01*
X355207309Y-117313947D01*
X355186074Y-117310797D01*
X355165250Y-117305581D01*
X355145038Y-117298349D01*
X355125632Y-117289170D01*
X355107219Y-117278134D01*
X355089976Y-117265346D01*
X355074070Y-117250930D01*
X355059654Y-117235024D01*
X355046866Y-117217781D01*
X355035830Y-117199368D01*
X355026651Y-117179962D01*
X355019419Y-117159750D01*
X355014203Y-117138926D01*
X355011053Y-117117691D01*
X355010000Y-117096250D01*
X355010000Y-116583750D01*
X355011053Y-116562309D01*
X355014203Y-116541074D01*
X355019419Y-116520250D01*
X355026651Y-116500038D01*
X355035830Y-116480632D01*
X355046866Y-116462219D01*
X355059654Y-116444976D01*
X355074070Y-116429070D01*
X355089976Y-116414654D01*
X355107219Y-116401866D01*
X355125632Y-116390830D01*
X355145038Y-116381651D01*
X355165250Y-116374419D01*
X355186074Y-116369203D01*
X355207309Y-116366053D01*
X355228750Y-116365000D01*
X355666250Y-116365000D01*
X355687691Y-116366053D01*
X355687691Y-116366053D01*
G37*
D11*
X355447500Y-116840000D03*
D10*
G36*
X350924691Y-118410053D02*
G01*
X350945926Y-118413203D01*
X350966750Y-118418419D01*
X350986962Y-118425651D01*
X351006368Y-118434830D01*
X351024781Y-118445866D01*
X351042024Y-118458654D01*
X351057930Y-118473070D01*
X351072346Y-118488976D01*
X351085134Y-118506219D01*
X351096170Y-118524632D01*
X351105349Y-118544038D01*
X351112581Y-118564250D01*
X351117797Y-118585074D01*
X351120947Y-118606309D01*
X351122000Y-118627750D01*
X351122000Y-119065250D01*
X351120947Y-119086691D01*
X351117797Y-119107926D01*
X351112581Y-119128750D01*
X351105349Y-119148962D01*
X351096170Y-119168368D01*
X351085134Y-119186781D01*
X351072346Y-119204024D01*
X351057930Y-119219930D01*
X351042024Y-119234346D01*
X351024781Y-119247134D01*
X351006368Y-119258170D01*
X350986962Y-119267349D01*
X350966750Y-119274581D01*
X350945926Y-119279797D01*
X350924691Y-119282947D01*
X350903250Y-119284000D01*
X350390750Y-119284000D01*
X350369309Y-119282947D01*
X350348074Y-119279797D01*
X350327250Y-119274581D01*
X350307038Y-119267349D01*
X350287632Y-119258170D01*
X350269219Y-119247134D01*
X350251976Y-119234346D01*
X350236070Y-119219930D01*
X350221654Y-119204024D01*
X350208866Y-119186781D01*
X350197830Y-119168368D01*
X350188651Y-119148962D01*
X350181419Y-119128750D01*
X350176203Y-119107926D01*
X350173053Y-119086691D01*
X350172000Y-119065250D01*
X350172000Y-118627750D01*
X350173053Y-118606309D01*
X350176203Y-118585074D01*
X350181419Y-118564250D01*
X350188651Y-118544038D01*
X350197830Y-118524632D01*
X350208866Y-118506219D01*
X350221654Y-118488976D01*
X350236070Y-118473070D01*
X350251976Y-118458654D01*
X350269219Y-118445866D01*
X350287632Y-118434830D01*
X350307038Y-118425651D01*
X350327250Y-118418419D01*
X350348074Y-118413203D01*
X350369309Y-118410053D01*
X350390750Y-118409000D01*
X350903250Y-118409000D01*
X350924691Y-118410053D01*
X350924691Y-118410053D01*
G37*
D11*
X350647000Y-118846500D03*
D10*
G36*
X350924691Y-119985053D02*
G01*
X350945926Y-119988203D01*
X350966750Y-119993419D01*
X350986962Y-120000651D01*
X351006368Y-120009830D01*
X351024781Y-120020866D01*
X351042024Y-120033654D01*
X351057930Y-120048070D01*
X351072346Y-120063976D01*
X351085134Y-120081219D01*
X351096170Y-120099632D01*
X351105349Y-120119038D01*
X351112581Y-120139250D01*
X351117797Y-120160074D01*
X351120947Y-120181309D01*
X351122000Y-120202750D01*
X351122000Y-120640250D01*
X351120947Y-120661691D01*
X351117797Y-120682926D01*
X351112581Y-120703750D01*
X351105349Y-120723962D01*
X351096170Y-120743368D01*
X351085134Y-120761781D01*
X351072346Y-120779024D01*
X351057930Y-120794930D01*
X351042024Y-120809346D01*
X351024781Y-120822134D01*
X351006368Y-120833170D01*
X350986962Y-120842349D01*
X350966750Y-120849581D01*
X350945926Y-120854797D01*
X350924691Y-120857947D01*
X350903250Y-120859000D01*
X350390750Y-120859000D01*
X350369309Y-120857947D01*
X350348074Y-120854797D01*
X350327250Y-120849581D01*
X350307038Y-120842349D01*
X350287632Y-120833170D01*
X350269219Y-120822134D01*
X350251976Y-120809346D01*
X350236070Y-120794930D01*
X350221654Y-120779024D01*
X350208866Y-120761781D01*
X350197830Y-120743368D01*
X350188651Y-120723962D01*
X350181419Y-120703750D01*
X350176203Y-120682926D01*
X350173053Y-120661691D01*
X350172000Y-120640250D01*
X350172000Y-120202750D01*
X350173053Y-120181309D01*
X350176203Y-120160074D01*
X350181419Y-120139250D01*
X350188651Y-120119038D01*
X350197830Y-120099632D01*
X350208866Y-120081219D01*
X350221654Y-120063976D01*
X350236070Y-120048070D01*
X350251976Y-120033654D01*
X350269219Y-120020866D01*
X350287632Y-120009830D01*
X350307038Y-120000651D01*
X350327250Y-119993419D01*
X350348074Y-119988203D01*
X350369309Y-119985053D01*
X350390750Y-119984000D01*
X350903250Y-119984000D01*
X350924691Y-119985053D01*
X350924691Y-119985053D01*
G37*
D11*
X350647000Y-120421500D03*
D10*
G36*
X329207691Y-119985053D02*
G01*
X329228926Y-119988203D01*
X329249750Y-119993419D01*
X329269962Y-120000651D01*
X329289368Y-120009830D01*
X329307781Y-120020866D01*
X329325024Y-120033654D01*
X329340930Y-120048070D01*
X329355346Y-120063976D01*
X329368134Y-120081219D01*
X329379170Y-120099632D01*
X329388349Y-120119038D01*
X329395581Y-120139250D01*
X329400797Y-120160074D01*
X329403947Y-120181309D01*
X329405000Y-120202750D01*
X329405000Y-120640250D01*
X329403947Y-120661691D01*
X329400797Y-120682926D01*
X329395581Y-120703750D01*
X329388349Y-120723962D01*
X329379170Y-120743368D01*
X329368134Y-120761781D01*
X329355346Y-120779024D01*
X329340930Y-120794930D01*
X329325024Y-120809346D01*
X329307781Y-120822134D01*
X329289368Y-120833170D01*
X329269962Y-120842349D01*
X329249750Y-120849581D01*
X329228926Y-120854797D01*
X329207691Y-120857947D01*
X329186250Y-120859000D01*
X328673750Y-120859000D01*
X328652309Y-120857947D01*
X328631074Y-120854797D01*
X328610250Y-120849581D01*
X328590038Y-120842349D01*
X328570632Y-120833170D01*
X328552219Y-120822134D01*
X328534976Y-120809346D01*
X328519070Y-120794930D01*
X328504654Y-120779024D01*
X328491866Y-120761781D01*
X328480830Y-120743368D01*
X328471651Y-120723962D01*
X328464419Y-120703750D01*
X328459203Y-120682926D01*
X328456053Y-120661691D01*
X328455000Y-120640250D01*
X328455000Y-120202750D01*
X328456053Y-120181309D01*
X328459203Y-120160074D01*
X328464419Y-120139250D01*
X328471651Y-120119038D01*
X328480830Y-120099632D01*
X328491866Y-120081219D01*
X328504654Y-120063976D01*
X328519070Y-120048070D01*
X328534976Y-120033654D01*
X328552219Y-120020866D01*
X328570632Y-120009830D01*
X328590038Y-120000651D01*
X328610250Y-119993419D01*
X328631074Y-119988203D01*
X328652309Y-119985053D01*
X328673750Y-119984000D01*
X329186250Y-119984000D01*
X329207691Y-119985053D01*
X329207691Y-119985053D01*
G37*
D11*
X328930000Y-120421500D03*
D10*
G36*
X329207691Y-118410053D02*
G01*
X329228926Y-118413203D01*
X329249750Y-118418419D01*
X329269962Y-118425651D01*
X329289368Y-118434830D01*
X329307781Y-118445866D01*
X329325024Y-118458654D01*
X329340930Y-118473070D01*
X329355346Y-118488976D01*
X329368134Y-118506219D01*
X329379170Y-118524632D01*
X329388349Y-118544038D01*
X329395581Y-118564250D01*
X329400797Y-118585074D01*
X329403947Y-118606309D01*
X329405000Y-118627750D01*
X329405000Y-119065250D01*
X329403947Y-119086691D01*
X329400797Y-119107926D01*
X329395581Y-119128750D01*
X329388349Y-119148962D01*
X329379170Y-119168368D01*
X329368134Y-119186781D01*
X329355346Y-119204024D01*
X329340930Y-119219930D01*
X329325024Y-119234346D01*
X329307781Y-119247134D01*
X329289368Y-119258170D01*
X329269962Y-119267349D01*
X329249750Y-119274581D01*
X329228926Y-119279797D01*
X329207691Y-119282947D01*
X329186250Y-119284000D01*
X328673750Y-119284000D01*
X328652309Y-119282947D01*
X328631074Y-119279797D01*
X328610250Y-119274581D01*
X328590038Y-119267349D01*
X328570632Y-119258170D01*
X328552219Y-119247134D01*
X328534976Y-119234346D01*
X328519070Y-119219930D01*
X328504654Y-119204024D01*
X328491866Y-119186781D01*
X328480830Y-119168368D01*
X328471651Y-119148962D01*
X328464419Y-119128750D01*
X328459203Y-119107926D01*
X328456053Y-119086691D01*
X328455000Y-119065250D01*
X328455000Y-118627750D01*
X328456053Y-118606309D01*
X328459203Y-118585074D01*
X328464419Y-118564250D01*
X328471651Y-118544038D01*
X328480830Y-118524632D01*
X328491866Y-118506219D01*
X328504654Y-118488976D01*
X328519070Y-118473070D01*
X328534976Y-118458654D01*
X328552219Y-118445866D01*
X328570632Y-118434830D01*
X328590038Y-118425651D01*
X328610250Y-118418419D01*
X328631074Y-118413203D01*
X328652309Y-118410053D01*
X328673750Y-118409000D01*
X329186250Y-118409000D01*
X329207691Y-118410053D01*
X329207691Y-118410053D01*
G37*
D11*
X328930000Y-118846500D03*
D10*
G36*
X333271691Y-123541053D02*
G01*
X333292926Y-123544203D01*
X333313750Y-123549419D01*
X333333962Y-123556651D01*
X333353368Y-123565830D01*
X333371781Y-123576866D01*
X333389024Y-123589654D01*
X333404930Y-123604070D01*
X333419346Y-123619976D01*
X333432134Y-123637219D01*
X333443170Y-123655632D01*
X333452349Y-123675038D01*
X333459581Y-123695250D01*
X333464797Y-123716074D01*
X333467947Y-123737309D01*
X333469000Y-123758750D01*
X333469000Y-124196250D01*
X333467947Y-124217691D01*
X333464797Y-124238926D01*
X333459581Y-124259750D01*
X333452349Y-124279962D01*
X333443170Y-124299368D01*
X333432134Y-124317781D01*
X333419346Y-124335024D01*
X333404930Y-124350930D01*
X333389024Y-124365346D01*
X333371781Y-124378134D01*
X333353368Y-124389170D01*
X333333962Y-124398349D01*
X333313750Y-124405581D01*
X333292926Y-124410797D01*
X333271691Y-124413947D01*
X333250250Y-124415000D01*
X332737750Y-124415000D01*
X332716309Y-124413947D01*
X332695074Y-124410797D01*
X332674250Y-124405581D01*
X332654038Y-124398349D01*
X332634632Y-124389170D01*
X332616219Y-124378134D01*
X332598976Y-124365346D01*
X332583070Y-124350930D01*
X332568654Y-124335024D01*
X332555866Y-124317781D01*
X332544830Y-124299368D01*
X332535651Y-124279962D01*
X332528419Y-124259750D01*
X332523203Y-124238926D01*
X332520053Y-124217691D01*
X332519000Y-124196250D01*
X332519000Y-123758750D01*
X332520053Y-123737309D01*
X332523203Y-123716074D01*
X332528419Y-123695250D01*
X332535651Y-123675038D01*
X332544830Y-123655632D01*
X332555866Y-123637219D01*
X332568654Y-123619976D01*
X332583070Y-123604070D01*
X332598976Y-123589654D01*
X332616219Y-123576866D01*
X332634632Y-123565830D01*
X332654038Y-123556651D01*
X332674250Y-123549419D01*
X332695074Y-123544203D01*
X332716309Y-123541053D01*
X332737750Y-123540000D01*
X333250250Y-123540000D01*
X333271691Y-123541053D01*
X333271691Y-123541053D01*
G37*
D11*
X332994000Y-123977500D03*
D10*
G36*
X333271691Y-121966053D02*
G01*
X333292926Y-121969203D01*
X333313750Y-121974419D01*
X333333962Y-121981651D01*
X333353368Y-121990830D01*
X333371781Y-122001866D01*
X333389024Y-122014654D01*
X333404930Y-122029070D01*
X333419346Y-122044976D01*
X333432134Y-122062219D01*
X333443170Y-122080632D01*
X333452349Y-122100038D01*
X333459581Y-122120250D01*
X333464797Y-122141074D01*
X333467947Y-122162309D01*
X333469000Y-122183750D01*
X333469000Y-122621250D01*
X333467947Y-122642691D01*
X333464797Y-122663926D01*
X333459581Y-122684750D01*
X333452349Y-122704962D01*
X333443170Y-122724368D01*
X333432134Y-122742781D01*
X333419346Y-122760024D01*
X333404930Y-122775930D01*
X333389024Y-122790346D01*
X333371781Y-122803134D01*
X333353368Y-122814170D01*
X333333962Y-122823349D01*
X333313750Y-122830581D01*
X333292926Y-122835797D01*
X333271691Y-122838947D01*
X333250250Y-122840000D01*
X332737750Y-122840000D01*
X332716309Y-122838947D01*
X332695074Y-122835797D01*
X332674250Y-122830581D01*
X332654038Y-122823349D01*
X332634632Y-122814170D01*
X332616219Y-122803134D01*
X332598976Y-122790346D01*
X332583070Y-122775930D01*
X332568654Y-122760024D01*
X332555866Y-122742781D01*
X332544830Y-122724368D01*
X332535651Y-122704962D01*
X332528419Y-122684750D01*
X332523203Y-122663926D01*
X332520053Y-122642691D01*
X332519000Y-122621250D01*
X332519000Y-122183750D01*
X332520053Y-122162309D01*
X332523203Y-122141074D01*
X332528419Y-122120250D01*
X332535651Y-122100038D01*
X332544830Y-122080632D01*
X332555866Y-122062219D01*
X332568654Y-122044976D01*
X332583070Y-122029070D01*
X332598976Y-122014654D01*
X332616219Y-122001866D01*
X332634632Y-121990830D01*
X332654038Y-121981651D01*
X332674250Y-121974419D01*
X332695074Y-121969203D01*
X332716309Y-121966053D01*
X332737750Y-121965000D01*
X333250250Y-121965000D01*
X333271691Y-121966053D01*
X333271691Y-121966053D01*
G37*
D11*
X332994000Y-122402500D03*
D10*
G36*
X325397691Y-113955053D02*
G01*
X325418926Y-113958203D01*
X325439750Y-113963419D01*
X325459962Y-113970651D01*
X325479368Y-113979830D01*
X325497781Y-113990866D01*
X325515024Y-114003654D01*
X325530930Y-114018070D01*
X325545346Y-114033976D01*
X325558134Y-114051219D01*
X325569170Y-114069632D01*
X325578349Y-114089038D01*
X325585581Y-114109250D01*
X325590797Y-114130074D01*
X325593947Y-114151309D01*
X325595000Y-114172750D01*
X325595000Y-114610250D01*
X325593947Y-114631691D01*
X325590797Y-114652926D01*
X325585581Y-114673750D01*
X325578349Y-114693962D01*
X325569170Y-114713368D01*
X325558134Y-114731781D01*
X325545346Y-114749024D01*
X325530930Y-114764930D01*
X325515024Y-114779346D01*
X325497781Y-114792134D01*
X325479368Y-114803170D01*
X325459962Y-114812349D01*
X325439750Y-114819581D01*
X325418926Y-114824797D01*
X325397691Y-114827947D01*
X325376250Y-114829000D01*
X324863750Y-114829000D01*
X324842309Y-114827947D01*
X324821074Y-114824797D01*
X324800250Y-114819581D01*
X324780038Y-114812349D01*
X324760632Y-114803170D01*
X324742219Y-114792134D01*
X324724976Y-114779346D01*
X324709070Y-114764930D01*
X324694654Y-114749024D01*
X324681866Y-114731781D01*
X324670830Y-114713368D01*
X324661651Y-114693962D01*
X324654419Y-114673750D01*
X324649203Y-114652926D01*
X324646053Y-114631691D01*
X324645000Y-114610250D01*
X324645000Y-114172750D01*
X324646053Y-114151309D01*
X324649203Y-114130074D01*
X324654419Y-114109250D01*
X324661651Y-114089038D01*
X324670830Y-114069632D01*
X324681866Y-114051219D01*
X324694654Y-114033976D01*
X324709070Y-114018070D01*
X324724976Y-114003654D01*
X324742219Y-113990866D01*
X324760632Y-113979830D01*
X324780038Y-113970651D01*
X324800250Y-113963419D01*
X324821074Y-113958203D01*
X324842309Y-113955053D01*
X324863750Y-113954000D01*
X325376250Y-113954000D01*
X325397691Y-113955053D01*
X325397691Y-113955053D01*
G37*
D11*
X325120000Y-114391500D03*
D10*
G36*
X325397691Y-112380053D02*
G01*
X325418926Y-112383203D01*
X325439750Y-112388419D01*
X325459962Y-112395651D01*
X325479368Y-112404830D01*
X325497781Y-112415866D01*
X325515024Y-112428654D01*
X325530930Y-112443070D01*
X325545346Y-112458976D01*
X325558134Y-112476219D01*
X325569170Y-112494632D01*
X325578349Y-112514038D01*
X325585581Y-112534250D01*
X325590797Y-112555074D01*
X325593947Y-112576309D01*
X325595000Y-112597750D01*
X325595000Y-113035250D01*
X325593947Y-113056691D01*
X325590797Y-113077926D01*
X325585581Y-113098750D01*
X325578349Y-113118962D01*
X325569170Y-113138368D01*
X325558134Y-113156781D01*
X325545346Y-113174024D01*
X325530930Y-113189930D01*
X325515024Y-113204346D01*
X325497781Y-113217134D01*
X325479368Y-113228170D01*
X325459962Y-113237349D01*
X325439750Y-113244581D01*
X325418926Y-113249797D01*
X325397691Y-113252947D01*
X325376250Y-113254000D01*
X324863750Y-113254000D01*
X324842309Y-113252947D01*
X324821074Y-113249797D01*
X324800250Y-113244581D01*
X324780038Y-113237349D01*
X324760632Y-113228170D01*
X324742219Y-113217134D01*
X324724976Y-113204346D01*
X324709070Y-113189930D01*
X324694654Y-113174024D01*
X324681866Y-113156781D01*
X324670830Y-113138368D01*
X324661651Y-113118962D01*
X324654419Y-113098750D01*
X324649203Y-113077926D01*
X324646053Y-113056691D01*
X324645000Y-113035250D01*
X324645000Y-112597750D01*
X324646053Y-112576309D01*
X324649203Y-112555074D01*
X324654419Y-112534250D01*
X324661651Y-112514038D01*
X324670830Y-112494632D01*
X324681866Y-112476219D01*
X324694654Y-112458976D01*
X324709070Y-112443070D01*
X324724976Y-112428654D01*
X324742219Y-112415866D01*
X324760632Y-112404830D01*
X324780038Y-112395651D01*
X324800250Y-112388419D01*
X324821074Y-112383203D01*
X324842309Y-112380053D01*
X324863750Y-112379000D01*
X325376250Y-112379000D01*
X325397691Y-112380053D01*
X325397691Y-112380053D01*
G37*
D11*
X325120000Y-112816500D03*
D10*
G36*
X334986691Y-120252253D02*
G01*
X335007926Y-120255403D01*
X335028750Y-120260619D01*
X335048962Y-120267851D01*
X335068368Y-120277030D01*
X335086781Y-120288066D01*
X335104024Y-120300854D01*
X335119930Y-120315270D01*
X335134346Y-120331176D01*
X335147134Y-120348419D01*
X335158170Y-120366832D01*
X335167349Y-120386238D01*
X335174581Y-120406450D01*
X335179797Y-120427274D01*
X335182947Y-120448509D01*
X335184000Y-120469950D01*
X335184000Y-120982450D01*
X335182947Y-121003891D01*
X335179797Y-121025126D01*
X335174581Y-121045950D01*
X335167349Y-121066162D01*
X335158170Y-121085568D01*
X335147134Y-121103981D01*
X335134346Y-121121224D01*
X335119930Y-121137130D01*
X335104024Y-121151546D01*
X335086781Y-121164334D01*
X335068368Y-121175370D01*
X335048962Y-121184549D01*
X335028750Y-121191781D01*
X335007926Y-121196997D01*
X334986691Y-121200147D01*
X334965250Y-121201200D01*
X334527750Y-121201200D01*
X334506309Y-121200147D01*
X334485074Y-121196997D01*
X334464250Y-121191781D01*
X334444038Y-121184549D01*
X334424632Y-121175370D01*
X334406219Y-121164334D01*
X334388976Y-121151546D01*
X334373070Y-121137130D01*
X334358654Y-121121224D01*
X334345866Y-121103981D01*
X334334830Y-121085568D01*
X334325651Y-121066162D01*
X334318419Y-121045950D01*
X334313203Y-121025126D01*
X334310053Y-121003891D01*
X334309000Y-120982450D01*
X334309000Y-120469950D01*
X334310053Y-120448509D01*
X334313203Y-120427274D01*
X334318419Y-120406450D01*
X334325651Y-120386238D01*
X334334830Y-120366832D01*
X334345866Y-120348419D01*
X334358654Y-120331176D01*
X334373070Y-120315270D01*
X334388976Y-120300854D01*
X334406219Y-120288066D01*
X334424632Y-120277030D01*
X334444038Y-120267851D01*
X334464250Y-120260619D01*
X334485074Y-120255403D01*
X334506309Y-120252253D01*
X334527750Y-120251200D01*
X334965250Y-120251200D01*
X334986691Y-120252253D01*
X334986691Y-120252253D01*
G37*
D11*
X334746500Y-120726200D03*
D10*
G36*
X336561691Y-120252253D02*
G01*
X336582926Y-120255403D01*
X336603750Y-120260619D01*
X336623962Y-120267851D01*
X336643368Y-120277030D01*
X336661781Y-120288066D01*
X336679024Y-120300854D01*
X336694930Y-120315270D01*
X336709346Y-120331176D01*
X336722134Y-120348419D01*
X336733170Y-120366832D01*
X336742349Y-120386238D01*
X336749581Y-120406450D01*
X336754797Y-120427274D01*
X336757947Y-120448509D01*
X336759000Y-120469950D01*
X336759000Y-120982450D01*
X336757947Y-121003891D01*
X336754797Y-121025126D01*
X336749581Y-121045950D01*
X336742349Y-121066162D01*
X336733170Y-121085568D01*
X336722134Y-121103981D01*
X336709346Y-121121224D01*
X336694930Y-121137130D01*
X336679024Y-121151546D01*
X336661781Y-121164334D01*
X336643368Y-121175370D01*
X336623962Y-121184549D01*
X336603750Y-121191781D01*
X336582926Y-121196997D01*
X336561691Y-121200147D01*
X336540250Y-121201200D01*
X336102750Y-121201200D01*
X336081309Y-121200147D01*
X336060074Y-121196997D01*
X336039250Y-121191781D01*
X336019038Y-121184549D01*
X335999632Y-121175370D01*
X335981219Y-121164334D01*
X335963976Y-121151546D01*
X335948070Y-121137130D01*
X335933654Y-121121224D01*
X335920866Y-121103981D01*
X335909830Y-121085568D01*
X335900651Y-121066162D01*
X335893419Y-121045950D01*
X335888203Y-121025126D01*
X335885053Y-121003891D01*
X335884000Y-120982450D01*
X335884000Y-120469950D01*
X335885053Y-120448509D01*
X335888203Y-120427274D01*
X335893419Y-120406450D01*
X335900651Y-120386238D01*
X335909830Y-120366832D01*
X335920866Y-120348419D01*
X335933654Y-120331176D01*
X335948070Y-120315270D01*
X335963976Y-120300854D01*
X335981219Y-120288066D01*
X335999632Y-120277030D01*
X336019038Y-120267851D01*
X336039250Y-120260619D01*
X336060074Y-120255403D01*
X336081309Y-120252253D01*
X336102750Y-120251200D01*
X336540250Y-120251200D01*
X336561691Y-120252253D01*
X336561691Y-120252253D01*
G37*
D11*
X336321500Y-120726200D03*
D10*
G36*
X334986691Y-113495853D02*
G01*
X335007926Y-113499003D01*
X335028750Y-113504219D01*
X335048962Y-113511451D01*
X335068368Y-113520630D01*
X335086781Y-113531666D01*
X335104024Y-113544454D01*
X335119930Y-113558870D01*
X335134346Y-113574776D01*
X335147134Y-113592019D01*
X335158170Y-113610432D01*
X335167349Y-113629838D01*
X335174581Y-113650050D01*
X335179797Y-113670874D01*
X335182947Y-113692109D01*
X335184000Y-113713550D01*
X335184000Y-114226050D01*
X335182947Y-114247491D01*
X335179797Y-114268726D01*
X335174581Y-114289550D01*
X335167349Y-114309762D01*
X335158170Y-114329168D01*
X335147134Y-114347581D01*
X335134346Y-114364824D01*
X335119930Y-114380730D01*
X335104024Y-114395146D01*
X335086781Y-114407934D01*
X335068368Y-114418970D01*
X335048962Y-114428149D01*
X335028750Y-114435381D01*
X335007926Y-114440597D01*
X334986691Y-114443747D01*
X334965250Y-114444800D01*
X334527750Y-114444800D01*
X334506309Y-114443747D01*
X334485074Y-114440597D01*
X334464250Y-114435381D01*
X334444038Y-114428149D01*
X334424632Y-114418970D01*
X334406219Y-114407934D01*
X334388976Y-114395146D01*
X334373070Y-114380730D01*
X334358654Y-114364824D01*
X334345866Y-114347581D01*
X334334830Y-114329168D01*
X334325651Y-114309762D01*
X334318419Y-114289550D01*
X334313203Y-114268726D01*
X334310053Y-114247491D01*
X334309000Y-114226050D01*
X334309000Y-113713550D01*
X334310053Y-113692109D01*
X334313203Y-113670874D01*
X334318419Y-113650050D01*
X334325651Y-113629838D01*
X334334830Y-113610432D01*
X334345866Y-113592019D01*
X334358654Y-113574776D01*
X334373070Y-113558870D01*
X334388976Y-113544454D01*
X334406219Y-113531666D01*
X334424632Y-113520630D01*
X334444038Y-113511451D01*
X334464250Y-113504219D01*
X334485074Y-113499003D01*
X334506309Y-113495853D01*
X334527750Y-113494800D01*
X334965250Y-113494800D01*
X334986691Y-113495853D01*
X334986691Y-113495853D01*
G37*
D11*
X334746500Y-113969800D03*
D10*
G36*
X336561691Y-113495853D02*
G01*
X336582926Y-113499003D01*
X336603750Y-113504219D01*
X336623962Y-113511451D01*
X336643368Y-113520630D01*
X336661781Y-113531666D01*
X336679024Y-113544454D01*
X336694930Y-113558870D01*
X336709346Y-113574776D01*
X336722134Y-113592019D01*
X336733170Y-113610432D01*
X336742349Y-113629838D01*
X336749581Y-113650050D01*
X336754797Y-113670874D01*
X336757947Y-113692109D01*
X336759000Y-113713550D01*
X336759000Y-114226050D01*
X336757947Y-114247491D01*
X336754797Y-114268726D01*
X336749581Y-114289550D01*
X336742349Y-114309762D01*
X336733170Y-114329168D01*
X336722134Y-114347581D01*
X336709346Y-114364824D01*
X336694930Y-114380730D01*
X336679024Y-114395146D01*
X336661781Y-114407934D01*
X336643368Y-114418970D01*
X336623962Y-114428149D01*
X336603750Y-114435381D01*
X336582926Y-114440597D01*
X336561691Y-114443747D01*
X336540250Y-114444800D01*
X336102750Y-114444800D01*
X336081309Y-114443747D01*
X336060074Y-114440597D01*
X336039250Y-114435381D01*
X336019038Y-114428149D01*
X335999632Y-114418970D01*
X335981219Y-114407934D01*
X335963976Y-114395146D01*
X335948070Y-114380730D01*
X335933654Y-114364824D01*
X335920866Y-114347581D01*
X335909830Y-114329168D01*
X335900651Y-114309762D01*
X335893419Y-114289550D01*
X335888203Y-114268726D01*
X335885053Y-114247491D01*
X335884000Y-114226050D01*
X335884000Y-113713550D01*
X335885053Y-113692109D01*
X335888203Y-113670874D01*
X335893419Y-113650050D01*
X335900651Y-113629838D01*
X335909830Y-113610432D01*
X335920866Y-113592019D01*
X335933654Y-113574776D01*
X335948070Y-113558870D01*
X335963976Y-113544454D01*
X335981219Y-113531666D01*
X335999632Y-113520630D01*
X336019038Y-113511451D01*
X336039250Y-113504219D01*
X336060074Y-113499003D01*
X336081309Y-113495853D01*
X336102750Y-113494800D01*
X336540250Y-113494800D01*
X336561691Y-113495853D01*
X336561691Y-113495853D01*
G37*
D11*
X336321500Y-113969800D03*
D10*
G36*
X329207691Y-123033053D02*
G01*
X329228926Y-123036203D01*
X329249750Y-123041419D01*
X329269962Y-123048651D01*
X329289368Y-123057830D01*
X329307781Y-123068866D01*
X329325024Y-123081654D01*
X329340930Y-123096070D01*
X329355346Y-123111976D01*
X329368134Y-123129219D01*
X329379170Y-123147632D01*
X329388349Y-123167038D01*
X329395581Y-123187250D01*
X329400797Y-123208074D01*
X329403947Y-123229309D01*
X329405000Y-123250750D01*
X329405000Y-123688250D01*
X329403947Y-123709691D01*
X329400797Y-123730926D01*
X329395581Y-123751750D01*
X329388349Y-123771962D01*
X329379170Y-123791368D01*
X329368134Y-123809781D01*
X329355346Y-123827024D01*
X329340930Y-123842930D01*
X329325024Y-123857346D01*
X329307781Y-123870134D01*
X329289368Y-123881170D01*
X329269962Y-123890349D01*
X329249750Y-123897581D01*
X329228926Y-123902797D01*
X329207691Y-123905947D01*
X329186250Y-123907000D01*
X328673750Y-123907000D01*
X328652309Y-123905947D01*
X328631074Y-123902797D01*
X328610250Y-123897581D01*
X328590038Y-123890349D01*
X328570632Y-123881170D01*
X328552219Y-123870134D01*
X328534976Y-123857346D01*
X328519070Y-123842930D01*
X328504654Y-123827024D01*
X328491866Y-123809781D01*
X328480830Y-123791368D01*
X328471651Y-123771962D01*
X328464419Y-123751750D01*
X328459203Y-123730926D01*
X328456053Y-123709691D01*
X328455000Y-123688250D01*
X328455000Y-123250750D01*
X328456053Y-123229309D01*
X328459203Y-123208074D01*
X328464419Y-123187250D01*
X328471651Y-123167038D01*
X328480830Y-123147632D01*
X328491866Y-123129219D01*
X328504654Y-123111976D01*
X328519070Y-123096070D01*
X328534976Y-123081654D01*
X328552219Y-123068866D01*
X328570632Y-123057830D01*
X328590038Y-123048651D01*
X328610250Y-123041419D01*
X328631074Y-123036203D01*
X328652309Y-123033053D01*
X328673750Y-123032000D01*
X329186250Y-123032000D01*
X329207691Y-123033053D01*
X329207691Y-123033053D01*
G37*
D11*
X328930000Y-123469500D03*
D10*
G36*
X329207691Y-121458053D02*
G01*
X329228926Y-121461203D01*
X329249750Y-121466419D01*
X329269962Y-121473651D01*
X329289368Y-121482830D01*
X329307781Y-121493866D01*
X329325024Y-121506654D01*
X329340930Y-121521070D01*
X329355346Y-121536976D01*
X329368134Y-121554219D01*
X329379170Y-121572632D01*
X329388349Y-121592038D01*
X329395581Y-121612250D01*
X329400797Y-121633074D01*
X329403947Y-121654309D01*
X329405000Y-121675750D01*
X329405000Y-122113250D01*
X329403947Y-122134691D01*
X329400797Y-122155926D01*
X329395581Y-122176750D01*
X329388349Y-122196962D01*
X329379170Y-122216368D01*
X329368134Y-122234781D01*
X329355346Y-122252024D01*
X329340930Y-122267930D01*
X329325024Y-122282346D01*
X329307781Y-122295134D01*
X329289368Y-122306170D01*
X329269962Y-122315349D01*
X329249750Y-122322581D01*
X329228926Y-122327797D01*
X329207691Y-122330947D01*
X329186250Y-122332000D01*
X328673750Y-122332000D01*
X328652309Y-122330947D01*
X328631074Y-122327797D01*
X328610250Y-122322581D01*
X328590038Y-122315349D01*
X328570632Y-122306170D01*
X328552219Y-122295134D01*
X328534976Y-122282346D01*
X328519070Y-122267930D01*
X328504654Y-122252024D01*
X328491866Y-122234781D01*
X328480830Y-122216368D01*
X328471651Y-122196962D01*
X328464419Y-122176750D01*
X328459203Y-122155926D01*
X328456053Y-122134691D01*
X328455000Y-122113250D01*
X328455000Y-121675750D01*
X328456053Y-121654309D01*
X328459203Y-121633074D01*
X328464419Y-121612250D01*
X328471651Y-121592038D01*
X328480830Y-121572632D01*
X328491866Y-121554219D01*
X328504654Y-121536976D01*
X328519070Y-121521070D01*
X328534976Y-121506654D01*
X328552219Y-121493866D01*
X328570632Y-121482830D01*
X328590038Y-121473651D01*
X328610250Y-121466419D01*
X328631074Y-121461203D01*
X328652309Y-121458053D01*
X328673750Y-121457000D01*
X329186250Y-121457000D01*
X329207691Y-121458053D01*
X329207691Y-121458053D01*
G37*
D11*
X328930000Y-121894500D03*
D10*
G36*
X352385691Y-119033053D02*
G01*
X352406926Y-119036203D01*
X352427750Y-119041419D01*
X352447962Y-119048651D01*
X352467368Y-119057830D01*
X352485781Y-119068866D01*
X352503024Y-119081654D01*
X352518930Y-119096070D01*
X352533346Y-119111976D01*
X352546134Y-119129219D01*
X352557170Y-119147632D01*
X352566349Y-119167038D01*
X352573581Y-119187250D01*
X352578797Y-119208074D01*
X352581947Y-119229309D01*
X352583000Y-119250750D01*
X352583000Y-119763250D01*
X352581947Y-119784691D01*
X352578797Y-119805926D01*
X352573581Y-119826750D01*
X352566349Y-119846962D01*
X352557170Y-119866368D01*
X352546134Y-119884781D01*
X352533346Y-119902024D01*
X352518930Y-119917930D01*
X352503024Y-119932346D01*
X352485781Y-119945134D01*
X352467368Y-119956170D01*
X352447962Y-119965349D01*
X352427750Y-119972581D01*
X352406926Y-119977797D01*
X352385691Y-119980947D01*
X352364250Y-119982000D01*
X351926750Y-119982000D01*
X351905309Y-119980947D01*
X351884074Y-119977797D01*
X351863250Y-119972581D01*
X351843038Y-119965349D01*
X351823632Y-119956170D01*
X351805219Y-119945134D01*
X351787976Y-119932346D01*
X351772070Y-119917930D01*
X351757654Y-119902024D01*
X351744866Y-119884781D01*
X351733830Y-119866368D01*
X351724651Y-119846962D01*
X351717419Y-119826750D01*
X351712203Y-119805926D01*
X351709053Y-119784691D01*
X351708000Y-119763250D01*
X351708000Y-119250750D01*
X351709053Y-119229309D01*
X351712203Y-119208074D01*
X351717419Y-119187250D01*
X351724651Y-119167038D01*
X351733830Y-119147632D01*
X351744866Y-119129219D01*
X351757654Y-119111976D01*
X351772070Y-119096070D01*
X351787976Y-119081654D01*
X351805219Y-119068866D01*
X351823632Y-119057830D01*
X351843038Y-119048651D01*
X351863250Y-119041419D01*
X351884074Y-119036203D01*
X351905309Y-119033053D01*
X351926750Y-119032000D01*
X352364250Y-119032000D01*
X352385691Y-119033053D01*
X352385691Y-119033053D01*
G37*
D11*
X352145500Y-119507000D03*
D10*
G36*
X353960691Y-119033053D02*
G01*
X353981926Y-119036203D01*
X354002750Y-119041419D01*
X354022962Y-119048651D01*
X354042368Y-119057830D01*
X354060781Y-119068866D01*
X354078024Y-119081654D01*
X354093930Y-119096070D01*
X354108346Y-119111976D01*
X354121134Y-119129219D01*
X354132170Y-119147632D01*
X354141349Y-119167038D01*
X354148581Y-119187250D01*
X354153797Y-119208074D01*
X354156947Y-119229309D01*
X354158000Y-119250750D01*
X354158000Y-119763250D01*
X354156947Y-119784691D01*
X354153797Y-119805926D01*
X354148581Y-119826750D01*
X354141349Y-119846962D01*
X354132170Y-119866368D01*
X354121134Y-119884781D01*
X354108346Y-119902024D01*
X354093930Y-119917930D01*
X354078024Y-119932346D01*
X354060781Y-119945134D01*
X354042368Y-119956170D01*
X354022962Y-119965349D01*
X354002750Y-119972581D01*
X353981926Y-119977797D01*
X353960691Y-119980947D01*
X353939250Y-119982000D01*
X353501750Y-119982000D01*
X353480309Y-119980947D01*
X353459074Y-119977797D01*
X353438250Y-119972581D01*
X353418038Y-119965349D01*
X353398632Y-119956170D01*
X353380219Y-119945134D01*
X353362976Y-119932346D01*
X353347070Y-119917930D01*
X353332654Y-119902024D01*
X353319866Y-119884781D01*
X353308830Y-119866368D01*
X353299651Y-119846962D01*
X353292419Y-119826750D01*
X353287203Y-119805926D01*
X353284053Y-119784691D01*
X353283000Y-119763250D01*
X353283000Y-119250750D01*
X353284053Y-119229309D01*
X353287203Y-119208074D01*
X353292419Y-119187250D01*
X353299651Y-119167038D01*
X353308830Y-119147632D01*
X353319866Y-119129219D01*
X353332654Y-119111976D01*
X353347070Y-119096070D01*
X353362976Y-119081654D01*
X353380219Y-119068866D01*
X353398632Y-119057830D01*
X353418038Y-119048651D01*
X353438250Y-119041419D01*
X353459074Y-119036203D01*
X353480309Y-119033053D01*
X353501750Y-119032000D01*
X353939250Y-119032000D01*
X353960691Y-119033053D01*
X353960691Y-119033053D01*
G37*
D11*
X353720500Y-119507000D03*
D10*
G36*
X353960691Y-116366053D02*
G01*
X353981926Y-116369203D01*
X354002750Y-116374419D01*
X354022962Y-116381651D01*
X354042368Y-116390830D01*
X354060781Y-116401866D01*
X354078024Y-116414654D01*
X354093930Y-116429070D01*
X354108346Y-116444976D01*
X354121134Y-116462219D01*
X354132170Y-116480632D01*
X354141349Y-116500038D01*
X354148581Y-116520250D01*
X354153797Y-116541074D01*
X354156947Y-116562309D01*
X354158000Y-116583750D01*
X354158000Y-117096250D01*
X354156947Y-117117691D01*
X354153797Y-117138926D01*
X354148581Y-117159750D01*
X354141349Y-117179962D01*
X354132170Y-117199368D01*
X354121134Y-117217781D01*
X354108346Y-117235024D01*
X354093930Y-117250930D01*
X354078024Y-117265346D01*
X354060781Y-117278134D01*
X354042368Y-117289170D01*
X354022962Y-117298349D01*
X354002750Y-117305581D01*
X353981926Y-117310797D01*
X353960691Y-117313947D01*
X353939250Y-117315000D01*
X353501750Y-117315000D01*
X353480309Y-117313947D01*
X353459074Y-117310797D01*
X353438250Y-117305581D01*
X353418038Y-117298349D01*
X353398632Y-117289170D01*
X353380219Y-117278134D01*
X353362976Y-117265346D01*
X353347070Y-117250930D01*
X353332654Y-117235024D01*
X353319866Y-117217781D01*
X353308830Y-117199368D01*
X353299651Y-117179962D01*
X353292419Y-117159750D01*
X353287203Y-117138926D01*
X353284053Y-117117691D01*
X353283000Y-117096250D01*
X353283000Y-116583750D01*
X353284053Y-116562309D01*
X353287203Y-116541074D01*
X353292419Y-116520250D01*
X353299651Y-116500038D01*
X353308830Y-116480632D01*
X353319866Y-116462219D01*
X353332654Y-116444976D01*
X353347070Y-116429070D01*
X353362976Y-116414654D01*
X353380219Y-116401866D01*
X353398632Y-116390830D01*
X353418038Y-116381651D01*
X353438250Y-116374419D01*
X353459074Y-116369203D01*
X353480309Y-116366053D01*
X353501750Y-116365000D01*
X353939250Y-116365000D01*
X353960691Y-116366053D01*
X353960691Y-116366053D01*
G37*
D11*
X353720500Y-116840000D03*
D10*
G36*
X352385691Y-116366053D02*
G01*
X352406926Y-116369203D01*
X352427750Y-116374419D01*
X352447962Y-116381651D01*
X352467368Y-116390830D01*
X352485781Y-116401866D01*
X352503024Y-116414654D01*
X352518930Y-116429070D01*
X352533346Y-116444976D01*
X352546134Y-116462219D01*
X352557170Y-116480632D01*
X352566349Y-116500038D01*
X352573581Y-116520250D01*
X352578797Y-116541074D01*
X352581947Y-116562309D01*
X352583000Y-116583750D01*
X352583000Y-117096250D01*
X352581947Y-117117691D01*
X352578797Y-117138926D01*
X352573581Y-117159750D01*
X352566349Y-117179962D01*
X352557170Y-117199368D01*
X352546134Y-117217781D01*
X352533346Y-117235024D01*
X352518930Y-117250930D01*
X352503024Y-117265346D01*
X352485781Y-117278134D01*
X352467368Y-117289170D01*
X352447962Y-117298349D01*
X352427750Y-117305581D01*
X352406926Y-117310797D01*
X352385691Y-117313947D01*
X352364250Y-117315000D01*
X351926750Y-117315000D01*
X351905309Y-117313947D01*
X351884074Y-117310797D01*
X351863250Y-117305581D01*
X351843038Y-117298349D01*
X351823632Y-117289170D01*
X351805219Y-117278134D01*
X351787976Y-117265346D01*
X351772070Y-117250930D01*
X351757654Y-117235024D01*
X351744866Y-117217781D01*
X351733830Y-117199368D01*
X351724651Y-117179962D01*
X351717419Y-117159750D01*
X351712203Y-117138926D01*
X351709053Y-117117691D01*
X351708000Y-117096250D01*
X351708000Y-116583750D01*
X351709053Y-116562309D01*
X351712203Y-116541074D01*
X351717419Y-116520250D01*
X351724651Y-116500038D01*
X351733830Y-116480632D01*
X351744866Y-116462219D01*
X351757654Y-116444976D01*
X351772070Y-116429070D01*
X351787976Y-116414654D01*
X351805219Y-116401866D01*
X351823632Y-116390830D01*
X351843038Y-116381651D01*
X351863250Y-116374419D01*
X351884074Y-116369203D01*
X351905309Y-116366053D01*
X351926750Y-116365000D01*
X352364250Y-116365000D01*
X352385691Y-116366053D01*
X352385691Y-116366053D01*
G37*
D11*
X352145500Y-116840000D03*
D12*
X333070200Y-115443000D03*
X333070200Y-116713000D03*
X333070200Y-117983000D03*
X333070200Y-119253000D03*
X337997800Y-119253000D03*
X337997800Y-117983000D03*
X337997800Y-116713000D03*
X337997800Y-115443000D03*
D13*
X343687400Y-115380000D03*
X343687400Y-116650000D03*
X343687400Y-117920000D03*
X343687400Y-119190000D03*
X343687400Y-120460000D03*
X343687400Y-121730000D03*
X343687400Y-123000000D03*
X348488000Y-123000000D03*
X348488000Y-121730000D03*
X348488000Y-120460000D03*
X348488000Y-119190000D03*
X348488000Y-117920000D03*
X348488000Y-116650000D03*
X348488000Y-115380000D03*
M02*
