M48
; DRILL file {KiCad (5.1.4)-1} date 02/11/2019 17:27:47
; FORMAT={-:-/ absolute / inch / decimal}
; #@! TF.CreationDate,2019-11-02T17:27:47+00:00
; #@! TF.GenerationSoftware,Kicad,Pcbnew,(5.1.4)-1
FMAT,2
INCH
T1C0.0157
T2C0.0374
T3C0.0394
T4C0.0472
T5C0.0866
T6C0.0472
%
G90
G05
T1
X12.86Y-4.5
X12.95Y-4.91
X13.01Y-4.82
X13.01Y-5.0
X13.11Y-4.737
X13.113Y-4.485
X13.179Y-4.809
X13.241Y-4.419
X13.46Y-4.84
X14.055Y-4.65
T2
X14.52Y-4.4
X14.52Y-4.4984
X14.52Y-4.5969
X14.52Y-4.6953
T3
X12.6051Y-4.68
X12.6051Y-4.8769
X12.798Y-4.7784
X14.17Y-4.33
X14.17Y-4.43
X14.17Y-4.6
X14.17Y-4.7
T4
X12.24Y-4.35
X12.24Y-4.55
X12.24Y-4.75
T5
X12.6278Y-4.2625
T6
X14.4413Y-4.337
T3
G00X12.8Y-4.2389
M15
G01X12.8Y-4.2861
M16
G05
G00X12.9722Y-4.2389
M15
G01X12.9722Y-4.2861
M16
G05
T0
M30
