G04 #@! TF.GenerationSoftware,KiCad,Pcbnew,(5.1.4)-1*
G04 #@! TF.CreationDate,2019-10-29T09:59:23+00:00*
G04 #@! TF.ProjectId,timer-board,74696d65-722d-4626-9f61-72642e6b6963,rev?*
G04 #@! TF.SameCoordinates,Original*
G04 #@! TF.FileFunction,Copper,L1,Top*
G04 #@! TF.FilePolarity,Positive*
%FSLAX46Y46*%
G04 Gerber Fmt 4.6, Leading zero omitted, Abs format (unit mm)*
G04 Created by KiCad (PCBNEW (5.1.4)-1) date 2019-10-29 09:59:23*
%MOMM*%
%LPD*%
G04 APERTURE LIST*
%ADD10O,1.950000X1.700000*%
%ADD11C,0.100000*%
%ADD12C,1.700000*%
%ADD13C,2.200000*%
%ADD14R,2.200000X2.200000*%
%ADD15C,0.400000*%
%ADD16C,0.875000*%
%ADD17R,1.700000X1.700000*%
%ADD18O,1.700000X1.700000*%
%ADD19C,2.340000*%
%ADD20R,2.781300X2.781300*%
%ADD21C,2.781300*%
%ADD22R,1.981200X0.558800*%
%ADD23R,2.057400X0.609600*%
%ADD24C,0.800000*%
%ADD25C,0.250000*%
%ADD26C,0.500000*%
G04 APERTURE END LIST*
D10*
X368808000Y-119260000D03*
X368808000Y-116760000D03*
X368808000Y-114260000D03*
D11*
G36*
X369557504Y-110911204D02*
G01*
X369581773Y-110914804D01*
X369605571Y-110920765D01*
X369628671Y-110929030D01*
X369650849Y-110939520D01*
X369671893Y-110952133D01*
X369691598Y-110966747D01*
X369709777Y-110983223D01*
X369726253Y-111001402D01*
X369740867Y-111021107D01*
X369753480Y-111042151D01*
X369763970Y-111064329D01*
X369772235Y-111087429D01*
X369778196Y-111111227D01*
X369781796Y-111135496D01*
X369783000Y-111160000D01*
X369783000Y-112360000D01*
X369781796Y-112384504D01*
X369778196Y-112408773D01*
X369772235Y-112432571D01*
X369763970Y-112455671D01*
X369753480Y-112477849D01*
X369740867Y-112498893D01*
X369726253Y-112518598D01*
X369709777Y-112536777D01*
X369691598Y-112553253D01*
X369671893Y-112567867D01*
X369650849Y-112580480D01*
X369628671Y-112590970D01*
X369605571Y-112599235D01*
X369581773Y-112605196D01*
X369557504Y-112608796D01*
X369533000Y-112610000D01*
X368083000Y-112610000D01*
X368058496Y-112608796D01*
X368034227Y-112605196D01*
X368010429Y-112599235D01*
X367987329Y-112590970D01*
X367965151Y-112580480D01*
X367944107Y-112567867D01*
X367924402Y-112553253D01*
X367906223Y-112536777D01*
X367889747Y-112518598D01*
X367875133Y-112498893D01*
X367862520Y-112477849D01*
X367852030Y-112455671D01*
X367843765Y-112432571D01*
X367837804Y-112408773D01*
X367834204Y-112384504D01*
X367833000Y-112360000D01*
X367833000Y-111160000D01*
X367834204Y-111135496D01*
X367837804Y-111111227D01*
X367843765Y-111087429D01*
X367852030Y-111064329D01*
X367862520Y-111042151D01*
X367875133Y-111021107D01*
X367889747Y-111001402D01*
X367906223Y-110983223D01*
X367924402Y-110966747D01*
X367944107Y-110952133D01*
X367965151Y-110939520D01*
X367987329Y-110929030D01*
X368010429Y-110920765D01*
X368034227Y-110914804D01*
X368058496Y-110911204D01*
X368083000Y-110910000D01*
X369533000Y-110910000D01*
X369557504Y-110911204D01*
X369557504Y-110911204D01*
G37*
D12*
X368808000Y-111760000D03*
D13*
X310896000Y-120650000D03*
X310896000Y-115570000D03*
D14*
X310896000Y-110490000D03*
D11*
G36*
X357583802Y-119434482D02*
G01*
X357593509Y-119435921D01*
X357603028Y-119438306D01*
X357612268Y-119441612D01*
X357621140Y-119445808D01*
X357629557Y-119450853D01*
X357637439Y-119456699D01*
X357644711Y-119463289D01*
X357651301Y-119470561D01*
X357657147Y-119478443D01*
X357662192Y-119486860D01*
X357666388Y-119495732D01*
X357669694Y-119504972D01*
X357672079Y-119514491D01*
X357673518Y-119524198D01*
X357674000Y-119534000D01*
X357674000Y-119734000D01*
X357673518Y-119743802D01*
X357672079Y-119753509D01*
X357669694Y-119763028D01*
X357666388Y-119772268D01*
X357662192Y-119781140D01*
X357657147Y-119789557D01*
X357651301Y-119797439D01*
X357644711Y-119804711D01*
X357637439Y-119811301D01*
X357629557Y-119817147D01*
X357621140Y-119822192D01*
X357612268Y-119826388D01*
X357603028Y-119829694D01*
X357593509Y-119832079D01*
X357583802Y-119833518D01*
X357574000Y-119834000D01*
X357314000Y-119834000D01*
X357304198Y-119833518D01*
X357294491Y-119832079D01*
X357284972Y-119829694D01*
X357275732Y-119826388D01*
X357266860Y-119822192D01*
X357258443Y-119817147D01*
X357250561Y-119811301D01*
X357243289Y-119804711D01*
X357236699Y-119797439D01*
X357230853Y-119789557D01*
X357225808Y-119781140D01*
X357221612Y-119772268D01*
X357218306Y-119763028D01*
X357215921Y-119753509D01*
X357214482Y-119743802D01*
X357214000Y-119734000D01*
X357214000Y-119534000D01*
X357214482Y-119524198D01*
X357215921Y-119514491D01*
X357218306Y-119504972D01*
X357221612Y-119495732D01*
X357225808Y-119486860D01*
X357230853Y-119478443D01*
X357236699Y-119470561D01*
X357243289Y-119463289D01*
X357250561Y-119456699D01*
X357258443Y-119450853D01*
X357266860Y-119445808D01*
X357275732Y-119441612D01*
X357284972Y-119438306D01*
X357294491Y-119435921D01*
X357304198Y-119434482D01*
X357314000Y-119434000D01*
X357574000Y-119434000D01*
X357583802Y-119434482D01*
X357583802Y-119434482D01*
G37*
D15*
X357444000Y-119634000D03*
D11*
G36*
X356943802Y-119434482D02*
G01*
X356953509Y-119435921D01*
X356963028Y-119438306D01*
X356972268Y-119441612D01*
X356981140Y-119445808D01*
X356989557Y-119450853D01*
X356997439Y-119456699D01*
X357004711Y-119463289D01*
X357011301Y-119470561D01*
X357017147Y-119478443D01*
X357022192Y-119486860D01*
X357026388Y-119495732D01*
X357029694Y-119504972D01*
X357032079Y-119514491D01*
X357033518Y-119524198D01*
X357034000Y-119534000D01*
X357034000Y-119734000D01*
X357033518Y-119743802D01*
X357032079Y-119753509D01*
X357029694Y-119763028D01*
X357026388Y-119772268D01*
X357022192Y-119781140D01*
X357017147Y-119789557D01*
X357011301Y-119797439D01*
X357004711Y-119804711D01*
X356997439Y-119811301D01*
X356989557Y-119817147D01*
X356981140Y-119822192D01*
X356972268Y-119826388D01*
X356963028Y-119829694D01*
X356953509Y-119832079D01*
X356943802Y-119833518D01*
X356934000Y-119834000D01*
X356674000Y-119834000D01*
X356664198Y-119833518D01*
X356654491Y-119832079D01*
X356644972Y-119829694D01*
X356635732Y-119826388D01*
X356626860Y-119822192D01*
X356618443Y-119817147D01*
X356610561Y-119811301D01*
X356603289Y-119804711D01*
X356596699Y-119797439D01*
X356590853Y-119789557D01*
X356585808Y-119781140D01*
X356581612Y-119772268D01*
X356578306Y-119763028D01*
X356575921Y-119753509D01*
X356574482Y-119743802D01*
X356574000Y-119734000D01*
X356574000Y-119534000D01*
X356574482Y-119524198D01*
X356575921Y-119514491D01*
X356578306Y-119504972D01*
X356581612Y-119495732D01*
X356585808Y-119486860D01*
X356590853Y-119478443D01*
X356596699Y-119470561D01*
X356603289Y-119463289D01*
X356610561Y-119456699D01*
X356618443Y-119450853D01*
X356626860Y-119445808D01*
X356635732Y-119441612D01*
X356644972Y-119438306D01*
X356654491Y-119435921D01*
X356664198Y-119434482D01*
X356674000Y-119434000D01*
X356934000Y-119434000D01*
X356943802Y-119434482D01*
X356943802Y-119434482D01*
G37*
D15*
X356804000Y-119634000D03*
D11*
G36*
X354036691Y-119160053D02*
G01*
X354057926Y-119163203D01*
X354078750Y-119168419D01*
X354098962Y-119175651D01*
X354118368Y-119184830D01*
X354136781Y-119195866D01*
X354154024Y-119208654D01*
X354169930Y-119223070D01*
X354184346Y-119238976D01*
X354197134Y-119256219D01*
X354208170Y-119274632D01*
X354217349Y-119294038D01*
X354224581Y-119314250D01*
X354229797Y-119335074D01*
X354232947Y-119356309D01*
X354234000Y-119377750D01*
X354234000Y-119890250D01*
X354232947Y-119911691D01*
X354229797Y-119932926D01*
X354224581Y-119953750D01*
X354217349Y-119973962D01*
X354208170Y-119993368D01*
X354197134Y-120011781D01*
X354184346Y-120029024D01*
X354169930Y-120044930D01*
X354154024Y-120059346D01*
X354136781Y-120072134D01*
X354118368Y-120083170D01*
X354098962Y-120092349D01*
X354078750Y-120099581D01*
X354057926Y-120104797D01*
X354036691Y-120107947D01*
X354015250Y-120109000D01*
X353577750Y-120109000D01*
X353556309Y-120107947D01*
X353535074Y-120104797D01*
X353514250Y-120099581D01*
X353494038Y-120092349D01*
X353474632Y-120083170D01*
X353456219Y-120072134D01*
X353438976Y-120059346D01*
X353423070Y-120044930D01*
X353408654Y-120029024D01*
X353395866Y-120011781D01*
X353384830Y-119993368D01*
X353375651Y-119973962D01*
X353368419Y-119953750D01*
X353363203Y-119932926D01*
X353360053Y-119911691D01*
X353359000Y-119890250D01*
X353359000Y-119377750D01*
X353360053Y-119356309D01*
X353363203Y-119335074D01*
X353368419Y-119314250D01*
X353375651Y-119294038D01*
X353384830Y-119274632D01*
X353395866Y-119256219D01*
X353408654Y-119238976D01*
X353423070Y-119223070D01*
X353438976Y-119208654D01*
X353456219Y-119195866D01*
X353474632Y-119184830D01*
X353494038Y-119175651D01*
X353514250Y-119168419D01*
X353535074Y-119163203D01*
X353556309Y-119160053D01*
X353577750Y-119159000D01*
X354015250Y-119159000D01*
X354036691Y-119160053D01*
X354036691Y-119160053D01*
G37*
D16*
X353796500Y-119634000D03*
D11*
G36*
X355611691Y-119160053D02*
G01*
X355632926Y-119163203D01*
X355653750Y-119168419D01*
X355673962Y-119175651D01*
X355693368Y-119184830D01*
X355711781Y-119195866D01*
X355729024Y-119208654D01*
X355744930Y-119223070D01*
X355759346Y-119238976D01*
X355772134Y-119256219D01*
X355783170Y-119274632D01*
X355792349Y-119294038D01*
X355799581Y-119314250D01*
X355804797Y-119335074D01*
X355807947Y-119356309D01*
X355809000Y-119377750D01*
X355809000Y-119890250D01*
X355807947Y-119911691D01*
X355804797Y-119932926D01*
X355799581Y-119953750D01*
X355792349Y-119973962D01*
X355783170Y-119993368D01*
X355772134Y-120011781D01*
X355759346Y-120029024D01*
X355744930Y-120044930D01*
X355729024Y-120059346D01*
X355711781Y-120072134D01*
X355693368Y-120083170D01*
X355673962Y-120092349D01*
X355653750Y-120099581D01*
X355632926Y-120104797D01*
X355611691Y-120107947D01*
X355590250Y-120109000D01*
X355152750Y-120109000D01*
X355131309Y-120107947D01*
X355110074Y-120104797D01*
X355089250Y-120099581D01*
X355069038Y-120092349D01*
X355049632Y-120083170D01*
X355031219Y-120072134D01*
X355013976Y-120059346D01*
X354998070Y-120044930D01*
X354983654Y-120029024D01*
X354970866Y-120011781D01*
X354959830Y-119993368D01*
X354950651Y-119973962D01*
X354943419Y-119953750D01*
X354938203Y-119932926D01*
X354935053Y-119911691D01*
X354934000Y-119890250D01*
X354934000Y-119377750D01*
X354935053Y-119356309D01*
X354938203Y-119335074D01*
X354943419Y-119314250D01*
X354950651Y-119294038D01*
X354959830Y-119274632D01*
X354970866Y-119256219D01*
X354983654Y-119238976D01*
X354998070Y-119223070D01*
X355013976Y-119208654D01*
X355031219Y-119195866D01*
X355049632Y-119184830D01*
X355069038Y-119175651D01*
X355089250Y-119168419D01*
X355110074Y-119163203D01*
X355131309Y-119160053D01*
X355152750Y-119159000D01*
X355590250Y-119159000D01*
X355611691Y-119160053D01*
X355611691Y-119160053D01*
G37*
D16*
X355371500Y-119634000D03*
D11*
G36*
X329039802Y-121248482D02*
G01*
X329049509Y-121249921D01*
X329059028Y-121252306D01*
X329068268Y-121255612D01*
X329077140Y-121259808D01*
X329085557Y-121264853D01*
X329093439Y-121270699D01*
X329100711Y-121277289D01*
X329107301Y-121284561D01*
X329113147Y-121292443D01*
X329118192Y-121300860D01*
X329122388Y-121309732D01*
X329125694Y-121318972D01*
X329128079Y-121328491D01*
X329129518Y-121338198D01*
X329130000Y-121348000D01*
X329130000Y-121608000D01*
X329129518Y-121617802D01*
X329128079Y-121627509D01*
X329125694Y-121637028D01*
X329122388Y-121646268D01*
X329118192Y-121655140D01*
X329113147Y-121663557D01*
X329107301Y-121671439D01*
X329100711Y-121678711D01*
X329093439Y-121685301D01*
X329085557Y-121691147D01*
X329077140Y-121696192D01*
X329068268Y-121700388D01*
X329059028Y-121703694D01*
X329049509Y-121706079D01*
X329039802Y-121707518D01*
X329030000Y-121708000D01*
X328830000Y-121708000D01*
X328820198Y-121707518D01*
X328810491Y-121706079D01*
X328800972Y-121703694D01*
X328791732Y-121700388D01*
X328782860Y-121696192D01*
X328774443Y-121691147D01*
X328766561Y-121685301D01*
X328759289Y-121678711D01*
X328752699Y-121671439D01*
X328746853Y-121663557D01*
X328741808Y-121655140D01*
X328737612Y-121646268D01*
X328734306Y-121637028D01*
X328731921Y-121627509D01*
X328730482Y-121617802D01*
X328730000Y-121608000D01*
X328730000Y-121348000D01*
X328730482Y-121338198D01*
X328731921Y-121328491D01*
X328734306Y-121318972D01*
X328737612Y-121309732D01*
X328741808Y-121300860D01*
X328746853Y-121292443D01*
X328752699Y-121284561D01*
X328759289Y-121277289D01*
X328766561Y-121270699D01*
X328774443Y-121264853D01*
X328782860Y-121259808D01*
X328791732Y-121255612D01*
X328800972Y-121252306D01*
X328810491Y-121249921D01*
X328820198Y-121248482D01*
X328830000Y-121248000D01*
X329030000Y-121248000D01*
X329039802Y-121248482D01*
X329039802Y-121248482D01*
G37*
D15*
X328930000Y-121478000D03*
D11*
G36*
X329039802Y-120608482D02*
G01*
X329049509Y-120609921D01*
X329059028Y-120612306D01*
X329068268Y-120615612D01*
X329077140Y-120619808D01*
X329085557Y-120624853D01*
X329093439Y-120630699D01*
X329100711Y-120637289D01*
X329107301Y-120644561D01*
X329113147Y-120652443D01*
X329118192Y-120660860D01*
X329122388Y-120669732D01*
X329125694Y-120678972D01*
X329128079Y-120688491D01*
X329129518Y-120698198D01*
X329130000Y-120708000D01*
X329130000Y-120968000D01*
X329129518Y-120977802D01*
X329128079Y-120987509D01*
X329125694Y-120997028D01*
X329122388Y-121006268D01*
X329118192Y-121015140D01*
X329113147Y-121023557D01*
X329107301Y-121031439D01*
X329100711Y-121038711D01*
X329093439Y-121045301D01*
X329085557Y-121051147D01*
X329077140Y-121056192D01*
X329068268Y-121060388D01*
X329059028Y-121063694D01*
X329049509Y-121066079D01*
X329039802Y-121067518D01*
X329030000Y-121068000D01*
X328830000Y-121068000D01*
X328820198Y-121067518D01*
X328810491Y-121066079D01*
X328800972Y-121063694D01*
X328791732Y-121060388D01*
X328782860Y-121056192D01*
X328774443Y-121051147D01*
X328766561Y-121045301D01*
X328759289Y-121038711D01*
X328752699Y-121031439D01*
X328746853Y-121023557D01*
X328741808Y-121015140D01*
X328737612Y-121006268D01*
X328734306Y-120997028D01*
X328731921Y-120987509D01*
X328730482Y-120977802D01*
X328730000Y-120968000D01*
X328730000Y-120708000D01*
X328730482Y-120698198D01*
X328731921Y-120688491D01*
X328734306Y-120678972D01*
X328737612Y-120669732D01*
X328741808Y-120660860D01*
X328746853Y-120652443D01*
X328752699Y-120644561D01*
X328759289Y-120637289D01*
X328766561Y-120630699D01*
X328774443Y-120624853D01*
X328782860Y-120619808D01*
X328791732Y-120615612D01*
X328800972Y-120612306D01*
X328810491Y-120609921D01*
X328820198Y-120608482D01*
X328830000Y-120608000D01*
X329030000Y-120608000D01*
X329039802Y-120608482D01*
X329039802Y-120608482D01*
G37*
D15*
X328930000Y-120838000D03*
D11*
G36*
X335993802Y-113846482D02*
G01*
X336003509Y-113847921D01*
X336013028Y-113850306D01*
X336022268Y-113853612D01*
X336031140Y-113857808D01*
X336039557Y-113862853D01*
X336047439Y-113868699D01*
X336054711Y-113875289D01*
X336061301Y-113882561D01*
X336067147Y-113890443D01*
X336072192Y-113898860D01*
X336076388Y-113907732D01*
X336079694Y-113916972D01*
X336082079Y-113926491D01*
X336083518Y-113936198D01*
X336084000Y-113946000D01*
X336084000Y-114146000D01*
X336083518Y-114155802D01*
X336082079Y-114165509D01*
X336079694Y-114175028D01*
X336076388Y-114184268D01*
X336072192Y-114193140D01*
X336067147Y-114201557D01*
X336061301Y-114209439D01*
X336054711Y-114216711D01*
X336047439Y-114223301D01*
X336039557Y-114229147D01*
X336031140Y-114234192D01*
X336022268Y-114238388D01*
X336013028Y-114241694D01*
X336003509Y-114244079D01*
X335993802Y-114245518D01*
X335984000Y-114246000D01*
X335724000Y-114246000D01*
X335714198Y-114245518D01*
X335704491Y-114244079D01*
X335694972Y-114241694D01*
X335685732Y-114238388D01*
X335676860Y-114234192D01*
X335668443Y-114229147D01*
X335660561Y-114223301D01*
X335653289Y-114216711D01*
X335646699Y-114209439D01*
X335640853Y-114201557D01*
X335635808Y-114193140D01*
X335631612Y-114184268D01*
X335628306Y-114175028D01*
X335625921Y-114165509D01*
X335624482Y-114155802D01*
X335624000Y-114146000D01*
X335624000Y-113946000D01*
X335624482Y-113936198D01*
X335625921Y-113926491D01*
X335628306Y-113916972D01*
X335631612Y-113907732D01*
X335635808Y-113898860D01*
X335640853Y-113890443D01*
X335646699Y-113882561D01*
X335653289Y-113875289D01*
X335660561Y-113868699D01*
X335668443Y-113862853D01*
X335676860Y-113857808D01*
X335685732Y-113853612D01*
X335694972Y-113850306D01*
X335704491Y-113847921D01*
X335714198Y-113846482D01*
X335724000Y-113846000D01*
X335984000Y-113846000D01*
X335993802Y-113846482D01*
X335993802Y-113846482D01*
G37*
D15*
X335854000Y-114046000D03*
D11*
G36*
X335353802Y-113846482D02*
G01*
X335363509Y-113847921D01*
X335373028Y-113850306D01*
X335382268Y-113853612D01*
X335391140Y-113857808D01*
X335399557Y-113862853D01*
X335407439Y-113868699D01*
X335414711Y-113875289D01*
X335421301Y-113882561D01*
X335427147Y-113890443D01*
X335432192Y-113898860D01*
X335436388Y-113907732D01*
X335439694Y-113916972D01*
X335442079Y-113926491D01*
X335443518Y-113936198D01*
X335444000Y-113946000D01*
X335444000Y-114146000D01*
X335443518Y-114155802D01*
X335442079Y-114165509D01*
X335439694Y-114175028D01*
X335436388Y-114184268D01*
X335432192Y-114193140D01*
X335427147Y-114201557D01*
X335421301Y-114209439D01*
X335414711Y-114216711D01*
X335407439Y-114223301D01*
X335399557Y-114229147D01*
X335391140Y-114234192D01*
X335382268Y-114238388D01*
X335373028Y-114241694D01*
X335363509Y-114244079D01*
X335353802Y-114245518D01*
X335344000Y-114246000D01*
X335084000Y-114246000D01*
X335074198Y-114245518D01*
X335064491Y-114244079D01*
X335054972Y-114241694D01*
X335045732Y-114238388D01*
X335036860Y-114234192D01*
X335028443Y-114229147D01*
X335020561Y-114223301D01*
X335013289Y-114216711D01*
X335006699Y-114209439D01*
X335000853Y-114201557D01*
X334995808Y-114193140D01*
X334991612Y-114184268D01*
X334988306Y-114175028D01*
X334985921Y-114165509D01*
X334984482Y-114155802D01*
X334984000Y-114146000D01*
X334984000Y-113946000D01*
X334984482Y-113936198D01*
X334985921Y-113926491D01*
X334988306Y-113916972D01*
X334991612Y-113907732D01*
X334995808Y-113898860D01*
X335000853Y-113890443D01*
X335006699Y-113882561D01*
X335013289Y-113875289D01*
X335020561Y-113868699D01*
X335028443Y-113862853D01*
X335036860Y-113857808D01*
X335045732Y-113853612D01*
X335054972Y-113850306D01*
X335064491Y-113847921D01*
X335074198Y-113846482D01*
X335084000Y-113846000D01*
X335344000Y-113846000D01*
X335353802Y-113846482D01*
X335353802Y-113846482D01*
G37*
D15*
X335214000Y-114046000D03*
D11*
G36*
X336084802Y-120450482D02*
G01*
X336094509Y-120451921D01*
X336104028Y-120454306D01*
X336113268Y-120457612D01*
X336122140Y-120461808D01*
X336130557Y-120466853D01*
X336138439Y-120472699D01*
X336145711Y-120479289D01*
X336152301Y-120486561D01*
X336158147Y-120494443D01*
X336163192Y-120502860D01*
X336167388Y-120511732D01*
X336170694Y-120520972D01*
X336173079Y-120530491D01*
X336174518Y-120540198D01*
X336175000Y-120550000D01*
X336175000Y-120750000D01*
X336174518Y-120759802D01*
X336173079Y-120769509D01*
X336170694Y-120779028D01*
X336167388Y-120788268D01*
X336163192Y-120797140D01*
X336158147Y-120805557D01*
X336152301Y-120813439D01*
X336145711Y-120820711D01*
X336138439Y-120827301D01*
X336130557Y-120833147D01*
X336122140Y-120838192D01*
X336113268Y-120842388D01*
X336104028Y-120845694D01*
X336094509Y-120848079D01*
X336084802Y-120849518D01*
X336075000Y-120850000D01*
X335815000Y-120850000D01*
X335805198Y-120849518D01*
X335795491Y-120848079D01*
X335785972Y-120845694D01*
X335776732Y-120842388D01*
X335767860Y-120838192D01*
X335759443Y-120833147D01*
X335751561Y-120827301D01*
X335744289Y-120820711D01*
X335737699Y-120813439D01*
X335731853Y-120805557D01*
X335726808Y-120797140D01*
X335722612Y-120788268D01*
X335719306Y-120779028D01*
X335716921Y-120769509D01*
X335715482Y-120759802D01*
X335715000Y-120750000D01*
X335715000Y-120550000D01*
X335715482Y-120540198D01*
X335716921Y-120530491D01*
X335719306Y-120520972D01*
X335722612Y-120511732D01*
X335726808Y-120502860D01*
X335731853Y-120494443D01*
X335737699Y-120486561D01*
X335744289Y-120479289D01*
X335751561Y-120472699D01*
X335759443Y-120466853D01*
X335767860Y-120461808D01*
X335776732Y-120457612D01*
X335785972Y-120454306D01*
X335795491Y-120451921D01*
X335805198Y-120450482D01*
X335815000Y-120450000D01*
X336075000Y-120450000D01*
X336084802Y-120450482D01*
X336084802Y-120450482D01*
G37*
D15*
X335945000Y-120650000D03*
D11*
G36*
X335444802Y-120450482D02*
G01*
X335454509Y-120451921D01*
X335464028Y-120454306D01*
X335473268Y-120457612D01*
X335482140Y-120461808D01*
X335490557Y-120466853D01*
X335498439Y-120472699D01*
X335505711Y-120479289D01*
X335512301Y-120486561D01*
X335518147Y-120494443D01*
X335523192Y-120502860D01*
X335527388Y-120511732D01*
X335530694Y-120520972D01*
X335533079Y-120530491D01*
X335534518Y-120540198D01*
X335535000Y-120550000D01*
X335535000Y-120750000D01*
X335534518Y-120759802D01*
X335533079Y-120769509D01*
X335530694Y-120779028D01*
X335527388Y-120788268D01*
X335523192Y-120797140D01*
X335518147Y-120805557D01*
X335512301Y-120813439D01*
X335505711Y-120820711D01*
X335498439Y-120827301D01*
X335490557Y-120833147D01*
X335482140Y-120838192D01*
X335473268Y-120842388D01*
X335464028Y-120845694D01*
X335454509Y-120848079D01*
X335444802Y-120849518D01*
X335435000Y-120850000D01*
X335175000Y-120850000D01*
X335165198Y-120849518D01*
X335155491Y-120848079D01*
X335145972Y-120845694D01*
X335136732Y-120842388D01*
X335127860Y-120838192D01*
X335119443Y-120833147D01*
X335111561Y-120827301D01*
X335104289Y-120820711D01*
X335097699Y-120813439D01*
X335091853Y-120805557D01*
X335086808Y-120797140D01*
X335082612Y-120788268D01*
X335079306Y-120779028D01*
X335076921Y-120769509D01*
X335075482Y-120759802D01*
X335075000Y-120750000D01*
X335075000Y-120550000D01*
X335075482Y-120540198D01*
X335076921Y-120530491D01*
X335079306Y-120520972D01*
X335082612Y-120511732D01*
X335086808Y-120502860D01*
X335091853Y-120494443D01*
X335097699Y-120486561D01*
X335104289Y-120479289D01*
X335111561Y-120472699D01*
X335119443Y-120466853D01*
X335127860Y-120461808D01*
X335136732Y-120457612D01*
X335145972Y-120454306D01*
X335155491Y-120451921D01*
X335165198Y-120450482D01*
X335175000Y-120450000D01*
X335435000Y-120450000D01*
X335444802Y-120450482D01*
X335444802Y-120450482D01*
G37*
D15*
X335305000Y-120650000D03*
D11*
G36*
X355586191Y-116366053D02*
G01*
X355607426Y-116369203D01*
X355628250Y-116374419D01*
X355648462Y-116381651D01*
X355667868Y-116390830D01*
X355686281Y-116401866D01*
X355703524Y-116414654D01*
X355719430Y-116429070D01*
X355733846Y-116444976D01*
X355746634Y-116462219D01*
X355757670Y-116480632D01*
X355766849Y-116500038D01*
X355774081Y-116520250D01*
X355779297Y-116541074D01*
X355782447Y-116562309D01*
X355783500Y-116583750D01*
X355783500Y-117096250D01*
X355782447Y-117117691D01*
X355779297Y-117138926D01*
X355774081Y-117159750D01*
X355766849Y-117179962D01*
X355757670Y-117199368D01*
X355746634Y-117217781D01*
X355733846Y-117235024D01*
X355719430Y-117250930D01*
X355703524Y-117265346D01*
X355686281Y-117278134D01*
X355667868Y-117289170D01*
X355648462Y-117298349D01*
X355628250Y-117305581D01*
X355607426Y-117310797D01*
X355586191Y-117313947D01*
X355564750Y-117315000D01*
X355127250Y-117315000D01*
X355105809Y-117313947D01*
X355084574Y-117310797D01*
X355063750Y-117305581D01*
X355043538Y-117298349D01*
X355024132Y-117289170D01*
X355005719Y-117278134D01*
X354988476Y-117265346D01*
X354972570Y-117250930D01*
X354958154Y-117235024D01*
X354945366Y-117217781D01*
X354934330Y-117199368D01*
X354925151Y-117179962D01*
X354917919Y-117159750D01*
X354912703Y-117138926D01*
X354909553Y-117117691D01*
X354908500Y-117096250D01*
X354908500Y-116583750D01*
X354909553Y-116562309D01*
X354912703Y-116541074D01*
X354917919Y-116520250D01*
X354925151Y-116500038D01*
X354934330Y-116480632D01*
X354945366Y-116462219D01*
X354958154Y-116444976D01*
X354972570Y-116429070D01*
X354988476Y-116414654D01*
X355005719Y-116401866D01*
X355024132Y-116390830D01*
X355043538Y-116381651D01*
X355063750Y-116374419D01*
X355084574Y-116369203D01*
X355105809Y-116366053D01*
X355127250Y-116365000D01*
X355564750Y-116365000D01*
X355586191Y-116366053D01*
X355586191Y-116366053D01*
G37*
D16*
X355346000Y-116840000D03*
D11*
G36*
X354011191Y-116366053D02*
G01*
X354032426Y-116369203D01*
X354053250Y-116374419D01*
X354073462Y-116381651D01*
X354092868Y-116390830D01*
X354111281Y-116401866D01*
X354128524Y-116414654D01*
X354144430Y-116429070D01*
X354158846Y-116444976D01*
X354171634Y-116462219D01*
X354182670Y-116480632D01*
X354191849Y-116500038D01*
X354199081Y-116520250D01*
X354204297Y-116541074D01*
X354207447Y-116562309D01*
X354208500Y-116583750D01*
X354208500Y-117096250D01*
X354207447Y-117117691D01*
X354204297Y-117138926D01*
X354199081Y-117159750D01*
X354191849Y-117179962D01*
X354182670Y-117199368D01*
X354171634Y-117217781D01*
X354158846Y-117235024D01*
X354144430Y-117250930D01*
X354128524Y-117265346D01*
X354111281Y-117278134D01*
X354092868Y-117289170D01*
X354073462Y-117298349D01*
X354053250Y-117305581D01*
X354032426Y-117310797D01*
X354011191Y-117313947D01*
X353989750Y-117315000D01*
X353552250Y-117315000D01*
X353530809Y-117313947D01*
X353509574Y-117310797D01*
X353488750Y-117305581D01*
X353468538Y-117298349D01*
X353449132Y-117289170D01*
X353430719Y-117278134D01*
X353413476Y-117265346D01*
X353397570Y-117250930D01*
X353383154Y-117235024D01*
X353370366Y-117217781D01*
X353359330Y-117199368D01*
X353350151Y-117179962D01*
X353342919Y-117159750D01*
X353337703Y-117138926D01*
X353334553Y-117117691D01*
X353333500Y-117096250D01*
X353333500Y-116583750D01*
X353334553Y-116562309D01*
X353337703Y-116541074D01*
X353342919Y-116520250D01*
X353350151Y-116500038D01*
X353359330Y-116480632D01*
X353370366Y-116462219D01*
X353383154Y-116444976D01*
X353397570Y-116429070D01*
X353413476Y-116414654D01*
X353430719Y-116401866D01*
X353449132Y-116390830D01*
X353468538Y-116381651D01*
X353488750Y-116374419D01*
X353509574Y-116369203D01*
X353530809Y-116366053D01*
X353552250Y-116365000D01*
X353989750Y-116365000D01*
X354011191Y-116366053D01*
X354011191Y-116366053D01*
G37*
D16*
X353771000Y-116840000D03*
D17*
X359918000Y-109982000D03*
D18*
X359918000Y-112522000D03*
X359918000Y-119380000D03*
D17*
X359918000Y-116840000D03*
D11*
G36*
X325229802Y-113054482D02*
G01*
X325239509Y-113055921D01*
X325249028Y-113058306D01*
X325258268Y-113061612D01*
X325267140Y-113065808D01*
X325275557Y-113070853D01*
X325283439Y-113076699D01*
X325290711Y-113083289D01*
X325297301Y-113090561D01*
X325303147Y-113098443D01*
X325308192Y-113106860D01*
X325312388Y-113115732D01*
X325315694Y-113124972D01*
X325318079Y-113134491D01*
X325319518Y-113144198D01*
X325320000Y-113154000D01*
X325320000Y-113414000D01*
X325319518Y-113423802D01*
X325318079Y-113433509D01*
X325315694Y-113443028D01*
X325312388Y-113452268D01*
X325308192Y-113461140D01*
X325303147Y-113469557D01*
X325297301Y-113477439D01*
X325290711Y-113484711D01*
X325283439Y-113491301D01*
X325275557Y-113497147D01*
X325267140Y-113502192D01*
X325258268Y-113506388D01*
X325249028Y-113509694D01*
X325239509Y-113512079D01*
X325229802Y-113513518D01*
X325220000Y-113514000D01*
X325020000Y-113514000D01*
X325010198Y-113513518D01*
X325000491Y-113512079D01*
X324990972Y-113509694D01*
X324981732Y-113506388D01*
X324972860Y-113502192D01*
X324964443Y-113497147D01*
X324956561Y-113491301D01*
X324949289Y-113484711D01*
X324942699Y-113477439D01*
X324936853Y-113469557D01*
X324931808Y-113461140D01*
X324927612Y-113452268D01*
X324924306Y-113443028D01*
X324921921Y-113433509D01*
X324920482Y-113423802D01*
X324920000Y-113414000D01*
X324920000Y-113154000D01*
X324920482Y-113144198D01*
X324921921Y-113134491D01*
X324924306Y-113124972D01*
X324927612Y-113115732D01*
X324931808Y-113106860D01*
X324936853Y-113098443D01*
X324942699Y-113090561D01*
X324949289Y-113083289D01*
X324956561Y-113076699D01*
X324964443Y-113070853D01*
X324972860Y-113065808D01*
X324981732Y-113061612D01*
X324990972Y-113058306D01*
X325000491Y-113055921D01*
X325010198Y-113054482D01*
X325020000Y-113054000D01*
X325220000Y-113054000D01*
X325229802Y-113054482D01*
X325229802Y-113054482D01*
G37*
D15*
X325120000Y-113284000D03*
D11*
G36*
X325229802Y-113694482D02*
G01*
X325239509Y-113695921D01*
X325249028Y-113698306D01*
X325258268Y-113701612D01*
X325267140Y-113705808D01*
X325275557Y-113710853D01*
X325283439Y-113716699D01*
X325290711Y-113723289D01*
X325297301Y-113730561D01*
X325303147Y-113738443D01*
X325308192Y-113746860D01*
X325312388Y-113755732D01*
X325315694Y-113764972D01*
X325318079Y-113774491D01*
X325319518Y-113784198D01*
X325320000Y-113794000D01*
X325320000Y-114054000D01*
X325319518Y-114063802D01*
X325318079Y-114073509D01*
X325315694Y-114083028D01*
X325312388Y-114092268D01*
X325308192Y-114101140D01*
X325303147Y-114109557D01*
X325297301Y-114117439D01*
X325290711Y-114124711D01*
X325283439Y-114131301D01*
X325275557Y-114137147D01*
X325267140Y-114142192D01*
X325258268Y-114146388D01*
X325249028Y-114149694D01*
X325239509Y-114152079D01*
X325229802Y-114153518D01*
X325220000Y-114154000D01*
X325020000Y-114154000D01*
X325010198Y-114153518D01*
X325000491Y-114152079D01*
X324990972Y-114149694D01*
X324981732Y-114146388D01*
X324972860Y-114142192D01*
X324964443Y-114137147D01*
X324956561Y-114131301D01*
X324949289Y-114124711D01*
X324942699Y-114117439D01*
X324936853Y-114109557D01*
X324931808Y-114101140D01*
X324927612Y-114092268D01*
X324924306Y-114083028D01*
X324921921Y-114073509D01*
X324920482Y-114063802D01*
X324920000Y-114054000D01*
X324920000Y-113794000D01*
X324920482Y-113784198D01*
X324921921Y-113774491D01*
X324924306Y-113764972D01*
X324927612Y-113755732D01*
X324931808Y-113746860D01*
X324936853Y-113738443D01*
X324942699Y-113730561D01*
X324949289Y-113723289D01*
X324956561Y-113716699D01*
X324964443Y-113710853D01*
X324972860Y-113705808D01*
X324981732Y-113701612D01*
X324990972Y-113698306D01*
X325000491Y-113695921D01*
X325010198Y-113694482D01*
X325020000Y-113694000D01*
X325220000Y-113694000D01*
X325229802Y-113694482D01*
X325229802Y-113694482D01*
G37*
D15*
X325120000Y-113924000D03*
D11*
G36*
X333103802Y-123722482D02*
G01*
X333113509Y-123723921D01*
X333123028Y-123726306D01*
X333132268Y-123729612D01*
X333141140Y-123733808D01*
X333149557Y-123738853D01*
X333157439Y-123744699D01*
X333164711Y-123751289D01*
X333171301Y-123758561D01*
X333177147Y-123766443D01*
X333182192Y-123774860D01*
X333186388Y-123783732D01*
X333189694Y-123792972D01*
X333192079Y-123802491D01*
X333193518Y-123812198D01*
X333194000Y-123822000D01*
X333194000Y-124082000D01*
X333193518Y-124091802D01*
X333192079Y-124101509D01*
X333189694Y-124111028D01*
X333186388Y-124120268D01*
X333182192Y-124129140D01*
X333177147Y-124137557D01*
X333171301Y-124145439D01*
X333164711Y-124152711D01*
X333157439Y-124159301D01*
X333149557Y-124165147D01*
X333141140Y-124170192D01*
X333132268Y-124174388D01*
X333123028Y-124177694D01*
X333113509Y-124180079D01*
X333103802Y-124181518D01*
X333094000Y-124182000D01*
X332894000Y-124182000D01*
X332884198Y-124181518D01*
X332874491Y-124180079D01*
X332864972Y-124177694D01*
X332855732Y-124174388D01*
X332846860Y-124170192D01*
X332838443Y-124165147D01*
X332830561Y-124159301D01*
X332823289Y-124152711D01*
X332816699Y-124145439D01*
X332810853Y-124137557D01*
X332805808Y-124129140D01*
X332801612Y-124120268D01*
X332798306Y-124111028D01*
X332795921Y-124101509D01*
X332794482Y-124091802D01*
X332794000Y-124082000D01*
X332794000Y-123822000D01*
X332794482Y-123812198D01*
X332795921Y-123802491D01*
X332798306Y-123792972D01*
X332801612Y-123783732D01*
X332805808Y-123774860D01*
X332810853Y-123766443D01*
X332816699Y-123758561D01*
X332823289Y-123751289D01*
X332830561Y-123744699D01*
X332838443Y-123738853D01*
X332846860Y-123733808D01*
X332855732Y-123729612D01*
X332864972Y-123726306D01*
X332874491Y-123723921D01*
X332884198Y-123722482D01*
X332894000Y-123722000D01*
X333094000Y-123722000D01*
X333103802Y-123722482D01*
X333103802Y-123722482D01*
G37*
D15*
X332994000Y-123952000D03*
D11*
G36*
X333103802Y-123082482D02*
G01*
X333113509Y-123083921D01*
X333123028Y-123086306D01*
X333132268Y-123089612D01*
X333141140Y-123093808D01*
X333149557Y-123098853D01*
X333157439Y-123104699D01*
X333164711Y-123111289D01*
X333171301Y-123118561D01*
X333177147Y-123126443D01*
X333182192Y-123134860D01*
X333186388Y-123143732D01*
X333189694Y-123152972D01*
X333192079Y-123162491D01*
X333193518Y-123172198D01*
X333194000Y-123182000D01*
X333194000Y-123442000D01*
X333193518Y-123451802D01*
X333192079Y-123461509D01*
X333189694Y-123471028D01*
X333186388Y-123480268D01*
X333182192Y-123489140D01*
X333177147Y-123497557D01*
X333171301Y-123505439D01*
X333164711Y-123512711D01*
X333157439Y-123519301D01*
X333149557Y-123525147D01*
X333141140Y-123530192D01*
X333132268Y-123534388D01*
X333123028Y-123537694D01*
X333113509Y-123540079D01*
X333103802Y-123541518D01*
X333094000Y-123542000D01*
X332894000Y-123542000D01*
X332884198Y-123541518D01*
X332874491Y-123540079D01*
X332864972Y-123537694D01*
X332855732Y-123534388D01*
X332846860Y-123530192D01*
X332838443Y-123525147D01*
X332830561Y-123519301D01*
X332823289Y-123512711D01*
X332816699Y-123505439D01*
X332810853Y-123497557D01*
X332805808Y-123489140D01*
X332801612Y-123480268D01*
X332798306Y-123471028D01*
X332795921Y-123461509D01*
X332794482Y-123451802D01*
X332794000Y-123442000D01*
X332794000Y-123182000D01*
X332794482Y-123172198D01*
X332795921Y-123162491D01*
X332798306Y-123152972D01*
X332801612Y-123143732D01*
X332805808Y-123134860D01*
X332810853Y-123126443D01*
X332816699Y-123118561D01*
X332823289Y-123111289D01*
X332830561Y-123104699D01*
X332838443Y-123098853D01*
X332846860Y-123093808D01*
X332855732Y-123089612D01*
X332864972Y-123086306D01*
X332874491Y-123083921D01*
X332884198Y-123082482D01*
X332894000Y-123082000D01*
X333094000Y-123082000D01*
X333103802Y-123082482D01*
X333103802Y-123082482D01*
G37*
D15*
X332994000Y-123312000D03*
D11*
G36*
X329039802Y-118576482D02*
G01*
X329049509Y-118577921D01*
X329059028Y-118580306D01*
X329068268Y-118583612D01*
X329077140Y-118587808D01*
X329085557Y-118592853D01*
X329093439Y-118598699D01*
X329100711Y-118605289D01*
X329107301Y-118612561D01*
X329113147Y-118620443D01*
X329118192Y-118628860D01*
X329122388Y-118637732D01*
X329125694Y-118646972D01*
X329128079Y-118656491D01*
X329129518Y-118666198D01*
X329130000Y-118676000D01*
X329130000Y-118936000D01*
X329129518Y-118945802D01*
X329128079Y-118955509D01*
X329125694Y-118965028D01*
X329122388Y-118974268D01*
X329118192Y-118983140D01*
X329113147Y-118991557D01*
X329107301Y-118999439D01*
X329100711Y-119006711D01*
X329093439Y-119013301D01*
X329085557Y-119019147D01*
X329077140Y-119024192D01*
X329068268Y-119028388D01*
X329059028Y-119031694D01*
X329049509Y-119034079D01*
X329039802Y-119035518D01*
X329030000Y-119036000D01*
X328830000Y-119036000D01*
X328820198Y-119035518D01*
X328810491Y-119034079D01*
X328800972Y-119031694D01*
X328791732Y-119028388D01*
X328782860Y-119024192D01*
X328774443Y-119019147D01*
X328766561Y-119013301D01*
X328759289Y-119006711D01*
X328752699Y-118999439D01*
X328746853Y-118991557D01*
X328741808Y-118983140D01*
X328737612Y-118974268D01*
X328734306Y-118965028D01*
X328731921Y-118955509D01*
X328730482Y-118945802D01*
X328730000Y-118936000D01*
X328730000Y-118676000D01*
X328730482Y-118666198D01*
X328731921Y-118656491D01*
X328734306Y-118646972D01*
X328737612Y-118637732D01*
X328741808Y-118628860D01*
X328746853Y-118620443D01*
X328752699Y-118612561D01*
X328759289Y-118605289D01*
X328766561Y-118598699D01*
X328774443Y-118592853D01*
X328782860Y-118587808D01*
X328791732Y-118583612D01*
X328800972Y-118580306D01*
X328810491Y-118577921D01*
X328820198Y-118576482D01*
X328830000Y-118576000D01*
X329030000Y-118576000D01*
X329039802Y-118576482D01*
X329039802Y-118576482D01*
G37*
D15*
X328930000Y-118806000D03*
D11*
G36*
X329039802Y-119216482D02*
G01*
X329049509Y-119217921D01*
X329059028Y-119220306D01*
X329068268Y-119223612D01*
X329077140Y-119227808D01*
X329085557Y-119232853D01*
X329093439Y-119238699D01*
X329100711Y-119245289D01*
X329107301Y-119252561D01*
X329113147Y-119260443D01*
X329118192Y-119268860D01*
X329122388Y-119277732D01*
X329125694Y-119286972D01*
X329128079Y-119296491D01*
X329129518Y-119306198D01*
X329130000Y-119316000D01*
X329130000Y-119576000D01*
X329129518Y-119585802D01*
X329128079Y-119595509D01*
X329125694Y-119605028D01*
X329122388Y-119614268D01*
X329118192Y-119623140D01*
X329113147Y-119631557D01*
X329107301Y-119639439D01*
X329100711Y-119646711D01*
X329093439Y-119653301D01*
X329085557Y-119659147D01*
X329077140Y-119664192D01*
X329068268Y-119668388D01*
X329059028Y-119671694D01*
X329049509Y-119674079D01*
X329039802Y-119675518D01*
X329030000Y-119676000D01*
X328830000Y-119676000D01*
X328820198Y-119675518D01*
X328810491Y-119674079D01*
X328800972Y-119671694D01*
X328791732Y-119668388D01*
X328782860Y-119664192D01*
X328774443Y-119659147D01*
X328766561Y-119653301D01*
X328759289Y-119646711D01*
X328752699Y-119639439D01*
X328746853Y-119631557D01*
X328741808Y-119623140D01*
X328737612Y-119614268D01*
X328734306Y-119605028D01*
X328731921Y-119595509D01*
X328730482Y-119585802D01*
X328730000Y-119576000D01*
X328730000Y-119316000D01*
X328730482Y-119306198D01*
X328731921Y-119296491D01*
X328734306Y-119286972D01*
X328737612Y-119277732D01*
X328741808Y-119268860D01*
X328746853Y-119260443D01*
X328752699Y-119252561D01*
X328759289Y-119245289D01*
X328766561Y-119238699D01*
X328774443Y-119232853D01*
X328782860Y-119227808D01*
X328791732Y-119223612D01*
X328800972Y-119220306D01*
X328810491Y-119217921D01*
X328820198Y-119216482D01*
X328830000Y-119216000D01*
X329030000Y-119216000D01*
X329039802Y-119216482D01*
X329039802Y-119216482D01*
G37*
D15*
X328930000Y-119446000D03*
D11*
G36*
X352153802Y-117814482D02*
G01*
X352163509Y-117815921D01*
X352173028Y-117818306D01*
X352182268Y-117821612D01*
X352191140Y-117825808D01*
X352199557Y-117830853D01*
X352207439Y-117836699D01*
X352214711Y-117843289D01*
X352221301Y-117850561D01*
X352227147Y-117858443D01*
X352232192Y-117866860D01*
X352236388Y-117875732D01*
X352239694Y-117884972D01*
X352242079Y-117894491D01*
X352243518Y-117904198D01*
X352244000Y-117914000D01*
X352244000Y-118174000D01*
X352243518Y-118183802D01*
X352242079Y-118193509D01*
X352239694Y-118203028D01*
X352236388Y-118212268D01*
X352232192Y-118221140D01*
X352227147Y-118229557D01*
X352221301Y-118237439D01*
X352214711Y-118244711D01*
X352207439Y-118251301D01*
X352199557Y-118257147D01*
X352191140Y-118262192D01*
X352182268Y-118266388D01*
X352173028Y-118269694D01*
X352163509Y-118272079D01*
X352153802Y-118273518D01*
X352144000Y-118274000D01*
X351944000Y-118274000D01*
X351934198Y-118273518D01*
X351924491Y-118272079D01*
X351914972Y-118269694D01*
X351905732Y-118266388D01*
X351896860Y-118262192D01*
X351888443Y-118257147D01*
X351880561Y-118251301D01*
X351873289Y-118244711D01*
X351866699Y-118237439D01*
X351860853Y-118229557D01*
X351855808Y-118221140D01*
X351851612Y-118212268D01*
X351848306Y-118203028D01*
X351845921Y-118193509D01*
X351844482Y-118183802D01*
X351844000Y-118174000D01*
X351844000Y-117914000D01*
X351844482Y-117904198D01*
X351845921Y-117894491D01*
X351848306Y-117884972D01*
X351851612Y-117875732D01*
X351855808Y-117866860D01*
X351860853Y-117858443D01*
X351866699Y-117850561D01*
X351873289Y-117843289D01*
X351880561Y-117836699D01*
X351888443Y-117830853D01*
X351896860Y-117825808D01*
X351905732Y-117821612D01*
X351914972Y-117818306D01*
X351924491Y-117815921D01*
X351934198Y-117814482D01*
X351944000Y-117814000D01*
X352144000Y-117814000D01*
X352153802Y-117814482D01*
X352153802Y-117814482D01*
G37*
D15*
X352044000Y-118044000D03*
D11*
G36*
X352153802Y-118454482D02*
G01*
X352163509Y-118455921D01*
X352173028Y-118458306D01*
X352182268Y-118461612D01*
X352191140Y-118465808D01*
X352199557Y-118470853D01*
X352207439Y-118476699D01*
X352214711Y-118483289D01*
X352221301Y-118490561D01*
X352227147Y-118498443D01*
X352232192Y-118506860D01*
X352236388Y-118515732D01*
X352239694Y-118524972D01*
X352242079Y-118534491D01*
X352243518Y-118544198D01*
X352244000Y-118554000D01*
X352244000Y-118814000D01*
X352243518Y-118823802D01*
X352242079Y-118833509D01*
X352239694Y-118843028D01*
X352236388Y-118852268D01*
X352232192Y-118861140D01*
X352227147Y-118869557D01*
X352221301Y-118877439D01*
X352214711Y-118884711D01*
X352207439Y-118891301D01*
X352199557Y-118897147D01*
X352191140Y-118902192D01*
X352182268Y-118906388D01*
X352173028Y-118909694D01*
X352163509Y-118912079D01*
X352153802Y-118913518D01*
X352144000Y-118914000D01*
X351944000Y-118914000D01*
X351934198Y-118913518D01*
X351924491Y-118912079D01*
X351914972Y-118909694D01*
X351905732Y-118906388D01*
X351896860Y-118902192D01*
X351888443Y-118897147D01*
X351880561Y-118891301D01*
X351873289Y-118884711D01*
X351866699Y-118877439D01*
X351860853Y-118869557D01*
X351855808Y-118861140D01*
X351851612Y-118852268D01*
X351848306Y-118843028D01*
X351845921Y-118833509D01*
X351844482Y-118823802D01*
X351844000Y-118814000D01*
X351844000Y-118554000D01*
X351844482Y-118544198D01*
X351845921Y-118534491D01*
X351848306Y-118524972D01*
X351851612Y-118515732D01*
X351855808Y-118506860D01*
X351860853Y-118498443D01*
X351866699Y-118490561D01*
X351873289Y-118483289D01*
X351880561Y-118476699D01*
X351888443Y-118470853D01*
X351896860Y-118465808D01*
X351905732Y-118461612D01*
X351914972Y-118458306D01*
X351924491Y-118455921D01*
X351934198Y-118454482D01*
X351944000Y-118454000D01*
X352144000Y-118454000D01*
X352153802Y-118454482D01*
X352153802Y-118454482D01*
G37*
D15*
X352044000Y-118684000D03*
D11*
G36*
X356943802Y-116640482D02*
G01*
X356953509Y-116641921D01*
X356963028Y-116644306D01*
X356972268Y-116647612D01*
X356981140Y-116651808D01*
X356989557Y-116656853D01*
X356997439Y-116662699D01*
X357004711Y-116669289D01*
X357011301Y-116676561D01*
X357017147Y-116684443D01*
X357022192Y-116692860D01*
X357026388Y-116701732D01*
X357029694Y-116710972D01*
X357032079Y-116720491D01*
X357033518Y-116730198D01*
X357034000Y-116740000D01*
X357034000Y-116940000D01*
X357033518Y-116949802D01*
X357032079Y-116959509D01*
X357029694Y-116969028D01*
X357026388Y-116978268D01*
X357022192Y-116987140D01*
X357017147Y-116995557D01*
X357011301Y-117003439D01*
X357004711Y-117010711D01*
X356997439Y-117017301D01*
X356989557Y-117023147D01*
X356981140Y-117028192D01*
X356972268Y-117032388D01*
X356963028Y-117035694D01*
X356953509Y-117038079D01*
X356943802Y-117039518D01*
X356934000Y-117040000D01*
X356674000Y-117040000D01*
X356664198Y-117039518D01*
X356654491Y-117038079D01*
X356644972Y-117035694D01*
X356635732Y-117032388D01*
X356626860Y-117028192D01*
X356618443Y-117023147D01*
X356610561Y-117017301D01*
X356603289Y-117010711D01*
X356596699Y-117003439D01*
X356590853Y-116995557D01*
X356585808Y-116987140D01*
X356581612Y-116978268D01*
X356578306Y-116969028D01*
X356575921Y-116959509D01*
X356574482Y-116949802D01*
X356574000Y-116940000D01*
X356574000Y-116740000D01*
X356574482Y-116730198D01*
X356575921Y-116720491D01*
X356578306Y-116710972D01*
X356581612Y-116701732D01*
X356585808Y-116692860D01*
X356590853Y-116684443D01*
X356596699Y-116676561D01*
X356603289Y-116669289D01*
X356610561Y-116662699D01*
X356618443Y-116656853D01*
X356626860Y-116651808D01*
X356635732Y-116647612D01*
X356644972Y-116644306D01*
X356654491Y-116641921D01*
X356664198Y-116640482D01*
X356674000Y-116640000D01*
X356934000Y-116640000D01*
X356943802Y-116640482D01*
X356943802Y-116640482D01*
G37*
D15*
X356804000Y-116840000D03*
D11*
G36*
X357583802Y-116640482D02*
G01*
X357593509Y-116641921D01*
X357603028Y-116644306D01*
X357612268Y-116647612D01*
X357621140Y-116651808D01*
X357629557Y-116656853D01*
X357637439Y-116662699D01*
X357644711Y-116669289D01*
X357651301Y-116676561D01*
X357657147Y-116684443D01*
X357662192Y-116692860D01*
X357666388Y-116701732D01*
X357669694Y-116710972D01*
X357672079Y-116720491D01*
X357673518Y-116730198D01*
X357674000Y-116740000D01*
X357674000Y-116940000D01*
X357673518Y-116949802D01*
X357672079Y-116959509D01*
X357669694Y-116969028D01*
X357666388Y-116978268D01*
X357662192Y-116987140D01*
X357657147Y-116995557D01*
X357651301Y-117003439D01*
X357644711Y-117010711D01*
X357637439Y-117017301D01*
X357629557Y-117023147D01*
X357621140Y-117028192D01*
X357612268Y-117032388D01*
X357603028Y-117035694D01*
X357593509Y-117038079D01*
X357583802Y-117039518D01*
X357574000Y-117040000D01*
X357314000Y-117040000D01*
X357304198Y-117039518D01*
X357294491Y-117038079D01*
X357284972Y-117035694D01*
X357275732Y-117032388D01*
X357266860Y-117028192D01*
X357258443Y-117023147D01*
X357250561Y-117017301D01*
X357243289Y-117010711D01*
X357236699Y-117003439D01*
X357230853Y-116995557D01*
X357225808Y-116987140D01*
X357221612Y-116978268D01*
X357218306Y-116969028D01*
X357215921Y-116959509D01*
X357214482Y-116949802D01*
X357214000Y-116940000D01*
X357214000Y-116740000D01*
X357214482Y-116730198D01*
X357215921Y-116720491D01*
X357218306Y-116710972D01*
X357221612Y-116701732D01*
X357225808Y-116692860D01*
X357230853Y-116684443D01*
X357236699Y-116676561D01*
X357243289Y-116669289D01*
X357250561Y-116662699D01*
X357258443Y-116656853D01*
X357266860Y-116651808D01*
X357275732Y-116647612D01*
X357284972Y-116644306D01*
X357294491Y-116641921D01*
X357304198Y-116640482D01*
X357314000Y-116640000D01*
X357574000Y-116640000D01*
X357583802Y-116640482D01*
X357583802Y-116640482D01*
G37*
D15*
X357444000Y-116840000D03*
D19*
X320120000Y-123658000D03*
X325120000Y-121158000D03*
X320120000Y-118658000D03*
D20*
X320421000Y-108204000D03*
D21*
X325120000Y-108204000D03*
X329819000Y-108204000D03*
D22*
X333070200Y-115443000D03*
X333070200Y-116713000D03*
X333070200Y-117983000D03*
X333070200Y-119253000D03*
X337997800Y-119253000D03*
X337997800Y-117983000D03*
X337997800Y-116713000D03*
X337997800Y-115443000D03*
D23*
X343687400Y-115380000D03*
X343687400Y-116650000D03*
X343687400Y-117920000D03*
X343687400Y-119190000D03*
X343687400Y-120460000D03*
X343687400Y-121730000D03*
X343687400Y-123000000D03*
X348488000Y-123000000D03*
X348488000Y-121730000D03*
X348488000Y-120460000D03*
X348488000Y-119190000D03*
X348488000Y-117920000D03*
X348488000Y-116650000D03*
X348488000Y-115380000D03*
D24*
X333937800Y-114046000D03*
X351028000Y-117856000D03*
X357378000Y-120904000D03*
X341884000Y-122936000D03*
X325120000Y-115062000D03*
X328930000Y-122428000D03*
X334264000Y-120650000D03*
X330454000Y-122428000D03*
X330454000Y-124968000D03*
X332994000Y-121158000D03*
X335854000Y-112710000D03*
X346202000Y-114046000D03*
X352298000Y-116840000D03*
D25*
X334884000Y-114046000D02*
X335214000Y-114046000D01*
X333937800Y-114046000D02*
X334884000Y-114046000D01*
X333070200Y-114913600D02*
X333937800Y-114046000D01*
X333070200Y-115443000D02*
X333070200Y-114913600D01*
X348488000Y-116650000D02*
X349822000Y-116650000D01*
X349822000Y-116650000D02*
X351028000Y-117856000D01*
X350964000Y-117920000D02*
X351028000Y-117856000D01*
X348488000Y-117920000D02*
X350964000Y-117920000D01*
X357444000Y-116840000D02*
X357444000Y-119634000D01*
X357444000Y-119634000D02*
X357444000Y-120838000D01*
X357444000Y-120838000D02*
X357378000Y-120904000D01*
X351216000Y-118044000D02*
X351028000Y-117856000D01*
X352044000Y-118044000D02*
X351216000Y-118044000D01*
X343687400Y-123000000D02*
X341948000Y-123000000D01*
X341948000Y-123000000D02*
X341884000Y-122936000D01*
X325120000Y-113924000D02*
X325120000Y-115062000D01*
X328930000Y-121478000D02*
X328930000Y-122428000D01*
X335305000Y-120650000D02*
X334264000Y-120650000D01*
X328930000Y-120838000D02*
X328930000Y-119446000D01*
X334310800Y-116713000D02*
X333070200Y-116713000D01*
X335487200Y-116713000D02*
X334310800Y-116713000D01*
X336757200Y-117983000D02*
X335487200Y-116713000D01*
X337997800Y-117983000D02*
X336757200Y-117983000D01*
X329230000Y-119446000D02*
X328930000Y-119446000D01*
X329626000Y-119446000D02*
X329230000Y-119446000D01*
X333070200Y-116713000D02*
X332359000Y-116713000D01*
X332359000Y-116713000D02*
X331724000Y-117348000D01*
X331724000Y-117348000D02*
X329626000Y-119446000D01*
X329819000Y-110170676D02*
X329819000Y-108204000D01*
X329819000Y-114702400D02*
X329819000Y-110170676D01*
X331829600Y-116713000D02*
X329819000Y-114702400D01*
X333070200Y-116713000D02*
X331829600Y-116713000D01*
X337997800Y-119782400D02*
X337997800Y-119253000D01*
X337130200Y-120650000D02*
X337997800Y-119782400D01*
X335945000Y-120650000D02*
X337130200Y-120650000D01*
X355346000Y-116840000D02*
X356804000Y-116840000D01*
X325120000Y-113284000D02*
X325120000Y-108204000D01*
X318262000Y-113284000D02*
X310896000Y-120650000D01*
X325120000Y-113284000D02*
X318262000Y-113284000D01*
X325120000Y-122812629D02*
X325120000Y-121158000D01*
X332994000Y-123952000D02*
X326259371Y-123952000D01*
X326259371Y-123952000D02*
X325120000Y-122812629D01*
X338709000Y-116713000D02*
X337997800Y-116713000D01*
X339313401Y-117317401D02*
X338709000Y-116713000D01*
X339313401Y-119792401D02*
X339313401Y-117317401D01*
X335153802Y-123952000D02*
X339313401Y-119792401D01*
X332994000Y-123952000D02*
X335153802Y-123952000D01*
X320268000Y-118806000D02*
X320120000Y-118658000D01*
X328930000Y-118806000D02*
X320268000Y-118806000D01*
X330454000Y-120014198D02*
X330454000Y-122428000D01*
X330454000Y-119888000D02*
X330454000Y-120014198D01*
X333070200Y-117983000D02*
X332359000Y-117983000D01*
X332359000Y-117983000D02*
X330454000Y-119888000D01*
X342963500Y-115380000D02*
X343687400Y-115380000D01*
X341433991Y-116909509D02*
X342963500Y-115380000D01*
X341433991Y-118308221D02*
X341433991Y-116909509D01*
X334374213Y-125367999D02*
X341433991Y-118308221D01*
X330853999Y-125367999D02*
X334374213Y-125367999D01*
X330454000Y-124968000D02*
X330853999Y-125367999D01*
D26*
X348488000Y-107442000D02*
X348488000Y-115380000D01*
X349250000Y-106680000D02*
X348488000Y-107442000D01*
X341884000Y-106680000D02*
X336042000Y-112522000D01*
X349250000Y-106680000D02*
X341884000Y-106680000D01*
X335854000Y-112710000D02*
X336042000Y-112522000D01*
X335854000Y-114046000D02*
X335854000Y-112710000D01*
X337997800Y-114913600D02*
X337997800Y-115443000D01*
X337130200Y-114046000D02*
X337997800Y-114913600D01*
X335854000Y-114046000D02*
X337130200Y-114046000D01*
X332994000Y-119329200D02*
X333070200Y-119253000D01*
X332994000Y-123312000D02*
X332994000Y-121158000D01*
X338328000Y-103124000D02*
X320548000Y-103124000D01*
X341884000Y-106680000D02*
X338328000Y-103124000D01*
X313182000Y-110490000D02*
X310896000Y-110490000D01*
X320548000Y-103124000D02*
X313182000Y-110490000D01*
X349250000Y-106680000D02*
X354584000Y-106680000D01*
X357886000Y-109982000D02*
X359918000Y-109982000D01*
X354584000Y-106680000D02*
X357886000Y-109982000D01*
X367203426Y-111760000D02*
X367733000Y-111760000D01*
X367733000Y-111760000D02*
X368808000Y-111760000D01*
X363046000Y-111760000D02*
X367733000Y-111760000D01*
X361268000Y-109982000D02*
X363046000Y-111760000D01*
X359918000Y-109982000D02*
X361268000Y-109982000D01*
X333070200Y-121081800D02*
X332994000Y-121158000D01*
X333070200Y-119253000D02*
X333070200Y-121081800D01*
D25*
X353796500Y-119634000D02*
X353796500Y-120116500D01*
X359918000Y-120582081D02*
X359918000Y-119380000D01*
X358871080Y-121629001D02*
X359918000Y-120582081D01*
X355309001Y-121629001D02*
X358871080Y-121629001D01*
X353796500Y-120116500D02*
X355309001Y-121629001D01*
X348488000Y-120460000D02*
X351218000Y-120460000D01*
X351218000Y-120460000D02*
X352044000Y-119634000D01*
X352044000Y-119634000D02*
X353796500Y-119634000D01*
X352044000Y-119014000D02*
X352044000Y-119634000D01*
X352044000Y-118684000D02*
X352044000Y-119014000D01*
X348488000Y-121730000D02*
X348488000Y-120460000D01*
X368688000Y-119380000D02*
X368808000Y-119260000D01*
X358902000Y-119380000D02*
X368688000Y-119380000D01*
X355371500Y-119634000D02*
X356804000Y-119634000D01*
X348488000Y-123698000D02*
X348488000Y-123000000D01*
X348234000Y-123952000D02*
X348488000Y-123698000D01*
X341630000Y-123952000D02*
X348234000Y-123952000D01*
X342408700Y-116650000D02*
X341884000Y-117174700D01*
X343687400Y-116650000D02*
X342408700Y-116650000D01*
X341884000Y-117174700D02*
X341884000Y-121862998D01*
X341884000Y-121862998D02*
X341122000Y-122624998D01*
X341122000Y-122624998D02*
X341122000Y-123444000D01*
X341122000Y-123444000D02*
X341630000Y-123952000D01*
X343687400Y-120460000D02*
X343687400Y-119190000D01*
X343687400Y-117920000D02*
X343687400Y-119190000D01*
X353771000Y-116840000D02*
X353771000Y-116129000D01*
X353771000Y-116129000D02*
X354330000Y-115570000D01*
X358818000Y-116840000D02*
X359918000Y-116840000D01*
X357548000Y-115570000D02*
X358818000Y-116840000D01*
X354330000Y-115570000D02*
X357548000Y-115570000D01*
X343687400Y-121730000D02*
X344411300Y-121730000D01*
X344966100Y-121730000D02*
X346202000Y-120494100D01*
X343687400Y-121730000D02*
X344966100Y-121730000D01*
X346202000Y-120494100D02*
X346202000Y-114046000D01*
X353771000Y-116840000D02*
X352298000Y-116840000D01*
X368728000Y-116840000D02*
X368808000Y-116760000D01*
X358902000Y-116840000D02*
X368728000Y-116840000D01*
M02*
